<!-- Generator: Adobe Illustrator 19.0.0, SVG Export Plug-In  -->
<svg version="1.1"
  xmlns="http://www.w3.org/2000/svg" xmlns : xlink="http://www.w3.org/1999/xlink" xmlns : a="http://ns.adobe.com/AdobeSVGViewerExtensions/3.0/"
  x="0px" y="0px" width="10.2px" height="18px" viewBox="0 0 10.2 18" style="enable-background:new 0 0 10.2 18;"
  xml:space="preserve">
<style type="text/css">
  .st0{fill:#1976D2;}
</style>
<defs>
</defs>
<path class="st0" d="M5.5,7.9c-2.3-0.6-3-1.2-3-2.1c0-1.1,1-1.8,2.7-1.8C7,3.9,7.6,4.8,7.7,6h2.2C9.8,4.3,8.8,2.7,6.7,2.2V0h-3v2.2
  C1.7,2.6,0.2,3.8,0.2,5.8c0,2.3,1.9,3.5,4.7,4.1c2.5,0.6,3,1.5,3,2.4c0,0.7-0.5,1.8-2.7,1.8c-2.1,0-2.9-0.9-3-2.1H0
  c0.1,2.2,1.8,3.4,3.7,3.8V18h3v-2.1c1.9-0.4,3.5-1.5,3.5-3.6C10.2,9.5,7.8,8.5,5.5,7.9z"/>
</svg>