<!-- Generator: Adobe Illustrator 19.0.0, SVG Export Plug-In  -->
<svg version="1.1"
  xmlns="http://www.w3.org/2000/svg" xmlns : xlink="http://www.w3.org/1999/xlink" xmlns : a="http://ns.adobe.com/AdobeSVGViewerExtensions/3.0/"
  x="0px" y="0px" width="14.3px" height="14px" viewBox="0 0 14.3 14" style="enable-background:new 0 0 14.3 14;"
  xml:space="preserve">
<style type="text/css">
  .st0{fill:#1976D2;}
</style>
<defs>
</defs>
<path class="st0" d="M3.9,6.2L3.9,7l0.1,0.8h8l-0.7,1.6H4.4c0.9,1.8,2.8,3.1,4.9,3.1c1.7,0,3.3-0.8,4.3-2.1v2.2
  c-1.2,0.9-2.7,1.5-4.3,1.5c-3,0-5.6-1.9-6.6-4.7H0l0.8-1.6h1.6l0-0.8l0-0.8H0l0.8-1.6h1.9C3.7,1.9,6.3,0,9.3,0c1.9,0,3.7,0.8,5,2.1
  l-0.7,1.6c-1-1.3-2.6-2.1-4.3-2.1c-2.2,0-4,1.3-4.9,3.1h8.8l-0.7,1.6H3.9z"/>
</svg>