<!-- Generator: Adobe Illustrator 19.0.0, SVG Export Plug-In  -->
<svg version="1.1"
	 xmlns="http://www.w3.org/2000/svg" xmlns:xlink="http://www.w3.org/1999/xlink" xmlns:a="http://ns.adobe.com/AdobeSVGViewerExtensions/3.0/"
	 x="0px" y="0px" width="43.2px" height="48px" viewBox="0 0 43.2 48" style="enable-background:new 0 0 43.2 48;"
	 xml:space="preserve">
<style type="text/css">
	.st0{fill:#607D8B;}
</style>
<defs>
</defs>
<path class="st0" d="M21.6,7.2c11.9,0,21.6,6.5,21.6,14.4c0,4-2.5,7.7-6.5,10.3c2.6-2.1,4.1-4.7,4.1-7.6c0-6.8-8.6-12.3-19.2-12.3
	v7.2L12,9.6L21.6,0V7.2 M21.6,40.8C9.7,40.8,0,34.3,0,26.4c0-4,2.5-7.7,6.5-10.3c-2.6,2.1-4.1,4.7-4.1,7.6C2.4,30.5,11,36,21.6,36
	v-7.2l9.6,9.6L21.6,48V40.8z"/>
</svg>
