<?xml version="1.0" encoding="utf-8"?>
<!-- Generator: Adobe Illustrator 19.0.0, SVG Export Plug-In . SVG Version: 6.00 Build 0)  -->
<svg version="1.1" id="Layer_1" xmlns="http://www.w3.org/2000/svg" xmlns:xlink="http://www.w3.org/1999/xlink" x="0px" y="0px"
	 viewBox="4 -4 48 48" style="enable-background:new 4 -4 48 48;" xml:space="preserve">
<path d="M22,18h-4v4h4V18z M30,18h-4v4h4V18z M38,18h-4v4h4V18z M42,4h-2V0h-4v4H20V0h-4v4h-2c-2.2,0-4,1.8-4,4l0,28
	c0,2.2,1.8,4,4,4h28c2.2,0,4-1.8,4-4V8C46,5.8,44.2,4,42,4z M42,36H14V14h28V36z"/>
</svg>
