<?xml version="1.0" encoding="utf-8"?>
<!-- Generator: Adobe Illustrator 16.0.0, SVG Export Plug-In . SVG Version: 6.00 Build 0)  -->
<!DOCTYPE svg PUBLIC "-//W3C//DTD SVG 1.1//EN" "http://www.w3.org/Graphics/SVG/1.1/DTD/svg11.dtd">
<svg version="1.1" id="Layer_1" xmlns="http://www.w3.org/2000/svg" xmlns:xlink="http://www.w3.org/1999/xlink" x="0px" y="0px"
	 width="48px" height="48px" viewBox="0 0 48 48" enable-background="new 0 0 48 48" xml:space="preserve">
<path d="M12.545,35.455c-2.418-2.418-2.418-6.35,0-8.769l5.657-5.656l-2.687-2.687L9.858,24c-3.903,3.903-3.903,10.239,0,14.143
	c3.903,3.902,10.239,3.902,14.142,0l5.657-5.657l-2.688-2.687l-5.657,5.656C18.895,37.873,14.963,37.873,12.545,35.455z
	 M19.757,31.071l11.314-11.314l-2.829-2.829L16.929,28.242L19.757,31.071z M24,9.858l-5.657,5.657l2.687,2.687l5.656-5.657
	c2.419-2.418,6.351-2.418,8.769,0c2.418,2.418,2.418,6.35,0,8.768l-5.656,5.657l2.687,2.688L38.143,24
	c3.902-3.903,3.902-10.239,0-14.142C34.239,5.955,27.903,5.955,24,9.858z"/>
</svg>
