<?xml version="1.0" encoding="utf-8"?>
<!-- Generator: Adobe Illustrator 19.0.0, SVG Export Plug-In . SVG Version: 6.00 Build 0)  -->
<svg version="1.1" id="Layer_1" xmlns="http://www.w3.org/2000/svg" xmlns:xlink="http://www.w3.org/1999/xlink" x="0px" y="0px"
	 viewBox="-27 29 24 24" style="enable-background:new -27 29 24 24;" xml:space="preserve">
<path d="M-7,35h-2.2c0.1-0.3,0.2-0.7,0.2-1c0-1.7-1.3-3-3-3c-1.1,0-2,0.5-2.5,1.3L-15,33l-0.5-0.7C-16,31.5-17,31-18,31
	c-1.7,0-3,1.3-3,3c0,0.3,0.1,0.7,0.2,1H-23c-1.1,0-2,0.9-2,2l0,11c0,1.1,0.9,2,2,2h16c1.1,0,2-0.9,2-2V37C-5,35.9-5.9,35-7,35z
	 M-12,33c0.6,0,1,0.5,1,1s-0.4,1-1,1s-1-0.5-1-1S-12.6,33-12,33z M-18,33c0.5,0,1,0.5,1,1s-0.5,1-1,1s-1-0.5-1-1S-18.5,33-18,33z
	 M-7,48h-16v-2h16V48z M-7,43h-16v-6h5.1l-2.1,2.8l1.6,1.2l2.4-3.2l1-1.4l1,1.4l2.4,3.2l1.6-1.2l-2.1-2.8H-7V43z"/>
</svg>
