<?xml version="1.0" encoding="utf-8"?>
<!-- Generator: Adobe Illustrator 18.0.0, SVG Export Plug-In . SVG Version: 6.00 Build 0)  -->
<!DOCTYPE svg PUBLIC "-//W3C//DTD SVG 1.1//EN" "http://www.w3.org/Graphics/SVG/1.1/DTD/svg11.dtd">
<svg version="1.1" id="Layer_1" xmlns="http://www.w3.org/2000/svg" xmlns:xlink="http://www.w3.org/1999/xlink" x="0px" y="0px"
	 viewBox="218 218 64 64" enable-background="new 218 218 64 64" xml:space="preserve">
<path fill="#607D8B" d="M279,232.9c-1.2,1.2-2.3,2.3-2.3,3.4c-0.1,1.1,1.1,2.2,2.2,3.3c1.7,1.7,3.3,3.3,3.2,5
	c-0.1,1.7-1.8,3.4-3.6,5.2L264.2,264l-4.9-4.9l14.6-14.6l-3.3-3.3l-4.9,4.9l-12.9-12.9l13.2-13.2c1.3-1.3,3.6-1.3,4.9,0l8.1,8.1
	C280.3,229.3,280.3,231.6,279,232.9 M218,268.1l32.9-32.9l12.9,12.9L230.9,281H218V268.1z"/>
</svg>
