<?xml version="1.0" encoding="utf-8"?>
<!-- Generator: Adobe Illustrator 18.0.0, SVG Export Plug-In . SVG Version: 6.00 Build 0)  -->
<!DOCTYPE svg PUBLIC "-//W3C//DTD SVG 1.1//EN" "http://www.w3.org/Graphics/SVG/1.1/DTD/svg11.dtd">
<svg version="1.1" id="Layer_1" xmlns="http://www.w3.org/2000/svg" xmlns:xlink="http://www.w3.org/1999/xlink" x="0px" y="0px"
	 viewBox="0 0 250 250" enable-background="new 0 0 250 250" xml:space="preserve">
<g>
	<path fill="#42A5F5" d="M70.5,132.9c-0.9,0-1.5,0.3-1.9,0.7c-0.6,0.6-0.7,1.3-0.7,2.3c0,1,0.1,1.8,0.7,2.4c0.4,0.4,1,0.7,1.9,0.7
		c0.8,0,1.5-0.3,1.9-0.7c0.6-0.6,0.7-1.3,0.7-2.4c0-1-0.2-1.8-0.7-2.3C71.9,133.2,71.3,132.9,70.5,132.9z M71.4,137.6
		c-0.2,0.2-0.6,0.4-0.9,0.4c-0.4,0-0.7-0.1-0.9-0.4c-0.4-0.4-0.4-1-0.4-1.6c0-0.6,0-1.3,0.4-1.6c0.2-0.2,0.5-0.3,0.9-0.3
		c0.4,0,0.7,0.1,0.9,0.3c0.4,0.4,0.4,1,0.4,1.6C71.8,136.6,71.8,137.3,71.4,137.6z"/>
	<path fill="#42A5F5" d="M124.8,132.9c-0.9,0-1.5,0.3-1.9,0.7c-0.6,0.6-0.7,1.3-0.7,2.3c0,1,0.1,1.8,0.7,2.4c0.4,0.4,1,0.7,1.9,0.7
		c0.8,0,1.5-0.3,1.9-0.7c0.6-0.6,0.7-1.3,0.7-2.4c0-1-0.1-1.8-0.7-2.3C126.3,133.2,125.7,132.9,124.8,132.9z M125.8,137.6
		c-0.2,0.2-0.6,0.4-0.9,0.4c-0.4,0-0.7-0.1-0.9-0.4c-0.4-0.4-0.4-1-0.4-1.6c0-0.6,0-1.3,0.4-1.6c0.2-0.2,0.5-0.3,0.9-0.3
		c0.4,0,0.7,0.1,0.9,0.3c0.4,0.4,0.4,1,0.4,1.6C126.2,136.6,126.1,137.3,125.8,137.6z"/>
	<path fill="#42A5F5" d="M82.5,133.7V133h-1.2v6h1.3v-3.6c0-0.8,0.6-1.3,1.2-1.3c0.4,0,0.7,0.1,0.9,0.4l1-0.9
		c-0.4-0.4-0.9-0.6-1.5-0.6C83.4,132.9,82.8,133.2,82.5,133.7z"/>
	<path fill="#42A5F5" d="M94.3,137.3v-6.7H93v6.8c0,0.9,0.5,1.7,1.7,1.7h0.8v-1H95C94.5,138,94.3,137.7,94.3,137.3z"/>
	<polygon fill="#42A5F5" points="58.2,137.2 56.7,133 55.7,133 54.3,137.2 53.1,133 51.7,133 53.7,139 54.8,139 56.2,134.8 
		57.7,139 58.8,139 60.7,133 59.4,133 	"/>
	<path fill="#42A5F5" d="M106.9,133.6c-0.5-0.5-1-0.7-1.6-0.7c-0.6,0-1.2,0.2-1.5,0.5c-0.6,0.6-0.7,1.6-0.7,2.5
		c0,0.9,0.1,1.9,0.7,2.5c0.3,0.3,0.9,0.5,1.5,0.5c0.7,0,1.2-0.2,1.6-0.7v0.6h1.2v-8.4h-1.3V133.6z M105.6,138c-1.1,0-1.3-0.9-1.3-2
		s0.2-2,1.3-2c1.1,0,1.3,0.9,1.3,2S106.7,138,105.6,138z"/>
	<path fill="#42A5F5" d="M207,132.9c-0.8,0-1.5,0.3-2,0.9c-0.4-0.6-1-0.9-1.8-0.9c-0.6,0-1.2,0.2-1.7,0.7V133h-1.2v6h1.3v-3.6
		c0-0.9,0.6-1.3,1.3-1.3c0.7,0,1.3,0.4,1.3,1.3v3.6h1.3v-3.7c0-0.9,0.6-1.3,1.3-1.3c0.7,0,1.3,0.4,1.3,1.3v3.6h1.3v-3.8
		c0-0.7-0.2-1.2-0.7-1.7C208.2,133.1,207.7,132.9,207,132.9z"/>
	<path fill="#42A5F5" d="M220,132.9c-1.6,0-2.7,1.1-2.7,3.1c0,2.3,1.3,3.1,2.8,3.1c1.1,0,1.7-0.3,2.3-0.9l-0.8-0.7
		c-0.4,0.4-0.8,0.6-1.5,0.6c-1,0-1.6-0.6-1.6-1.7h4.1v-0.5C222.6,134.1,221.7,132.9,220,132.9z M218.6,135.5c0-0.4,0-0.5,0.2-0.8
		c0.2-0.5,0.7-0.8,1.2-0.8c0.6,0,1,0.3,1.2,0.8c0.1,0.3,0.2,0.5,0.2,0.8H218.6z"/>
	<path fill="#42A5F5" d="M190.1,137.2l-1.5-4.2h-1.3l2.2,5.7l-0.3,0.9c-0.2,0.5-0.4,0.6-0.9,0.6h-0.3v1.1h0.5c0.5,0,0.9-0.1,1.3-0.4
		c0.2-0.2,0.3-0.4,0.5-0.7l2.8-7.2h-1.3L190.1,137.2z"/>
	<path fill="#42A5F5" d="M232,133.7V133h-1.2v6h1.3v-3.6c0-0.8,0.6-1.3,1.2-1.3c0.4,0,0.7,0.1,0.9,0.4l0.9-0.9
		c-0.4-0.4-0.9-0.6-1.5-0.6C232.9,132.9,232.3,133.2,232,133.7z"/>
	<path fill="#42A5F5" d="M245.2,135.5l-1-0.1c-0.7-0.1-0.9-0.3-0.9-0.7c0-0.5,0.4-0.8,1.1-0.8c0.6,0,1.2,0.1,1.5,0.4l0.8-0.8
		c-0.6-0.5-1.4-0.7-2.3-0.7c-1.3,0-2.4,0.7-2.4,1.8c0,1.1,0.7,1.6,1.9,1.7l1,0.1c0.6,0,0.8,0.3,0.8,0.7c0,0.6-0.6,0.8-1.4,0.8
		c-0.6,0-1.3-0.1-1.8-0.6l-0.8,0.8c0.7,0.7,1.6,0.9,2.6,0.9c1.5,0,2.6-0.6,2.6-1.9C247.1,136.1,246.4,135.6,245.2,135.5z"/>
	<path fill="#42A5F5" d="M167.6,132.9c-0.8,0-1.5,0.3-1.9,0.7c-0.6,0.6-0.7,1.3-0.7,2.3c0,1,0.1,1.8,0.7,2.4c0.4,0.4,1,0.7,1.9,0.7
		c0.9,0,1.5-0.3,1.9-0.7c0.6-0.6,0.7-1.3,0.7-2.4c0-1-0.1-1.8-0.7-2.3C169,133.2,168.4,132.9,167.6,132.9z M168.5,137.6
		c-0.2,0.2-0.6,0.4-0.9,0.4c-0.4,0-0.7-0.1-0.9-0.4c-0.4-0.4-0.4-1-0.4-1.6c0-0.6,0-1.3,0.4-1.6c0.2-0.2,0.5-0.3,0.9-0.3
		c0.4,0,0.7,0.1,0.9,0.3c0.4,0.4,0.4,1,0.4,1.6C168.9,136.6,168.9,137.3,168.5,137.6z"/>
	<path fill="#42A5F5" d="M154.9,132.9c-0.7,0-1.2,0.2-1.6,0.7V133H152v8.4h1.3v-3c0.5,0.5,1,0.7,1.6,0.7c0.6,0,1.2-0.2,1.5-0.5
		c0.6-0.6,0.7-1.6,0.7-2.5c0-0.9-0.1-1.9-0.7-2.5C156.1,133.1,155.5,132.9,154.9,132.9z M154.6,138c-1.1,0-1.3-0.9-1.3-2
		s0.2-2,1.3-2c1.1,0,1.3,0.9,1.3,2S155.7,138,154.6,138z"/>
	<path fill="#42A5F5" d="M135.8,132.2v0.9h-0.7v0.9h0.7v4.9h1.3V134h1.3v-0.9H137v-0.9c0-0.4,0.2-0.7,0.7-0.7h0.6v-1h-0.8
		C136.3,130.5,135.8,131.3,135.8,132.2z"/>
	<path fill="#42A5F5" d="M179.5,137.3v-6.7h-1.3v6.8c0,0.9,0.5,1.7,1.7,1.7h0.8v-1h-0.6C179.7,138,179.5,137.7,179.5,137.3z"/>
	<path fill="#42A5F5" d="M39.8,105.4c0-0.6-0.2-1.2-0.6-1.6c-0.4-0.4-0.9-0.7-1.5-0.7H7.8c-0.6,0-1.1,0.2-1.5,0.7
		c-0.4,0.4-0.6,1-0.6,1.6v8.9H0v4.8h5.7v18.1c0,0.6,0.2,1.2,0.6,1.6c0.4,0.4,0.9,0.7,1.5,0.7h16.6v4.7h4.8v-4.7h8.5
		c0.6,0,1.1-0.2,1.5-0.7c0.4-0.4,0.6-1,0.6-1.6v-18.1h2.4v-4.8h-2.4V105.4z M35.6,114.3H10v-6.7h25.6V114.3z M10,119.1h14.5v15.8H10
		V119.1z M29.2,119.1h6.3v15.8h-6.3V119.1z"/>
	<path fill="#42A5F5" d="M68.1,124c1.2,0,2.8-0.1,3.7-1.1c0.9-0.9,1-2.7,1-3.9v-10.5c0-1.2-0.1-3-1-3.9c-0.9-0.9-2.5-1.1-3.7-1.1
		H55.2c-1.2,0-2.8,0.2-3.7,1.1c-0.9,1-1,2.7-1,3.9V119c0,1.2,0.1,3,1,3.9c0.9,0.9,2.5,1.1,3.7,1.1H68.1z M55.3,107.7h12.8v11.9H55.3
		V107.7z"/>
	<polygon fill="#42A5F5" points="181.4,115.3 189.5,115.3 189.5,111.3 181.4,111.3 181.4,107.5 195.2,107.5 195.2,103.5 
		176.7,103.5 176.7,124 195.4,124 195.4,119.6 181.4,119.6 	"/>
	<path fill="#42A5F5" d="M221.4,119.2v-2.6l-4.7-1.1v4.3h-10.4v-11.9h10.4v3.8l4.7-0.8v-2.1c0-1.2-0.1-3-1-3.9
		c-0.9-0.9-2.5-1.1-3.7-1.1h-10.5c-1.2,0-2.8,0.2-3.7,1.1c-0.9,1-1,2.7-1,3.9v10.5c0,1.2,0.1,3,1,3.9c0.8,0.9,2.5,1.1,3.7,1.1h10.5
		c1.2,0,2.8-0.1,3.7-1.1C221.3,122.1,221.4,120.4,221.4,119.2z"/>
	<polygon fill="#42A5F5" points="234.6,113.2 246.6,103.5 239.7,103.5 230.4,111.4 230.4,103.5 225.6,103.5 225.6,124 230.4,124 
		230.4,115.6 240.4,124 248,124 	"/>
	<polygon fill="#42A5F5" points="152.7,107.8 160.8,107.8 160.8,124.1 165.5,124.1 165.5,107.8 173.6,107.8 173.6,103.6 
		152.7,103.6 	"/>
	<polygon fill="#42A5F5" points="104,115.3 112.1,115.3 112.1,111.3 104,111.3 104,107.5 117.8,107.5 117.8,103.5 99.3,103.5 
		99.3,124 118,124 118,119.6 104,119.6 	"/>
	<path fill="#42A5F5" d="M95,112.1v-4.4c0-1.1-0.2-2.4-1-3.2c-0.8-0.8-2.1-1-3.3-1H75.4V124H80v-7.7h10.7c1.1,0,2.4-0.2,3.3-1
		C94.7,114.5,95,113.2,95,112.1z M90.4,111c0,0.3,0,0.7-0.3,1c-0.3,0.2-0.9,0.3-1.2,0.3H80v-4.6h8.9c0.3,0,1,0,1.2,0.3
		c0.2,0.2,0.3,0.7,0.3,1V111z"/>
	<path fill="#42A5F5" d="M138.5,114.2c0,0.4,0,0.7,0,1.1c0,0.5,0,0.9,0.1,1.4c-0.1-0.1-0.2-0.2-0.3-0.3c-0.4-0.4-0.7-0.8-1.1-1.1
		l-12.4-11.8h-3.2V124h4.3v-11.1c0-0.5,0-0.9,0-1.4c0-0.2,0-0.5,0-0.8c0,0,0,0,0,0c0.3,0.3,0.5,0.6,0.8,0.9l13,12.4h3.2v-20.5h-4.3
		V114.2z"/>
</g>
</svg>
