<?xml version="1.0" encoding="utf-8"?>
<!-- Generator: Adobe Illustrator 18.0.0, SVG Export Plug-In . SVG Version: 6.00 Build 0)  -->
<!DOCTYPE svg PUBLIC "-//W3C//DTD SVG 1.1//EN" "http://www.w3.org/Graphics/SVG/1.1/DTD/svg11.dtd">
<svg version="1.1" id="Layer_1" xmlns="http://www.w3.org/2000/svg" xmlns:xlink="http://www.w3.org/1999/xlink" x="0px" y="0px"
	 viewBox="0 0 250 250" enable-background="new 0 0 250 250" xml:space="preserve">
<g>
	<path fill="#42A5F5" d="M33.1,177.8v-17.3h-4.1v6.8h-0.1c-0.5-0.7-1.1-1.1-1.8-1.4c-0.7-0.3-1.4-0.4-2.3-0.4
		c-0.8,0-1.6,0.2-2.2,0.5c-0.6,0.4-1.2,0.8-1.6,1.4c-0.4,0.6-0.8,1.2-1,1.9c-0.2,0.7-0.3,1.4-0.3,2.2c0,0.9,0.1,1.7,0.3,2.5
		c0.2,0.8,0.6,1.5,1,2.1c0.5,0.6,1,1.1,1.7,1.4c0.7,0.3,1.5,0.5,2.4,0.5c0.4,0,0.9-0.1,1.3-0.2c0.4-0.1,0.8-0.3,1.2-0.5
		c0.4-0.2,0.7-0.5,1-0.8c0.3-0.3,0.5-0.6,0.6-1h0v2.1H33.1L33.1,177.8z M28.9,171.8c0,0.4-0.1,0.8-0.2,1.2c-0.1,0.4-0.3,0.7-0.5,1
		c-0.2,0.3-0.5,0.5-0.8,0.7c-0.3,0.2-0.6,0.2-1,0.2c-0.8,0-1.4-0.3-1.8-0.9c-0.5-0.6-0.7-1.4-0.7-2.3c0-0.9,0.2-1.6,0.7-2.2
		c0.5-0.5,1.1-0.8,1.8-0.8c0.7,0,1.3,0.3,1.8,0.8C28.7,170,28.9,170.8,28.9,171.8L28.9,171.8z"/>
	<path fill="#42A5F5" d="M47.2,177.8c0-0.2-0.1-0.4-0.1-0.7c0-0.2,0-0.5-0.1-0.7c0-0.2,0-0.5,0-0.7c0-0.2,0-0.4,0-0.5v-4.7
		c0-0.9-0.2-1.7-0.5-2.3c-0.3-0.6-0.7-1.1-1.2-1.5c-0.5-0.4-1.1-0.7-1.8-0.9c-0.7-0.2-1.4-0.3-2.2-0.3c-0.8,0-1.6,0.1-2.3,0.2
		c-0.8,0.1-1.6,0.3-2.5,0.7l0.1,2.8c0.6-0.3,1.2-0.6,1.8-0.7c0.6-0.1,1.3-0.2,2-0.2c1,0,1.7,0.2,2.1,0.5c0.4,0.3,0.7,0.9,0.7,1.6
		c-0.3,0-0.6-0.1-0.9-0.1s-0.6,0-1,0c-0.5,0-1.2,0-1.9,0.1c-0.7,0.1-1.4,0.3-2,0.5c-0.6,0.3-1.2,0.7-1.6,1.2
		c-0.4,0.5-0.7,1.3-0.7,2.2c0,0.7,0.1,1.3,0.4,1.7c0.3,0.5,0.6,0.9,1,1.2c0.4,0.3,0.9,0.5,1.4,0.7c0.5,0.1,1.1,0.2,1.7,0.2
		c0.8,0,1.5-0.2,2.1-0.5c0.6-0.3,1.2-0.9,1.7-1.7h0c0,0.3,0,0.6,0,0.9c0,0.3,0,0.6,0.1,1H47.2L47.2,177.8z M43.1,172.4
		c0,0.3-0.1,0.7-0.2,1c-0.1,0.3-0.3,0.6-0.5,0.9c-0.2,0.3-0.5,0.5-0.8,0.7c-0.3,0.2-0.7,0.3-1,0.3c-0.5,0-0.9-0.1-1.2-0.3
		c-0.3-0.2-0.5-0.6-0.5-1c0-0.5,0.2-0.9,0.6-1.2c0.4-0.3,1.1-0.4,1.9-0.4c0.2,0,0.5,0,0.8,0C42.6,172.4,42.8,172.4,43.1,172.4
		L43.1,172.4z"/>
	<path fill="#42A5F5" d="M59.1,174c0-0.8-0.2-1.4-0.5-1.8c-0.3-0.5-0.7-0.8-1.1-1.1c-0.5-0.3-0.9-0.5-1.5-0.6
		c-0.5-0.1-1-0.3-1.5-0.4c-0.5-0.1-0.8-0.2-1.1-0.4c-0.3-0.2-0.5-0.4-0.5-0.7c0-0.3,0.2-0.5,0.5-0.6c0.4-0.1,0.8-0.2,1.3-0.2
		c0.4,0,0.9,0.1,1.5,0.2c0.6,0.1,1.2,0.3,1.7,0.6l0.3-2.9c-0.6-0.2-1.2-0.4-2-0.5c-0.7-0.1-1.5-0.2-2.1-0.2c-0.7,0-1.4,0.1-2,0.3
		c-0.6,0.2-1.2,0.4-1.6,0.7c-0.5,0.3-0.8,0.7-1.1,1.2c-0.3,0.5-0.4,1.1-0.4,1.7c0,0.7,0.1,1.3,0.4,1.7c0.3,0.4,0.7,0.8,1.1,1
		c0.4,0.3,0.9,0.4,1.4,0.6c0.5,0.1,1,0.3,1.4,0.4c0.4,0.1,0.8,0.3,1.1,0.4c0.3,0.2,0.4,0.4,0.4,0.8c0,0.3-0.1,0.5-0.3,0.7
		c-0.2,0.2-0.7,0.3-1.4,0.3c-0.6,0-1.2-0.1-1.8-0.2c-0.6-0.1-1.3-0.3-2.1-0.6l-0.2,3c0.6,0.2,1.2,0.3,1.9,0.4
		c0.7,0.1,1.5,0.1,2.5,0.1c0.6,0,1.3-0.1,2-0.2c0.7-0.1,1.3-0.3,1.8-0.6c0.5-0.3,1-0.7,1.3-1.2C59,175.5,59.1,174.8,59.1,174
		L59.1,174z"/>
	<polygon fill="#42A5F5" points="79.1,164.7 79.1,161.7 68.3,161.7 68.3,177.8 72.6,177.8 72.6,171.3 78.8,171.3 78.8,168.2 
		72.6,168.2 72.6,164.7 79.1,164.7 	"/>
	<path fill="#42A5F5" d="M92.9,173v-0.8c0-0.9-0.1-1.7-0.3-2.5c-0.2-0.8-0.6-1.5-1-2.1c-0.5-0.6-1.1-1.1-1.9-1.5
		c-0.8-0.4-1.7-0.6-2.8-0.6c-1,0-1.9,0.2-2.7,0.5c-0.8,0.3-1.5,0.7-2,1.3c-0.6,0.6-1,1.2-1.3,2c-0.3,0.8-0.4,1.6-0.4,2.6
		c0,1,0.2,1.9,0.5,2.6c0.4,0.8,0.8,1.4,1.5,2c0.6,0.5,1.4,0.9,2.2,1.2c0.9,0.3,1.8,0.4,2.8,0.4c0.8,0,1.5-0.1,2.3-0.2
		c0.8-0.1,1.5-0.3,2.1-0.6v-2.9c-0.6,0.3-1.2,0.6-1.9,0.7c-0.6,0.1-1.2,0.2-1.8,0.2c-1.1,0-1.9-0.2-2.5-0.5
		c-0.6-0.4-0.9-0.9-1.1-1.8H92.9L92.9,173z M89.2,170.6h-4.6c0.1-0.7,0.3-1.3,0.6-1.8c0.4-0.5,0.9-0.7,1.7-0.7
		c0.8,0,1.4,0.2,1.8,0.7C89,169.3,89.2,169.9,89.2,170.6L89.2,170.6z"/>
	<path fill="#42A5F5" d="M107.9,177.8v-7.5c0-0.6-0.1-1.2-0.3-1.8c-0.2-0.6-0.4-1.1-0.8-1.5c-0.4-0.4-0.8-0.8-1.4-1.1
		c-0.6-0.3-1.3-0.4-2.1-0.4c-1,0-1.9,0.2-2.6,0.6c-0.8,0.4-1.3,1-1.8,1.9h0v-2.2h-3.8v12h4.1v-5.1c0-1.3,0.2-2.3,0.7-2.9
		c0.5-0.6,1.1-0.9,1.9-0.9c0.7,0,1.2,0.3,1.5,0.8c0.3,0.5,0.4,1.3,0.4,2.3v5.8H107.9L107.9,177.8z"/>
	<path fill="#42A5F5" d="M120,174c0-0.8-0.2-1.4-0.5-1.8c-0.3-0.5-0.7-0.8-1.1-1.1c-0.5-0.3-0.9-0.5-1.5-0.6c-0.5-0.1-1-0.3-1.5-0.4
		c-0.5-0.1-0.8-0.2-1.1-0.4c-0.3-0.2-0.5-0.4-0.5-0.7c0-0.3,0.2-0.5,0.5-0.6c0.4-0.1,0.8-0.2,1.3-0.2c0.4,0,0.9,0.1,1.5,0.2
		c0.6,0.1,1.2,0.3,1.7,0.6l0.3-2.9c-0.6-0.2-1.2-0.4-2-0.5c-0.7-0.1-1.5-0.2-2.1-0.2c-0.7,0-1.4,0.1-2,0.3c-0.6,0.2-1.2,0.4-1.6,0.7
		c-0.5,0.3-0.8,0.7-1.1,1.2c-0.3,0.5-0.4,1.1-0.4,1.7c0,0.7,0.1,1.3,0.4,1.7c0.3,0.4,0.7,0.8,1.1,1c0.4,0.3,0.9,0.4,1.4,0.6
		c0.5,0.1,1,0.3,1.4,0.4c0.4,0.1,0.8,0.3,1.1,0.4c0.3,0.2,0.4,0.4,0.4,0.8c0,0.3-0.1,0.5-0.3,0.7c-0.2,0.2-0.7,0.3-1.4,0.3
		c-0.6,0-1.2-0.1-1.8-0.2c-0.6-0.1-1.3-0.3-2.1-0.6l-0.2,3c0.6,0.2,1.2,0.3,1.9,0.4c0.7,0.1,1.5,0.1,2.5,0.1c0.6,0,1.3-0.1,2-0.2
		c0.7-0.1,1.3-0.3,1.8-0.6c0.5-0.3,1-0.7,1.3-1.2C119.8,175.5,120,174.8,120,174L120,174z"/>
	<path fill="#42A5F5" d="M130.5,177.8l-0.1-2.7c-0.2,0-0.5,0.1-0.7,0.1c-0.2,0-0.4,0-0.5,0c-0.6,0-1.1-0.2-1.3-0.5
		c-0.2-0.3-0.4-0.9-0.4-1.6v-4.5h2.9v-2.9h-2.9v-4l-4.1,1.3v2.7h-2.4v2.9h2.4v5.1c0,1.5,0.4,2.6,1.1,3.3c0.7,0.7,1.9,1,3.5,1
		c0.4,0,0.9,0,1.3-0.1C129.6,177.9,130,177.9,130.5,177.8L130.5,177.8z"/>
	<path fill="#42A5F5" d="M144.2,173v-0.8c0-0.9-0.1-1.7-0.3-2.5c-0.2-0.8-0.6-1.5-1-2.1c-0.5-0.6-1.1-1.1-1.9-1.5
		c-0.8-0.4-1.7-0.6-2.8-0.6c-1,0-1.9,0.2-2.7,0.5c-0.8,0.3-1.5,0.7-2,1.3c-0.6,0.6-1,1.2-1.3,2c-0.3,0.8-0.4,1.6-0.4,2.6
		c0,1,0.2,1.9,0.5,2.6c0.4,0.8,0.8,1.4,1.5,2c0.6,0.5,1.4,0.9,2.2,1.2c0.9,0.3,1.8,0.4,2.8,0.4c0.8,0,1.5-0.1,2.3-0.2
		c0.8-0.1,1.5-0.3,2.1-0.6v-2.9c-0.6,0.3-1.2,0.6-1.9,0.7c-0.6,0.1-1.2,0.2-1.8,0.2c-1.1,0-1.9-0.2-2.5-0.5
		c-0.6-0.4-0.9-0.9-1.1-1.8H144.2L144.2,173z M140.4,170.6h-4.6c0.1-0.7,0.3-1.3,0.6-1.8c0.4-0.5,0.9-0.7,1.7-0.7
		c0.8,0,1.4,0.2,1.8,0.7C140.2,169.3,140.4,169.9,140.4,170.6L140.4,170.6z"/>
	<path fill="#42A5F5" d="M155.1,165.6c-0.2,0-0.5-0.1-0.8-0.1c-0.3,0-0.5,0-0.6,0c-0.9,0-1.6,0.2-2.1,0.6c-0.6,0.4-1,1-1.4,1.9h0
		v-2.2h-3.8v12h4.1v-5.2c0-0.5,0.1-1,0.2-1.4c0.1-0.4,0.3-0.8,0.5-1.2c0.2-0.3,0.6-0.6,0.9-0.8c0.4-0.2,0.8-0.3,1.3-0.3
		c0.3,0,0.6,0,0.8,0c0.3,0,0.5,0.1,0.6,0.1L155.1,165.6L155.1,165.6z"/>
	<path fill="#42A5F5" d="M170,171.5c0-0.7-0.1-1.5-0.3-2.2c-0.2-0.7-0.6-1.4-1-1.9c-0.4-0.6-1-1-1.6-1.4c-0.6-0.4-1.4-0.5-2.2-0.5
		c-1,0-1.8,0.2-2.4,0.5c-0.6,0.3-1.2,0.8-1.7,1.4h-0.1v-6.8h-4.1v17.3h3.8v-2.1h0c0.2,0.4,0.4,0.7,0.7,1c0.3,0.3,0.6,0.5,1,0.7
		c0.4,0.2,0.8,0.4,1.2,0.5c0.4,0.1,0.8,0.2,1.2,0.2c0.9,0,1.7-0.2,2.4-0.5c0.7-0.4,1.3-0.8,1.7-1.4c0.5-0.6,0.8-1.3,1-2.1
		C169.8,173.2,170,172.4,170,171.5L170,171.5z M165.7,171.6c0,0.9-0.2,1.7-0.7,2.3c-0.4,0.6-1.1,0.9-1.9,0.9c-0.4,0-0.7-0.1-1-0.2
		c-0.3-0.2-0.6-0.4-0.8-0.6c-0.2-0.3-0.4-0.6-0.5-1c-0.1-0.4-0.2-0.8-0.2-1.2c0-0.9,0.2-1.7,0.7-2.3c0.5-0.6,1.1-0.9,1.8-0.9
		c0.8,0,1.4,0.3,1.8,0.9C165.4,170.1,165.7,170.8,165.7,171.6L165.7,171.6z"/>
	<path fill="#42A5F5" d="M180.7,165.6c-0.2,0-0.5-0.1-0.8-0.1c-0.3,0-0.5,0-0.6,0c-0.9,0-1.6,0.2-2.1,0.6c-0.6,0.4-1,1-1.4,1.9h0
		v-2.2H172v12h4.1v-5.2c0-0.5,0.1-1,0.2-1.4c0.1-0.4,0.3-0.8,0.5-1.2c0.2-0.3,0.6-0.6,0.9-0.8c0.4-0.2,0.8-0.3,1.3-0.3
		c0.3,0,0.6,0,0.8,0c0.3,0,0.5,0.1,0.6,0.1L180.7,165.6L180.7,165.6z"/>
	<path fill="#42A5F5" d="M193.7,173v-0.8c0-0.9-0.1-1.7-0.3-2.5c-0.2-0.8-0.6-1.5-1-2.1c-0.5-0.6-1.1-1.1-1.9-1.5
		c-0.8-0.4-1.7-0.6-2.8-0.6c-1,0-1.9,0.2-2.7,0.5c-0.8,0.3-1.5,0.7-2,1.3c-0.6,0.6-1,1.2-1.3,2c-0.3,0.8-0.4,1.6-0.4,2.6
		c0,1,0.2,1.9,0.5,2.6c0.4,0.8,0.8,1.4,1.5,2c0.6,0.5,1.4,0.9,2.2,1.2c0.9,0.3,1.8,0.4,2.8,0.4c0.8,0,1.5-0.1,2.3-0.2
		c0.8-0.1,1.5-0.3,2.1-0.6v-2.9c-0.6,0.3-1.2,0.6-1.9,0.7c-0.6,0.1-1.2,0.2-1.8,0.2c-1.1,0-1.9-0.2-2.5-0.5
		c-0.6-0.4-0.9-0.9-1.1-1.8H193.7L193.7,173z M190,170.6h-4.6c0.1-0.7,0.3-1.3,0.6-1.8c0.4-0.5,0.9-0.7,1.7-0.7
		c0.8,0,1.4,0.2,1.8,0.7C189.8,169.3,190,169.9,190,170.6L190,170.6z"/>
	<path fill="#42A5F5" d="M204.4,177.8l-0.1-2.7c-0.2,0-0.5,0.1-0.7,0.1c-0.2,0-0.4,0-0.5,0c-0.6,0-1.1-0.2-1.3-0.5
		c-0.2-0.3-0.4-0.9-0.4-1.6v-4.5h2.9v-2.9h-2.9v-4l-4.1,1.3v2.7h-2.4v2.9h2.4v5.1c0,1.5,0.4,2.6,1.1,3.3c0.7,0.7,1.9,1,3.5,1
		c0.4,0,0.9,0,1.3-0.1C203.4,177.9,203.9,177.9,204.4,177.8L204.4,177.8z"/>
	<path fill="#42A5F5" d="M214.6,177.8l-0.1-2.7c-0.2,0-0.5,0.1-0.7,0.1c-0.2,0-0.4,0-0.5,0c-0.6,0-1.1-0.2-1.3-0.5
		c-0.2-0.3-0.4-0.9-0.4-1.6v-4.5h2.9v-2.9h-2.9v-4l-4.1,1.3v2.7H205v2.9h2.4v5.1c0,1.5,0.4,2.6,1.1,3.3c0.7,0.7,1.9,1,3.5,1
		c0.4,0,0.9,0,1.3-0.1C213.7,177.9,214.1,177.9,214.6,177.8L214.6,177.8z"/>
	<path fill="#42A5F5" d="M8.4,114.7c0.4-4.1,0.7-7.4,0.9-10.1c0.3-4.7,0.7-11.2,1-19.5c0.3-5.7,0.4-9.8,0.4-12.1v-2.8
		c3.6,0,6.1,0.1,7.5,0.1c0.9,0,3.3,0,7-0.1l-1.5,24.4L23,114.7l-7.1-0.1C14.9,114.6,12.4,114.6,8.4,114.7L8.4,114.7z M24.8,91.2
		l7.3-9.9L38,73l1.8-2.8c4,0,6.8,0.1,8.2,0.1c0.4,0,3,0,7.8-0.1L42,87.5L39.5,91l2.4,3.9l13.6,19.8l-8-0.1c-1.7,0-4.7,0-8.8,0.1
		C35.8,109.4,31.2,101.6,24.8,91.2L24.8,91.2z"/>
	<path fill="#42A5F5" d="M59.5,114.7c0.4-3.8,0.7-7.3,1-10.3c0.2-3.1,0.5-6.6,0.6-10.7c0.2-4,0.3-8.3,0.4-12.8
		c0.1-4.5,0.1-8.1,0.1-10.7c2.7,0.1,4.9,0.1,6.6,0.1c1.7,0,3.9-0.1,6.4-0.1c2.5-0.1,4.9-0.2,7.3-0.2c2.8,0,5.3,0.1,7.4,0.3
		c1.6,0.1,3.1,0.5,4.5,0.9c1.3,0.5,2.5,1.1,3.4,1.7c0.9,0.7,1.7,1.5,2.3,2.3c0.6,0.8,1.1,1.8,1.4,3c0.3,1.1,0.5,2.4,0.5,3.7
		c0,1.5-0.2,2.8-0.6,4.1c-0.4,1.3-0.9,2.5-1.7,3.6c-0.8,1.1-1.8,2.1-3,2.9c-1.2,0.8-2.9,1.6-5.1,2.5l1.7,4.1c0.5,1.2,1,2.3,1.5,3.5
		l4.4,9.5c0.2,0.4,0.5,1.2,1,2.4c-3.6,0-6-0.1-7.2-0.1c-1.6,0-4.1,0-7.7,0.1c-0.4-1.1-1-3.2-1.9-6.3c-0.4-1.3-0.7-2.3-0.9-3
		c-0.5-1.5-1.3-3.7-2.3-6.5l-3.4-9.2c1.2,0.2,2.3,0.3,3.5,0.3c1.6,0,3-0.2,4.3-0.7c1.3-0.5,2.3-1.2,2.9-2.2c0.7-1,1-2,1-3.2
		c0-0.9-0.2-1.8-0.7-2.5c-0.5-0.7-1.3-1.2-2.4-1.6c-1.1-0.3-2.7-0.5-5-0.5c-0.8,0-1.5,0-2.4,0c-0.8,0-1.8,0.1-2.8,0.1
		c-0.3,4.5-0.5,9.9-0.7,16.3c-0.2,6.4-0.4,12.7-0.4,18.9c-3.6,0-6-0.1-7.1-0.1C65,114.6,62.8,114.6,59.5,114.7L59.5,114.7z"/>
	<path fill="#42A5F5" d="M100.5,114.7l2.7-4.7l16.9-31.8l1.8-3.6c0.5-1,1.2-2.5,2.2-4.5c3.8,0,6.6,0.1,8.4,0.1c3.1,0,5.9,0,8.5-0.1
		l4.8,13.6l9.7,26.1l1.9,4.8c-3.8,0-6-0.1-6.8-0.1c-1.8,0-4.5,0-8.1,0.1c-1-3.6-2.3-7.8-4.1-12.6h-16.4c-1.9,3.8-3.9,8-5.9,12.6
		c-4,0-6.5-0.1-7.4-0.1C106.8,114.6,104.2,114.6,100.5,114.7L100.5,114.7z M125.8,92.5h10.1c-2.5-7.7-3.9-11.9-4.1-12.7
		c-1.4,3.2-2.7,5.8-3.7,7.9L125.8,92.5L125.8,92.5z"/>
	<path fill="#42A5F5" d="M160.8,114.7c0.5-4.4,0.8-8,0.9-10.6c0.3-4,0.5-9.4,0.7-16.3c0.2-6.9,0.4-11.6,0.4-14v-3.6
		c6.5,0,12.6,0.1,18.3,0.1c5.7,0,11.1,0,16.4-0.1c-0.3,5-0.5,8.3-0.5,9.8l-2.8-0.1l-2.3,0l-2.3,0h-6.4c-0.7,0-2.9,0-6.5,0.1
		l-0.3,7.6l4.7,0.1h5.3c1.5,0,3.9,0,7-0.1c-0.2,4.1-0.4,7.3-0.4,9.7c-3.5-0.1-6.1-0.2-7.8-0.2c-2.9,0-6,0.1-9.4,0.2l-0.3,11.7l0,4.4
		v1.4l-7-0.1C167.9,114.6,165.4,114.6,160.8,114.7L160.8,114.7z"/>
	<path fill="#42A5F5" d="M211.6,114.7c1.1-10.6,1.7-22.2,2-34.9l-13.9,0.4l0.2-3.6c0.1-1.9,0.2-4.1,0.2-6.4c6.2,0,13.4,0.1,21.6,0.1
		l8.1,0h7.8l4.2,0l-0.2,3.2c-0.1,1.7-0.1,3.1-0.2,4.2c0,1.1,0,2,0,2.5c-4.7-0.2-8.5-0.4-11.5-0.4h-2.3c-0.3,3.8-0.6,7.4-0.7,10.6
		c-0.2,4.7-0.4,9.2-0.6,13.6c-0.1,4.4-0.2,7.9-0.2,10.7c-3.6,0-5.9-0.1-6.9-0.1C218.2,114.6,215.7,114.6,211.6,114.7L211.6,114.7z"
		/>
	<path fill-rule="evenodd" clip-rule="evenodd" fill="#42A5F5" d="M248,133.5c-0.4-5.9-4.4-9.4-11.3-9.9l-0.1,0L2,124.5l-2,0v2
		c0,3.8,0,6.8,0,10.2c0,4.1,0,8.6,0,15.4v2l2,0c4-0.1,10.8,0.1,15.8,0.2l3.7,0.1l0.6-1c0.8-1.5-0.3-2.7-1.2-3.6
		c-0.2-0.3-0.6-0.7-1-1.1c3.6,0.1,7.3,0,10.9,0c3.9,0,8-0.1,12,0c0.4,0,0.7,0,0.9,0c-0.4,0.5-0.9,1.2-1.4,1.7l-3.2,3.8l4.2,0
		c12.6,0,25.1,0.1,37.5,0.1c23.4,0.1,47.5,0.2,71.2,0l7.8-0.1l-6.9-3.6c-0.9-0.5-1.1-1.1-1.1-1.1c0,0,0.3-0.2,0.8-0.1l22.7,0
		c0.5,0,0.8,0,1,0c-0.2,0.4-0.5,0.9-1.2,1.7l-2.6,3.2l4.1,0c5.7,0,11.4,0,17.1,0c5.7,0,11.5,0,17.2,0l0-2l0.1,2
		c3.5-0.1,7.1-0.1,10.6,0c2.9,0,5.8,0.1,8.8,0.1l-0.3,15.4c0.2,6.3,6,6.9,8.5,7.2l0.1-1.2l0.2,1.2c3.1-0.6,6.5-1.7,7.7-6.1l0.1-0.2
		l1.1-36.8l0-0.1L248,133.5z M234.8,152.3c2.9,0.2,5.4-0.2,7.7-1.2c-0.3,6.8-0.6,12.3-0.9,19.1c-1,1.8-5.6,2.4-6.7-0.4
		C234.8,163.5,234.8,158.5,234.8,152.3z M219.4,149c0-1.1,0-2.2,0-3.3c7.1-4.1,14.2-9.3,21.3-15.1c0.5-0.4,0.8-0.4,1.4-0.3
		c1,0.5,0.7,11.9,0.9,18.7C234.9,149,227.7,149,219.4,149z M147,149c-3.8,0-7.7,0-11.5,0c0-1,0-1.5,0-2.6c4.3-4.2,8.7-8.5,12.9-12.6
		l11.1,10.8l-8.2,0.2C148.7,145.4,147.1,146.4,147,149z M15.5,144.2L4,131.8l0-2.6c0-0.2,0-0.4,0-0.6l24.2,0l0,5.1l-7.4,10.5
		L15.5,144.2z M4,136.6c0-1.1,0-2.2,0-3.3l11.3,12.2l-0.5,3.5L4,149C4,143.8,4,140.1,4,136.6z M29.5,134.4l10,10.1l-17.3,0.1
		L29.5,134.4z M29.4,132.3l0-3.7l20.8,0l0,8l-6.5,8l-2.3,0.1L29.4,132.3z M45.5,144.9c1.7-2.2,2.9-4.1,4.6-6.4l0,10.5
		c-1.7,0-0.7,0-1.7,0C48.8,146.9,47.7,145.3,45.5,144.9z M51.9,137.5l0-8.9l8.5,0l0,20.4l-8.5,0L51.9,137.5z M98.3,145.1l-12.5-12.4
		l0-4l24.6,0l0.3,3.8L98.3,145.1z M110.4,149l-11,0l0-3.2l11-11.8L110.4,149z M97.7,145.9l0,3.1L74,149l0-2.1l11.4-13.1L97.7,145.9z
		 M84,132.7l-6.3,6.9l-4.6,5.7l-11-10.7l0-6l21.9,0L84,132.7z M62.1,136.3l10.4,10.4l0,2.4l-10.4,0L62.1,136.3z M119.6,149l-7.7,0
		l0-20.4l7.7,0L119.6,149z M204.3,128.8l34.9-0.2c1.1,0,1.2,0.4,0.4,1.3l-21.3,14.9c-4.2-4-9.8-9.2-14-13.2
		C204.3,130.9,204.4,130.3,204.3,128.8z M120.9,132.7l0-4.1l26.7-0.1l0,4l-12.9,13.1L120.9,132.7z M134.2,149l-13.3,0l0-14.2
		l13.2,11.9L134.2,149z M149.1,131.9l-0.1-3.3l27.9,0l0,3.2L166,144.8l-4,0L149.1,131.9z M177.9,133.7c3.6,4.1,8.3,9.1,13.1,13.7
		c0,0.2,0,1.1,0,1.6c-3.3,0-6.4,0-9.8,0c-0.1-2.3-1-4.3-3.5-4.6l-9.2,0.1L177.9,133.7z M190.9,145.3c-1.8-2-8.5-9.2-12.9-13.6
		c0-1.3,0-1.9,0-3.1c8.1,0,17,0.1,25.1,0.1c0,1,0,2.4,0,3.3L190.9,145.3z M204.3,133.4c4.3,3.9,8.7,8.3,13.1,12.2
		c0.1,1.3,0,2.1,0,3.4c-8.1,0.1-17.3-0.1-25.4,0c0-1.1,0-1.8,0-3L204.3,133.4z"/>
</g>
</svg>
