<?xml version="1.0" encoding="utf-8"?>
<!-- Generator: Adobe Illustrator 18.0.0, SVG Export Plug-In . SVG Version: 6.00 Build 0)  -->
<!DOCTYPE svg PUBLIC "-//W3C//DTD SVG 1.1//EN" "http://www.w3.org/Graphics/SVG/1.1/DTD/svg11.dtd">
<svg version="1.1" id="Layer_1" xmlns="http://www.w3.org/2000/svg" xmlns:xlink="http://www.w3.org/1999/xlink" x="0px" y="0px"
	 viewBox="0 0 64 64" enable-background="new 0 0 64 64" xml:space="preserve">
<g>
	<path fill="#ECEFF1" d="M42.3,41.5c-0.6-0.3-1.4-0.4-1.9-0.8c-2.3-1.5-4.7-0.8-5.6,1.8c-0.5,1.5-1.8,2.4-3.3,2.4
		c-1.5,0-2.7-0.9-3.3-2.4c-1-2.6-3.3-3.4-5.6-1.8c-1.3,0.9-2.8,0.9-4,0c-1.2-0.9-1.7-2.3-1.2-3.8c0.8-2.6-0.7-4.7-3.5-4.8
		c-1.5,0-2.7-0.9-3.2-2.3c-0.5-1.4-0.1-2.9,1.2-3.8c1.5-1.1,2.2-3,1.3-4.6c-0.3-0.6-0.8-1-1.4-1.5c-1.1-0.9-1.5-2-1.2-3.4
		c0.3-1.3,1.1-2.2,2.4-2.6c0.4-0.1,0.9-0.1,1.3-0.2c2.4-0.2,3.9-2.3,3.1-4.6C17.1,8.1,17.1,7,17.8,6c1.1-1.7,3.2-2,4.9-0.8
		c1.6,1.1,3.4,1,4.6-0.3C27.7,4.5,28,4,28.2,3.5C28.8,1.8,30,1,31.6,1c1.6,0,2.7,0.9,3.3,2.5c0.8,2.4,3.4,3.2,5.5,1.7
		c1.4-1,2.9-1,4.2,0c1.2,0.9,1.7,2.3,1.2,4c-0.7,2.3,0.7,4.4,3.1,4.6c0.4,0,0.9,0,1.3,0.1c2.5,0.6,3.4,3.8,1.6,5.7
		c-0.2,0.2-0.4,0.4-0.6,0.5c-2,1.5-2,4.2,0,5.7c1.6,1.2,2,2.9,1.1,4.6c-0.6,1.1-1.6,1.8-2.9,1.7c-2.6-0.1-4.4,2.3-3.5,4.8
		c0.8,2.3-0.9,4.5-3.3,4.5C42.4,41.4,42.4,41.5,42.3,41.5z M17.3,22.8c-0.1,7.8,6.3,14.3,14.1,14.3c7.8,0.1,14.2-6.3,14.3-14.1
		c0.1-7.8-6.2-14.3-13.9-14.4C23.8,8.6,17.4,14.8,17.3,22.8z"/>
	<path fill="#ECEFF1" d="M9,57.8c2.3-5.4,4.6-10.6,7-16c0.2,0.1,0.3,0.3,0.4,0.4c2.1,2.1,5.2,2.3,7.6,0.6c0.9-0.6,1.4-0.5,1.8,0.6
		c0.4,1.2,1.2,2.2,2.3,3c-2.4,5.5-4.8,11-7.2,16.6c-0.1-0.2-0.3-0.3-0.3-0.5c-1.1-1.9-2.3-3.7-3.4-5.6c-0.3-0.5-0.6-0.6-1.1-0.5
		c-2.1,0.5-4.2,0.9-6.3,1.3C9.5,57.8,9.3,57.8,9,57.8z"/>
	<path fill="#ECEFF1" d="M47,41.8c2.3,5.3,4.6,10.6,7,16c-0.9-0.2-1.8-0.3-2.6-0.5c-1.5-0.3-3.1-0.6-4.6-1c-0.4-0.1-0.5,0-0.7,0.3
		c-1.1,1.9-2.3,3.8-3.4,5.6c-0.1,0.2-0.2,0.4-0.4,0.6c-2.4-5.6-4.8-11-7.3-16.6c1.2-0.8,2-2,2.4-3.4c0.2-0.6,0.9-0.7,1.5-0.3
		c2.4,1.7,5.4,1.6,7.5-0.4C46.6,42.2,46.8,42,47,41.8z"/>
	<path fill="#ECEFF1" d="M19.9,22.9c0-6.3,5.2-11.6,11.5-11.6c6.5,0,11.7,5.1,11.7,11.5c0,6.4-5.1,11.7-11.6,11.7
		C25.1,34.6,19.9,29.4,19.9,22.9z"/>
</g>
</svg>
