<?xml version="1.0" encoding="utf-8"?>
<!-- Generator: Adobe Illustrator 18.0.0, SVG Export Plug-In . SVG Version: 6.00 Build 0)  -->
<!DOCTYPE svg PUBLIC "-//W3C//DTD SVG 1.1//EN" "http://www.w3.org/Graphics/SVG/1.1/DTD/svg11.dtd">
<svg version="1.1" id="Layer_1" xmlns="http://www.w3.org/2000/svg" xmlns:xlink="http://www.w3.org/1999/xlink" x="0px" y="0px"
	 viewBox="124 88.4 514 449" enable-background="new 124 88.4 514 449" xml:space="preserve">
<g>
	<path fill="#607D8B" d="M125,430.7c2-9.4,4.2-18.7,6.1-28.1c4.4-22.3,8.7-44.7,13-67.1c1.2-6.3,3.9-7.7,9.9-5.3
		c30.7,12,61.4,23.9,92,36.1c2.6,1,5.7,3.5,6.4,5.9c1.1,3.9-2.9,5.4-5.8,6.9c-11.5,6-23,12-35.4,18.4c37.6,55.9,89,88.3,155.7,95.2
		c48.7,5,94-6.3,135-33.2c41.1-26.8,69-63.9,84.8-111.9c-7.4,61.2-52.2,139.8-138.8,173.5c-52.3,20.3-105.3,21-158.1,1.7
		c-52.9-19.3-92.3-54.6-120.1-103.7c-11.5,6-22.9,11.5-33.9,17.6c-4.5,2.5-7.8,1.9-10.8-2C125,433.4,125,432.1,125,430.7z"/>
	<path fill="#607D8B" d="M637,194.7c-2.1,9.5-4.3,19-6.1,28.6c-4.4,22.3-8.7,44.7-13,67.1c-1.1,5.4-3.9,7.1-8.9,5.1
		c-31.6-12.3-63.2-24.6-94.8-37.1c-2-0.8-4.6-3.4-4.5-5.1c0-2.1,2.1-4.9,4.1-6c12-6.5,24.1-12.7,37.1-19.4
		c-37.6-55.9-89-88.4-155.7-95.2c-48.7-5-94,6.3-135,33.1c-41,26.8-69.1,63.9-84.8,112c7.3-60.8,52-139.8,139.2-173.7
		c34.1-13.3,69.5-17.8,105.9-13.7c36.2,4.1,69.5,16.3,99.7,36.7c30.4,20.5,54.2,47,72.1,79.3c11.5-6,22.6-11.5,33.6-17.5
		c4.5-2.5,8-2.6,11.2,1.8C637,192.1,637,193.4,637,194.7z"/>
	<path fill="#607D8B" d="M396.8,192.6c9.8,1.5,19.3,2.4,28.5,4.4c7.1,1.6,14,4.3,20.7,7.1c5.1,2.1,6.1,5.3,4.2,10.6
		c-2.6,7.2-5.2,14.4-7.9,21.5c-2.2,5.8-5.5,7.2-10.9,4.3c-13.6-7.3-28.2-10.2-43.4-9.5c-7.1,0.3-14.7,1.8-21.2,4.8
		c-17.1,8-19.1,29.4-3.5,40.2c8.4,5.8,18.1,9.9,27.6,13.7c15.3,6.1,30.7,11.9,44.2,21.8c35.5,25.9,33.4,78.4-2.3,103.3
		c-9.6,6.7-20,11.3-31.3,13.7c-3.9,0.8-5.1,2.5-4.9,6.3c0.3,4.6,0.2,9.3,0.1,14c-0.1,5.2-2.5,7.6-7.7,7.7c-5.3,0.1-10.7,0.1-16,0
		c-5.4-0.1-7.7-2.5-7.8-8.1c-0.1-5.1,0-10.3,0-15.4c-9.9-1.5-19.6-2.2-28.9-4.6c-10.1-2.6-19.9-6.4-29.5-10.4
		c-5.7-2.4-6.5-5.4-4.5-11.3c2.5-7.4,5-14.8,7.7-22.1c2-5.5,5.4-6.8,10.5-3.9c18.5,10.7,38.4,15,59.5,13.1c5.9-0.5,11.9-2,17.3-4.4
		c20.2-9.1,22.9-34.9,4.7-47.4c-8.2-5.7-17.8-9.6-27.2-13.3c-14-5.4-28-10.7-40.4-19.4c-20.7-14.7-31.6-34-27.2-60
		c4-23.5,18.9-38.2,40-47.4c4.7-2.1,9.7-3.5,14.6-4.9c2.5-0.7,3.5-1.9,3.4-4.5c-0.2-5.2-0.1-10.3,0-15.5c0.1-5.5,2.5-7.9,8-8
		c5.2-0.1,10.3-0.1,15.5,0c5.7,0.1,8,2.5,8.1,8.3C396.8,182.4,396.8,187.6,396.8,192.6z"/>
</g>
</svg>
