<?xml version="1.0" encoding="utf-8"?>
<!-- Generator: Adobe Illustrator 18.0.0, SVG Export Plug-In . SVG Version: 6.00 Build 0)  -->
<!DOCTYPE svg PUBLIC "-//W3C//DTD SVG 1.1//EN" "http://www.w3.org/Graphics/SVG/1.1/DTD/svg11.dtd">
<svg version="1.1" id="Layer_1" xmlns="http://www.w3.org/2000/svg" xmlns:xlink="http://www.w3.org/1999/xlink" x="0px" y="0px"
	 viewBox="0 0 64 64" enable-background="new 0 0 64 64" xml:space="preserve">
<g>
	<g>
		<path fill="#BAD6F1" d="M36.9,37.7c-0.3,0-0.6,0.1-0.8,0.2c-0.3,0.1-0.5,0.4-0.8,0.6v-4.1h-1.8v12.6h1.8v-0.7
			c0.2,0.3,0.5,0.5,0.8,0.6c0.3,0.1,0.6,0.2,1,0.2c0.5,0,1-0.2,1.2-0.5c0.3-0.4,0.4-0.9,0.4-1.5V40c0-0.8-0.1-1.3-0.5-1.7
			C37.9,37.9,37.4,37.7,36.9,37.7z M36.8,44.9c0,0.3-0.1,0.5-0.2,0.6c-0.1,0.1-0.3,0.2-0.5,0.2c-0.2,0-0.3,0-0.4-0.1
			c-0.1-0.1-0.3-0.2-0.4-0.3v-5.8c0.1-0.1,0.3-0.2,0.4-0.3c0.1-0.1,0.3-0.1,0.4-0.1c0.2,0,0.4,0.1,0.6,0.2c0.1,0.2,0.2,0.4,0.2,0.7
			V44.9z"/>
		<polygon fill="#BAD6F1" points="19.6,36.3 21.8,36.3 21.8,47.1 23.8,47.1 23.8,36.3 26,36.3 26,34.5 19.6,34.5 		"/>
		<path fill="#BAD6F1" d="M31.7,25c0.3,0,0.5-0.1,0.7-0.2c0.2-0.2,0.2-0.4,0.2-0.6v-5.6c0-0.2-0.1-0.4-0.3-0.5
			c-0.2-0.1-0.4-0.2-0.7-0.2c-0.3,0-0.5,0.1-0.6,0.2c-0.2,0.1-0.2,0.3-0.2,0.5v5.6c0,0.3,0.1,0.5,0.2,0.7C31.3,24.9,31.5,25,31.7,25
			z"/>
		<path fill="#BAD6F1" d="M30.2,44.8c-0.2,0.2-0.4,0.4-0.6,0.5c-0.2,0.1-0.4,0.2-0.5,0.2c-0.2,0-0.3,0-0.4-0.1
			c-0.1-0.1-0.1-0.3-0.1-0.5v-7.1h-1.8v7.8c0,0.6,0.1,1,0.3,1.2c0.2,0.3,0.5,0.4,1,0.4c0.3,0,0.7-0.1,1.1-0.3
			c0.4-0.2,0.7-0.5,1.1-0.9v1H32v-9.3h-1.8V44.8z"/>
		<path fill="#BAD6F1" d="M42.4,37.6c-0.8,0-1.5,0.3-2,0.8c-0.5,0.5-0.8,1.2-0.8,2v4.2c0,0.9,0.2,1.6,0.7,2.1
			c0.5,0.5,1.1,0.8,1.9,0.8c0.9,0,1.6-0.2,2.1-0.7c0.5-0.5,0.7-1.2,0.7-2.2V44h-1.9v0.4c0,0.5-0.1,0.9-0.2,1.1
			c-0.1,0.2-0.3,0.2-0.6,0.2c-0.3,0-0.5-0.1-0.6-0.3c-0.1-0.2-0.2-0.5-0.2-1v-1.8H45v-2.4c0-0.9-0.2-1.6-0.7-2
			C43.9,37.8,43.2,37.6,42.4,37.6z M43.1,41.2h-1.6v-0.9c0-0.4,0.1-0.7,0.2-0.8c0.1-0.2,0.3-0.3,0.6-0.3c0.3,0,0.5,0.1,0.6,0.3
			c0.1,0.2,0.2,0.4,0.2,0.8V41.2z"/>
		<path fill="#BAD6F1" d="M32,0C14.3,0,0,14.3,0,32c0,17.7,14.3,32,32,32s32-14.3,32-32C64,14.3,49.7,0,32,0z M36.4,16.3h2.1v7.9
			c0,0.2,0,0.4,0.1,0.5c0.1,0.1,0.2,0.2,0.4,0.2c0.1,0,0.3-0.1,0.6-0.2c0.2-0.1,0.4-0.3,0.6-0.6v-7.8h2.1v10.3h-2.1v-1.1
			c-0.4,0.4-0.8,0.7-1.2,1c-0.4,0.2-0.8,0.3-1.2,0.3c-0.5,0-0.8-0.2-1.1-0.5c-0.2-0.3-0.4-0.8-0.4-1.4V16.3z M28.8,18.6
			c0-0.8,0.3-1.4,0.8-1.9c0.6-0.5,1.3-0.7,2.2-0.7c0.9,0,1.6,0.3,2.1,0.7c0.5,0.5,0.8,1.1,0.8,1.9V24c0,0.9-0.3,1.6-0.8,2.1
			c-0.5,0.5-1.3,0.7-2.2,0.7c-0.9,0-1.6-0.3-2.2-0.8c-0.5-0.5-0.8-1.2-0.8-2.1V18.6z M23.2,12.6l1.5,5.6h0.1l1.4-5.6h2.4l-2.7,8.1
			v5.8h-2.3V21l-2.8-8.4H23.2z M46.2,49.9C44.7,51.4,32,51.4,32,51.4s-12.7,0-14.2-1.5c-1.5-1.5-1.5-8.9-1.5-9c0,0,0-7.5,1.5-9
			c1.5-1.5,14.2-1.5,14.2-1.5s12.7,0,14.2,1.5c1.5,1.5,1.5,8.9,1.5,9C47.7,40.9,47.7,48.4,46.2,49.9z"/>
	</g>
</g>
</svg>
