<?xml version="1.0" encoding="utf-8"?>
<!-- Generator: Adobe Illustrator 18.0.0, SVG Export Plug-In . SVG Version: 6.00 Build 0)  -->
<!DOCTYPE svg PUBLIC "-//W3C//DTD SVG 1.1//EN" "http://www.w3.org/Graphics/SVG/1.1/DTD/svg11.dtd">
<svg version="1.1" id="Layer_1" xmlns="http://www.w3.org/2000/svg" xmlns:xlink="http://www.w3.org/1999/xlink" x="0px" y="0px"
	 viewBox="218 218 64 64" enable-background="new 218 218 64 64" xml:space="preserve">
<path fill="#1E88E5" d="M250.3,226.7V218l-11.6,11.6l11.6,11.6v-8.7c9.6,0,17.5,7.8,17.5,17.5c0,2.9-0.7,5.7-2,8.1l4.2,4.2
	c2.3-3.6,3.6-7.8,3.6-12.4C273.5,237.1,263.1,226.7,250.3,226.7z M250.3,267.5c-9.6,0-17.5-7.8-17.5-17.5c0-2.9,0.7-5.7,2-8.1
	l-4.2-4.2c-2.3,3.6-3.6,7.8-3.6,12.4c0,12.9,10.4,23.3,23.3,23.3v8.7l11.6-11.6l-11.6-11.6V267.5z"/>
</svg>
