<?xml version="1.0" encoding="utf-8"?>
<!-- Generator: Adobe Illustrator 18.0.0, SVG Export Plug-In . SVG Version: 6.00 Build 0)  -->
<!DOCTYPE svg PUBLIC "-//W3C//DTD SVG 1.1//EN" "http://www.w3.org/Graphics/SVG/1.1/DTD/svg11.dtd">
<svg version="1.1" id="Layer_1" xmlns="http://www.w3.org/2000/svg" xmlns:xlink="http://www.w3.org/1999/xlink" x="0px" y="0px"
	 viewBox="0 0 64 64" enable-background="new 0 0 64 64" xml:space="preserve">
<path fill="#ECEFF1" d="M12.9,27.7C18,37.8,26.2,46,36.3,51.1l7.8-7.8c1-1,2.4-1.3,3.6-0.9c4,1.3,8.3,2,12.7,2c2,0,3.6,1.6,3.6,3.6
	v12.4c0,2-1.6,3.6-3.6,3.6C27.1,64,0,36.9,0,3.6C0,1.6,1.6,0,3.6,0H16c2,0,3.6,1.6,3.6,3.6c0,4.4,0.7,8.7,2,12.7
	c0.4,1.2,0.1,2.6-0.9,3.6L12.9,27.7z"/>
</svg>
