<?xml version="1.0" encoding="utf-8"?>
<!-- Generator: Adobe Illustrator 18.0.0, SVG Export Plug-In . SVG Version: 6.00 Build 0)  -->
<!DOCTYPE svg PUBLIC "-//W3C//DTD SVG 1.1//EN" "http://www.w3.org/Graphics/SVG/1.1/DTD/svg11.dtd">
<svg version="1.1" id="Layer_1" xmlns="http://www.w3.org/2000/svg" xmlns:xlink="http://www.w3.org/1999/xlink" x="0px" y="0px"
	 viewBox="210 210 80 80" enable-background="new 210 210 80 80" xml:space="preserve">
<g>
	<path fill="#6A2875" d="M250,290l-40-40l40-40l40,40L250,290z"/>
	
		<rect x="224.3" y="224.3" transform="matrix(-0.7071 -0.7071 0.7071 -0.7071 250.0021 603.554)" fill="#9F5FA5" width="51.5" height="51.5"/>
	<g>
		<g>
			<path fill="#FFFFFF" d="M269.3,261.9c1.5-0.2,2.8-1.3,2.8-2.5c0-1.2-1.1-2.9-2.4-3.8l-12.8-8.6c-1.3-0.9-3.6-1.5-5.2-1.4l-29.1,2
				c-1.6,0.1-1.8,1-0.6,1.9l13.5,10.2c1.2,0.9,2.3,2.7,2.3,3.9s1.3,2,2.8,1.8L269.3,261.9z"/>
		</g>
		<polygon fill="none" points="272.1,261.6 272.1,257.2 254.6,245.5 219.8,247.9 237.8,261.5 237.8,265.9 		"/>
		<g>
			<defs>
				<polygon id="SVGID_1_" points="272.1,261.6 272.1,257.2 254.6,245.5 219.8,247.9 237.8,261.5 237.8,265.9 				"/>
			</defs>
			<clipPath id="SVGID_2_">
				<use xlink:href="#SVGID_1_"  overflow="visible"/>
			</clipPath>
			<polygon opacity="0.5" clip-path="url(#SVGID_2_)" fill="#9E5FA5" points="235.7,261.5 236.5,266.7 273.6,262.3 272.9,257.1 			
				"/>
		</g>
		<g>
			
				<path fill="none" stroke="#6A2875" stroke-width="2.126" stroke-linecap="round" stroke-linejoin="round" stroke-miterlimit="10" d="
				M269.3,261.9c1.5-0.2,2.8-1.3,2.8-2.5c0-1.2-1.1-2.9-2.4-3.8l-12.8-8.6c-1.3-0.9-3.6-1.5-5.2-1.4l-29.1,2c-1.6,0.1-1.8,1-0.6,1.9
				l13.5,10.2c1.2,0.9,2.3,2.7,2.3,3.9s1.3,2,2.8,1.8L269.3,261.9z"/>
		</g>
	</g>
	<g>
		<g>
			<g>
				<path fill="#6A2875" d="M249.8,242c-0.6,0-1-0.5-1-1v-4.4c0-2.4-2-4.4-4.4-4.4c-2.4,0-4.4,2-4.4,4.4v4.4c0,0.6-0.5,1-1,1
					c-0.6,0-1-0.5-1-1v-4.4c0-3.5,2.9-6.4,6.4-6.4c3.5,0,6.4,2.9,6.4,6.4v4.4C250.8,241.5,250.4,242,249.8,242z"/>
			</g>
			<path fill="#6A2875" d="M253.7,247c0,3.8-3.1,6.8-6.8,6.8H242c-3.8,0-6.8-3.1-6.8-6.8v-1.4c0-3.8,3.1-6.8,6.8-6.8h4.8
				c3.8,0,6.8,3.1,6.8,6.8V247z"/>
		</g>
		<g>
			<path fill="#FFFFFF" d="M239.7,245l-0.9,0.7l-0.5-0.9l1.6-1.1h1.1v4.8h-1.3V245z"/>
			<path fill="#FFFFFF" d="M242.3,246.1c0-1.3,0.3-2.5,1.9-2.5c1.6,0,1.9,1.2,1.9,2.5c0,1.3-0.3,2.5-1.9,2.5
				C242.6,248.6,242.3,247.4,242.3,246.1z M243.5,246.1c0,0.8,0,1.6,0.6,1.6c0.6,0,0.6-0.8,0.6-1.6c0-0.8,0-1.6-0.6-1.6
				C243.6,244.5,243.5,245.4,243.5,246.1z"/>
			<path fill="#FFFFFF" d="M246.8,246.1c0-1.3,0.3-2.5,1.9-2.5c1.6,0,1.9,1.2,1.9,2.5c0,1.3-0.3,2.5-1.9,2.5
				C247.1,248.6,246.8,247.4,246.8,246.1z M248.1,246.1c0,0.8,0,1.6,0.6,1.6c0.6,0,0.6-0.8,0.6-1.6c0-0.8,0-1.6-0.6-1.6
				C248.1,244.5,248.1,245.4,248.1,246.1z"/>
		</g>
	</g>
</g>
</svg>
