<?xml version="1.0" encoding="utf-8"?>
<!-- Generator: Adobe Illustrator 18.0.0, SVG Export Plug-In . SVG Version: 6.00 Build 0)  -->
<!DOCTYPE svg PUBLIC "-//W3C//DTD SVG 1.1//EN" "http://www.w3.org/Graphics/SVG/1.1/DTD/svg11.dtd">
<svg version="1.1" id="Layer_1" xmlns="http://www.w3.org/2000/svg" xmlns:xlink="http://www.w3.org/1999/xlink" x="0px" y="0px"
	 viewBox="210 210 80 80" enable-background="new 210 210 80 80" xml:space="preserve">
<g>
	<g>
		<path fill="#6A2875" d="M250,290l-40-40l40-40l40,40L250,290z"/>
		
			<rect x="224.3" y="224.3" transform="matrix(-0.7071 -0.7071 0.7071 -0.7071 250.0021 603.554)" fill="#9F5FA5" width="51.5" height="51.5"/>
		<g>
			<g>
				<path fill="#FFFFFF" d="M269.3,261.9c1.5-0.2,2.8-1.3,2.8-2.5c0-1.2-1.1-2.9-2.4-3.8l-12.8-8.6c-1.3-0.9-3.6-1.5-5.2-1.4
					l-29.1,2c-1.6,0.1-1.8,1-0.6,1.9l13.5,10.2c1.2,0.9,2.3,2.7,2.3,3.9s1.3,2,2.8,1.8L269.3,261.9z"/>
			</g>
			<polygon fill="none" points="272.1,261.6 272.1,257.2 254.6,245.5 219.8,247.9 237.8,261.5 237.8,265.9 			"/>
			<g>
				<defs>
					<polygon id="SVGID_1_" points="272.1,261.6 272.1,257.2 254.6,245.5 219.8,247.9 237.8,261.5 237.8,265.9 					"/>
				</defs>
				<clipPath id="SVGID_2_">
					<use xlink:href="#SVGID_1_"  overflow="visible"/>
				</clipPath>
				<polygon opacity="0.5" clip-path="url(#SVGID_2_)" fill="#9E5FA5" points="235.7,261.5 236.5,266.7 273.6,262.3 272.9,257.1 
									"/>
			</g>
			<g>
				
					<path fill="none" stroke="#6A2875" stroke-width="2.126" stroke-linecap="round" stroke-linejoin="round" stroke-miterlimit="10" d="
					M269.3,261.9c1.5-0.2,2.8-1.3,2.8-2.5c0-1.2-1.1-2.9-2.4-3.8l-12.8-8.6c-1.3-0.9-3.6-1.5-5.2-1.4l-29.1,2
					c-1.6,0.1-1.8,1-0.6,1.9l13.5,10.2c1.2,0.9,2.3,2.7,2.3,3.9s1.3,2,2.8,1.8L269.3,261.9z"/>
			</g>
		</g>
	</g>
	<g>
		<g>
			<g>
				<path fill="#FFFFFF" d="M248.4,236.3c-2,0-3.7-1.7-3.7-3.7c0-1.4,2-4.4,3.7-6.5c1.7,2.1,3.7,5.1,3.7,6.5
					C252.1,234.6,250.5,236.3,248.4,236.3z"/>
				<path fill="#6A2875" d="M248.4,227.7c1.5,2.1,2.7,4.1,2.7,4.8c0,1.5-1.2,2.7-2.7,2.7c-1.5,0-2.7-1.2-2.7-2.7
					C245.7,231.8,246.9,229.8,248.4,227.7 M248.4,224.5c0,0-4.7,5.4-4.7,8c0,2.6,2.1,4.7,4.7,4.7c2.6,0,4.7-2.1,4.7-4.7
					C253.1,230,248.4,224.5,248.4,224.5L248.4,224.5z"/>
			</g>
		</g>
		<path fill="#6A2875" d="M245.2,243.7c0,2.8-2.3,5.1-5.1,5.1c-2.8,0-5.1-2.3-5.1-5.1c0-2.8,5.1-8.8,5.1-8.8
			S245.2,240.9,245.2,243.7z"/>
		<g>
			<path fill="#9F5FA5" d="M239,245.5c0.2-0.8,1-0.1,2.4-1.1c1-0.7,1.1-1.5,1.9-1.3c0.8,0.2,0.9,2.3-0.9,3.4
				C240.5,247.5,238.8,246.3,239,245.5z"/>
		</g>
		<path fill="#6A2875" d="M261.9,247.9c0,3.3-2.7,6-6,6c-3.3,0-6-2.7-6-6c0-3.3,6-10.2,6-10.2S261.9,244.6,261.9,247.9z"/>
	</g>
</g>
</svg>
