<?xml version="1.0" encoding="utf-8"?>
<!-- Generator: Adobe Illustrator 18.0.0, SVG Export Plug-In . SVG Version: 6.00 Build 0)  -->
<!DOCTYPE svg PUBLIC "-//W3C//DTD SVG 1.1//EN" "http://www.w3.org/Graphics/SVG/1.1/DTD/svg11.dtd">
<svg version="1.1" id="Layer_1" xmlns="http://www.w3.org/2000/svg" xmlns:xlink="http://www.w3.org/1999/xlink" x="0px" y="0px"
	 viewBox="210 210 80 80" enable-background="new 210 210 80 80" xml:space="preserve">
<g>
	<polygon fill="#A7599E" points="288.2,250 250,288.1 211.9,250 250,211.9 	"/>
	<path fill="#6A246E" d="M213.8,250L213.8,250l36.2,36.2l36.2-36.2L250,213.8L213.8,250z M250,290l-40-40l40-40l40,40L250,290z"/>
	<path fill="#FFFFFF" d="M270.8,260.8c0.7-0.1,1.3-0.8,1.3-1.5v-1.6c0-0.7-0.5-1.7-1.1-2.1l-15.2-10.2c-0.6-0.4-1.7-0.7-2.5-0.7
		l-32,2.2c-0.7,0.1-0.9,0.5-0.3,0.9l15.8,12c0.6,0.5,1.1,1.4,1.1,2.2v1.6c0,0.7,0.6,1.3,1.3,1.2L270.8,260.8z"/>
	<path fill="#6A246E" d="M221.3,247.4L221.3,247.4C221.3,247.4,221.3,247.4,221.3,247.4l15.8,12c0.7,0.5,1.3,1.7,1.3,2.6v1.6
		c0,0.4,0.3,0.7,0.8,0.7l31.5-4c0.5-0.1,0.9-0.5,0.9-1v-1.6c0-0.6-0.4-1.4-0.9-1.7l-15.2-10.2c-0.5-0.4-1.5-0.6-2.2-0.6L221.3,247.4
		L221.3,247.4z M239.1,265.3c-0.9,0-1.7-0.8-1.7-1.7V262c0-0.6-0.4-1.4-0.9-1.8l-15.8-12c-0.6-0.5-0.6-0.9-0.5-1.2
		c0.1-0.2,0.3-0.6,1.1-0.7l32-2.2c0.9-0.1,2.1,0.3,2.8,0.7l15.2,10.2c0.8,0.5,1.4,1.6,1.4,2.5v1.6c0,1-0.8,1.9-1.8,2l-31.5,4
		C239.2,265.3,239.2,265.3,239.1,265.3z"/>
	<polygon fill="#A5599E" points="272.1,256.3 237.6,260.3 237.9,260.6 237.9,264.9 272.1,260.6 	"/>
	<path fill="#FFFFFF" d="M262.9,251c0,0-0.8-8.8-3.5-12.2c-2.7-3.4-7.8-6-7.8-6l-1.8,4l-1.5,5.1l-1.1,2.6l5.2,2.8L262.9,251z"/>
	<path fill="#6A246E" d="M243.3,241.7c0,0,2.3,6.3,7,8.7c3.6,1.8,9.5,0.8,11.5,0.4c-5-2.1-10.7-6-14.4-6.9c5.1,0.9,9.3,2.5,15.4,7
		c0.1,0-2.3-5.4-7.1-7.8C251,240.8,243.3,241.7,243.3,241.7"/>
	<path fill="#6A246E" d="M256.5,232.5c-1.3-0.7-2.6-1.3-3.8-1.7c-3.4-1.3-6.7-2.3-6.7-2.3s0.1,2,0.1,4.2c0,0.6,0,1.3,0.1,2
		c0.2,2.1,0.7,4.4,2,6.5c2.1,0,4.6,0.3,6.7,1.2c-2.4-3.1-3.8-6-4.8-9.2c1.6,4.1,8.6,10.3,12.5,15.8c0.5-2.3,1.8-8.8-1.4-12.8
		C260,234.6,258.3,233.4,256.5,232.5"/>
</g>
</svg>
