<?xml version="1.0" encoding="utf-8"?>
<!-- Generator: Adobe Illustrator 18.0.0, SVG Export Plug-In . SVG Version: 6.00 Build 0)  -->
<!DOCTYPE svg PUBLIC "-//W3C//DTD SVG 1.1//EN" "http://www.w3.org/Graphics/SVG/1.1/DTD/svg11.dtd">
<svg version="1.1" id="Layer_1" xmlns="http://www.w3.org/2000/svg" xmlns:xlink="http://www.w3.org/1999/xlink" x="0px" y="0px"
	 viewBox="0 0 64 64" enable-background="new 0 0 64 64" xml:space="preserve">
<g>
	<g>
		<path fill="#ECEFF1" d="M46.9,34c0,1.1,0,2.2,0,3.2c0,1,0,2,0,3.2c0.7-0.5,1.2-1,1.8-1.4c0.3-0.2,0.5-0.2,0.7,0
			c0.5,0.5,1.1,0.9,1.8,1.4c0-2.2,0-4.2,0-6.4c0.3,0,0.6,0,0.8,0c2.7,0,5.4,0,8.1,0c2.2,0,3.9,1.6,3.9,3.8c0,6.7,0,13.4,0,20.1
			c0,2.2-1.6,3.8-3.8,3.8c-7.4,0-14.8,0-22.2,0c-2.2,0-3.8-1.6-3.8-3.8c0-6.7,0-13.4,0-20.1c0-2,1.4-3.6,3.4-3.7
			C40.6,34,43.7,34,46.9,34z"/>
		<path fill="#ECEFF1" d="M29.8,8.4c0.7-0.5,1.2-1,1.7-1.4c0.3-0.3,0.5-0.3,0.8,0c0.5,0.5,1.1,0.9,1.8,1.4c0-2.2,0-4.3,0-6.4
			c0.3,0,0.5,0,0.7,0c2.7,0,5.4,0,8.1,0c2.4,0,4,1.6,4,4c0,6.6,0,13.2,0,19.8c0,2.3-1.6,3.9-3.9,3.9c-7.3,0-14.6,0-21.9,0
			c-2.5,0-4.1-1.6-4.1-4.1c0-6.5,0-13,0-19.5c0-2.6,1.5-4.1,4.1-4.1c2.6,0,5.2,0,7.9,0c0.2,0,0.5,0,0.8,0c0,1.1,0,2.1,0,3.2
			C29.8,6.2,29.8,7.2,29.8,8.4z"/>
		<path fill="#ECEFF1" d="M12.7,34c0,2.1,0,4.2,0,6.5c0.6-0.5,1.2-0.9,1.7-1.4c0.3-0.3,0.6-0.3,0.9,0c0.5,0.4,1.1,0.8,1.7,1.4
			c0-2.2,0-4.3,0-6.4c0.3,0,0.5,0,0.7,0c2.7,0,5.4,0,8.1,0c2.5,0,4,1.6,4,4.1c0,6.5,0,13,0,19.5c0,2.6-1.5,4.1-4.1,4.1
			c-7.2,0-14.5,0-21.7,0c-2.5,0-4-1.6-4-4c0-6.5,0-13,0-19.5C0,35.6,1.5,34,4.1,34C7,34,9.8,34,12.7,34z"/>
	</g>
</g>
</svg>
