<?xml version="1.0" encoding="utf-8"?>
<!-- Generator: Adobe Illustrator 18.0.0, SVG Export Plug-In . SVG Version: 6.00 Build 0)  -->
<!DOCTYPE svg PUBLIC "-//W3C//DTD SVG 1.1//EN" "http://www.w3.org/Graphics/SVG/1.1/DTD/svg11.dtd">
<svg version="1.1" id="Layer_1" xmlns="http://www.w3.org/2000/svg" xmlns:xlink="http://www.w3.org/1999/xlink" x="0px" y="0px"
	 viewBox="218 218 64 64" enable-background="new 218 218 64 64" xml:space="preserve">
<g>
	<polygon class="up" fill="#607D8B" points="257,224.4 244,224.4 250.5,218 	"/>
	<polygon class="down" fill="#607D8B" points="244.1,275.6 256.9,275.6 250.5,282 	"/>
	<g>
		<g>
			<path fill="#607D8B" d="M250,228.8c-12.1,0-22,9.9-22,22c0,12.1,9.8,22,22,22c12.2,0,22-9.9,22-22
				C272,238.7,262.1,228.8,250,228.8z M250,268.4c-9.7,0-17.6-7.9-17.6-17.6c0-9.7,7.9-17.6,17.6-17.6s17.6,7.9,17.6,17.6
				C267.6,260.6,259.7,268.4,250,268.4z"/>
			<path fill="#607D8B" d="M251.1,239.8h-3.3V253l11.6,6.9l1.7-2.7l-9.9-5.9V239.8z"/>
		</g>
	</g>
</g>
</svg>
