<?xml version="1.0" encoding="utf-8"?>
<!-- Generator: Adobe Illustrator 18.0.0, SVG Export Plug-In . SVG Version: 6.00 Build 0)  -->
<!DOCTYPE svg PUBLIC "-//W3C//DTD SVG 1.1//EN" "http://www.w3.org/Graphics/SVG/1.1/DTD/svg11.dtd">
<svg version="1.1" id="Layer_1" xmlns="http://www.w3.org/2000/svg" xmlns:xlink="http://www.w3.org/1999/xlink" x="0px" y="0px"
	 viewBox="0 0 250 250" enable-background="new 0 0 250 250" xml:space="preserve">
<g>
	<path fill="#42A5F5" d="M62.8,134.7H41.3l-2.6,5.9c-0.8,2-1.3,3.6-1.3,4.9c0,1.7,0.7,3,2.1,3.8c0.8,0.5,2.8,0.8,6,1.1v1.7H25.3
		v-1.7c2.2-0.3,4-1.2,5.4-2.7c1.4-1.5,3.1-4.5,5.2-9.2l21.8-48.6h0.9l21.9,49.9c2.1,4.7,3.8,7.7,5.2,8.9c1,0.9,2.5,1.5,4.3,1.6v1.7
		H60.5v-1.7h1.2c2.4,0,4-0.3,5-1c0.7-0.5,1-1.2,1-2.1c0-0.5-0.1-1.1-0.3-1.7c-0.1-0.3-0.5-1.4-1.3-3.4L62.8,134.7z M61.3,131.4
		l-9.1-21l-9.3,21H61.3z"/>
	<path fill="#42A5F5" d="M123.6,101.4v1.3c-1.8,0.3-3.4,1.2-4.8,2.9c-1,1.2-2.5,4-4.5,8.5l-16.9,37.5h-1.2l-16.8-39.1
		c-2-4.7-3.4-7.5-4.1-8.3c-0.7-0.8-2-1.3-3.9-1.6v-1.3h23.6v1.3h-0.8c-2.1,0-3.6,0.3-4.3,0.8c-0.6,0.4-0.8,0.9-0.8,1.6
		c0,0.4,0.1,0.9,0.3,1.5c0.2,0.6,0.8,2.2,2,4.8l10.5,24.5l9.7-21.8c1.2-2.6,1.9-4.4,2.1-5.3c0.3-0.9,0.4-1.7,0.4-2.3
		c0-0.7-0.2-1.4-0.6-1.9c-0.4-0.6-1-1-1.7-1.3c-1-0.4-2.4-0.6-4.1-0.6v-1.3H123.6z"/>
	<path fill="#42A5F5" d="M153,149.2v1.3h-25.7v-1.3h1.6c1.4,0,2.6-0.3,3.4-0.8c0.6-0.3,1.1-0.9,1.4-1.7c0.3-0.6,0.4-2.1,0.4-4.6
		v-32.3c0-2.5-0.1-4.1-0.4-4.7c-0.3-0.6-0.8-1.2-1.6-1.6c-0.8-0.5-1.9-0.7-3.3-0.7h-1.6v-1.3H153v1.3h-1.6c-1.4,0-2.6,0.3-3.4,0.8
		c-0.6,0.3-1.1,0.9-1.5,1.7c-0.3,0.6-0.4,2.1-0.4,4.6v32.3c0,2.5,0.1,4.1,0.4,4.7c0.3,0.6,0.8,1.2,1.6,1.6c0.8,0.5,1.9,0.7,3.3,0.7
		H153z"/>
	<path fill="#42A5F5" d="M177.7,128.2v13.8c0,2.7,0.2,4.3,0.5,5c0.3,0.7,0.9,1.2,1.7,1.6c0.8,0.4,2.4,0.6,4.6,0.6v1.3h-25.1v-1.3
		c2.3,0,3.8-0.2,4.6-0.6c0.8-0.4,1.4-1,1.7-1.6c0.3-0.7,0.5-2.3,0.5-5V110c0-2.7-0.2-4.3-0.5-5c-0.3-0.7-0.9-1.2-1.7-1.6
		c-0.8-0.4-2.4-0.6-4.6-0.6v-1.3h22.8c5.9,0,10.3,0.4,13,1.2c2.8,0.8,5,2.3,6.7,4.5c1.7,2.2,2.6,4.8,2.6,7.8c0,3.6-1.3,6.6-3.9,9
		c-1.7,1.5-4,2.6-7,3.4l11.8,16.6c1.5,2.1,2.6,3.5,3.3,4c1,0.7,2.1,1.2,3.4,1.2v1.3h-15.5l-15.8-22.4H177.7z M177.7,104.1v21.5h2.1
		c3.4,0,5.9-0.3,7.5-0.9c1.7-0.6,3-1.7,3.9-3.3c1-1.6,1.4-3.7,1.4-6.3c0-3.7-0.9-6.5-2.6-8.3c-1.8-1.8-4.6-2.7-8.5-2.7H177.7z"/>
	<path fill="#42A5F5" d="M245.3,149.2v1.3h-25.7v-1.3h1.6c1.4,0,2.6-0.3,3.4-0.8c0.6-0.3,1.1-0.9,1.4-1.7c0.3-0.6,0.4-2.1,0.4-4.6
		v-32.3c0-2.5-0.1-4.1-0.4-4.7c-0.3-0.6-0.8-1.2-1.6-1.6c-0.8-0.5-1.9-0.7-3.3-0.7h-1.6v-1.3h25.7v1.3h-1.6c-1.4,0-2.6,0.3-3.4,0.8
		c-0.6,0.3-1.1,0.9-1.5,1.7c-0.3,0.6-0.4,2.1-0.4,4.6v32.3c0,2.5,0.1,4.1,0.4,4.7c0.3,0.6,0.8,1.2,1.6,1.6c0.8,0.5,1.9,0.7,3.3,0.7
		H245.3z"/>
	<g>
		<g>
			<path fill="#42A5F5" d="M239.7,82.9v1.4h-0.1c-0.1-0.3-0.2-0.5-0.2-0.7c-0.1-0.1-0.2-0.2-0.4-0.3c-0.1,0-0.2-0.1-0.5-0.1h-0.3
				v3.9c0,0.3,0,0.4,0,0.5c0,0.1,0.1,0.1,0.2,0.2c0.1,0,0.2,0.1,0.3,0.1h0.2V88h-2.4v-0.1h0.2c0.1,0,0.2,0,0.3-0.1
				c0.1,0,0.1-0.1,0.1-0.2c0-0.1,0-0.2,0-0.5v-3.9h-0.3c-0.3,0-0.5,0.1-0.7,0.2c-0.2,0.2-0.3,0.5-0.4,0.9h-0.1v-1.4H239.7z"/>
			<path fill="#42A5F5" d="M245,86.2l1.3-3.3h1.9V83H248c-0.1,0-0.2,0-0.3,0.1c-0.1,0-0.1,0.1-0.1,0.2c0,0.1,0,0.2,0,0.5v3.3
				c0,0.3,0,0.4,0,0.5c0,0.1,0.1,0.1,0.2,0.2c0.1,0,0.2,0.1,0.3,0.1h0.2V88h-2.4v-0.1h0.1c0.1,0,0.2,0,0.3-0.1
				c0.1,0,0.1-0.1,0.1-0.2c0-0.1,0-0.2,0-0.5v-3.8l-1.8,4.6h-0.1l-1.8-4.6v3.6c0,0.2,0,0.4,0,0.5c0,0.1,0.1,0.2,0.2,0.3
				c0.1,0.1,0.3,0.1,0.5,0.1V88h-1.6v-0.1h0c0.1,0,0.2,0,0.3-0.1c0.1,0,0.2-0.1,0.2-0.2c0-0.1,0.1-0.2,0.1-0.3c0,0,0-0.2,0-0.4v-3.2
				c0-0.3,0-0.4,0-0.5c0-0.1-0.1-0.1-0.2-0.2c-0.1,0-0.2-0.1-0.3-0.1h-0.1v-0.1h1.9L245,86.2z"/>
		</g>
	</g>
	<path fill="#42A5F5" d="M132.7,88.9h6.8l2.1-6.2l2.1,6.2h6.8l-5.5,3.9L147,99l-5.5-3.9l-5.5,3.9l2.1-6.2L132.7,88.9z"/>
	<path fill="#42A5F5" d="M115.8,76.2h6.8l2.1-6.2l2.1,6.2h6.8L128,80l2.1,6.2l-5.5-3.9l-5.5,3.9l2.1-6.2L115.8,76.2z"/>
	<path fill="#42A5F5" d="M99.2,64.2h6.8l2.1-6.2l2.1,6.2h6.8l-5.5,3.9l2.1,6.2l-5.5-3.9l-5.5,3.9l2.1-6.2L99.2,64.2z"/>
	<path fill="#42A5F5" d="M79.2,58.4H86l2.1-6.2l2.1,6.2h6.8l-5.5,3.9l2.1,6.2l-5.5-3.9l-5.5,3.9l2.1-6.2L79.2,58.4z"/>
	<path fill="#42A5F5" d="M56.5,61.5h6.8l2.1-6.2l2.1,6.2h6.8l-5.5,3.9l2.1,6.2l-5.5-3.9l-5.5,3.9l2.1-6.2L56.5,61.5z"/>
	<path fill="#42A5F5" d="M35,69.6h6.8l2.1-6.2l2.1,6.2h6.8l-5.5,3.9l2.1,6.2l-5.5-3.9l-5.5,3.9l2.1-6.2L35,69.6z"/>
	<path fill="#42A5F5" d="M16.5,82.7h6.8l2.1-6.2l2.1,6.2h6.8l-5.5,3.9l2.1,6.2L25.3,89l-5.5,3.9l2.1-6.2L16.5,82.7z"/>
	<path fill="#42A5F5" d="M6.1,100.6h6.8l2.1-6.2l2.1,6.2h6.8l-5.5,3.9l2.1,6.2l-5.5-3.9l-5.5,3.9l2.1-6.2L6.1,100.6z"/>
	<path fill="#42A5F5" d="M0.2,123h6.8l2.1-6.2l2.1,6.2h6.8l-5.5,3.9l2.1,6.2L9,129.2l-5.5,3.9l2.1-6.2L0.2,123z"/>
	<path fill="#42A5F5" d="M3.8,145.7h6.8l2.1-6.2l2.1,6.2h6.8l-5.5,3.9l2.1,6.2l-5.5-3.9l-5.5,3.9l2.1-6.2L3.8,145.7z"/>
	<path fill="#42A5F5" d="M15.4,164.2h6.8l2.1-6.2l2.1,6.2h6.8l-5.5,3.9l2.1,6.2l-5.5-3.9l-5.5,3.9l2.1-6.2L15.4,164.2z"/>
	<path fill="#42A5F5" d="M31.4,178.7h6.8l2.1-6.2l2.1,6.2h6.8l-5.5,3.9l2.1,6.2l-5.5-3.9l-5.5,3.9l2.1-6.2L31.4,178.7z"/>
	<path fill="#42A5F5" d="M52.7,184.5h6.8l2.1-6.2l2.1,6.2h6.8l-5.5,3.9l2.1,6.2l-5.5-3.9l-5.5,3.9l2.1-6.2L52.7,184.5z"/>
	<path fill="#42A5F5" d="M75.6,185.8h6.8l2.1-6.2l2.1,6.2h6.8l-5.5,3.9l2.1,6.2l-5.5-3.9l-5.5,3.9l2.1-6.2L75.6,185.8z"/>
	<path fill="#42A5F5" d="M98.7,182.2h6.8l2.1-6.2l2.1,6.2h6.8l-5.5,3.9l2.1,6.2l-5.5-3.9l-5.5,3.9l2.1-6.2L98.7,182.2z"/>
	<path fill="#42A5F5" d="M115.8,172.1h6.8l2.1-6.2l2.1,6.2h6.8L128,176l2.1,6.2l-5.5-3.9l-5.5,3.9l2.1-6.2L115.8,172.1z"/>
	<path fill="#42A5F5" d="M223.6,88.9h6.8l2.1-6.2l2.1,6.2h6.8l-5.5,3.9l2.1,6.2l-5.5-3.9L227,99l2.1-6.2L223.6,88.9z"/>
	<path fill="#42A5F5" d="M129.8,160.1h6.8l2.1-6.2l2.1,6.2h6.8l-5.5,3.9l2.1,6.2l-5.5-3.9l-5.5,3.9l2.1-6.2L129.8,160.1z"/>
</g>
</svg>
