<?xml version="1.0" encoding="utf-8"?>
<!-- Generator: Adobe Illustrator 18.0.0, SVG Export Plug-In . SVG Version: 6.00 Build 0)  -->
<!DOCTYPE svg PUBLIC "-//W3C//DTD SVG 1.1//EN" "http://www.w3.org/Graphics/SVG/1.1/DTD/svg11.dtd">
<svg version="1.1" id="Layer_1" xmlns="http://www.w3.org/2000/svg" xmlns:xlink="http://www.w3.org/1999/xlink" x="0px" y="0px"
	 viewBox="218 218 64 64" enable-background="new 218 218 64 64" xml:space="preserve">
<path fill="#BCBEC0" d="M273.9,261.8h-6.7v-6.7h6.7 M273.9,275.3h-6.7v-6.7h6.7 M253.7,234.8h-6.7v-6.7h6.7 M253.7,248.3h-6.7v-6.7
	h6.7 M253.7,261.8h-6.7v-6.7h6.7 M253.7,275.3h-6.7v-6.7h6.7 M233.5,248.3h-6.7v-6.7h6.7 M233.5,261.8h-6.7v-6.7h6.7 M233.5,275.3
	h-6.7v-6.7h6.7 M260.4,248.3v-20.2L250.3,218l-10.1,10.1v6.7H220V282h60.6v-33.7H260.4z"/>
</svg>
