<?xml version="1.0" encoding="utf-8"?>
<!-- Generator: Adobe Illustrator 18.0.0, SVG Export Plug-In . SVG Version: 6.00 Build 0)  -->
<!DOCTYPE svg PUBLIC "-//W3C//DTD SVG 1.1//EN" "http://www.w3.org/Graphics/SVG/1.1/DTD/svg11.dtd">
<svg version="1.1" id="Layer_1" xmlns="http://www.w3.org/2000/svg" xmlns:xlink="http://www.w3.org/1999/xlink" x="0px" y="0px"
	 viewBox="0 0 64 64" enable-background="new 0 0 64 64" xml:space="preserve">
<path fill="#656D72" d="M57.6,0H6.4C2.9,0,0,2.9,0,6.4v51.2C0,61.1,2.9,64,6.4,64h51.2c3.5,0,6.4-2.9,6.4-6.4V6.4
	C64,2.9,61.1,0,57.6,0z M19.2,57.6H6.4V44.8h12.8V57.6z M19.2,38.4H6.4V25.6h12.8V38.4z M19.2,19.2H6.4V6.4h12.8V19.2z M38.4,57.6
	H25.6V44.8h12.8V57.6z M38.4,38.4H25.6V25.6h12.8V38.4z M38.4,19.2H25.6V6.4h12.8V19.2z M57.6,57.6H44.8V44.8h12.8V57.6z M57.6,38.4
	H44.8V25.6h12.8V38.4z M57.6,19.2H44.8V6.4h12.8V19.2z"/>
</svg>
