<?xml version="1.0" encoding="utf-8"?>
<!-- Generator: Adobe Illustrator 18.0.0, SVG Export Plug-In . SVG Version: 6.00 Build 0)  -->
<!DOCTYPE svg PUBLIC "-//W3C//DTD SVG 1.1//EN" "http://www.w3.org/Graphics/SVG/1.1/DTD/svg11.dtd">
<svg version="1.1" id="Layer_1" xmlns="http://www.w3.org/2000/svg" xmlns:xlink="http://www.w3.org/1999/xlink" x="0px" y="0px"
	 viewBox="0 0 64 64" enable-background="new 0 0 64 64" xml:space="preserve">
<g>
	<path fill="#ECEFF1" d="M64,47.6c-0.8,1.7-1.6,1.8-3.8,1.6c0.7-6.3-4.8-10.7-9.8-10.6c-5.7,0.1-10.1,5.1-9.5,10.6
		c-5.3,0-10.6,0-15.9,0c0.3-3.2-0.8-5.9-3.2-8.2c6.5,0,13,0,19.5,0c0-0.3,0-0.5,0-0.7c0-7,0-13.9,0-20.9c0-2,1.2-3.1,3.1-3.1
		c2.6,0,5.2,0,7.9,0c0.9,0,1.5,0.4,2,1.1c2.3,4.1,4.7,8.2,7,12.3c0.4,0.7,0.6,1.5,0.6,2.3c0.1,2.8,0,5.5,0,8.3c0,0.2,0,0.5,0,0.8
		c1.1,0.1,1.7,0.7,2.1,1.7C64,44.3,64,46,64,47.6z M50.6,28.6c1.5,0,3.1,0,4.6,0c0.8,0,0.9-0.3,0.5-1c-1.3-2.3-2.6-4.6-3.9-6.9
		c-0.1-0.2-0.5-0.5-0.8-0.5c-1.6,0-3.2,0-4.8,0c-0.6,0-0.8,0.2-0.8,0.7c0,2.3,0,4.6,0,6.8c0,0.6,0.2,0.8,0.8,0.7
		C47.6,28.6,49.1,28.7,50.6,28.6z"/>
	<path fill="#ECEFF1" d="M39.2,38.9c-3.5,0-7,0-10.4,0c-8.8,0-17.5,0-26.3,0c-1.7,0-2.4-0.8-2.4-2.5c0-8,0-16,0-23.9
		C0,9.7,1.7,8,4.5,8c10.1,0,20.2,0,30.3,0c2.6,0,4.4,1.7,4.4,4.3c0,8.6,0,17.3,0,25.9C39.2,38.5,39.2,38.7,39.2,38.9z M19.6,12.1
		c-4.8,0-9.5,0-14.3,0c-1,0-1.2,0.2-1.2,1.2c0,6.8,0,13.6,0,20.4c0,1,0.2,1.2,1.2,1.2c9.6,0,19.1,0,28.7,0c0.9,0,1.1-0.2,1.1-1.1
		c0-6.8,0-13.7,0-20.5c0-0.9-0.2-1.1-1.1-1.1C29.2,12.1,24.4,12.1,19.6,12.1z"/>
	<path fill="#ECEFF1" d="M15.5,41c3.9,0,7.2,3.3,7.2,7.2c0,4-3.3,7.2-7.3,7.2c-3.9,0-7.2-3.3-7.1-7.2C8.3,44.3,11.5,41,15.5,41z
		 M18.6,48.3c0-1.7-1.4-3.1-3.1-3.1c-1.8,0-3.2,1.4-3.2,3.1c0,1.7,1.4,3.1,3.1,3.1C17.2,51.4,18.6,50,18.6,48.3z"/>
	<path fill="#ECEFF1" d="M43.4,48.2c0-3.9,3.2-7.2,7.1-7.2c4,0,7.3,3.2,7.3,7.3c0,3.9-3.3,7.1-7.2,7.1
		C46.6,55.4,43.4,52.2,43.4,48.2z M53.7,48.3c0-1.8-1.3-3.2-3.1-3.2c-1.7,0-3.1,1.4-3.1,3.1c0,1.8,1.3,3.2,3.1,3.2
		C52.3,51.4,53.7,50,53.7,48.3z"/>
	<path fill="#ECEFF1" d="M9.1,41.1c-2.3,2.3-3.5,4.9-3.2,8.2c-1.4,0-2.8,0.1-4.2,0c-1-0.1-1.7-1-1.7-2c0-1.4,0-2.8,0-4.1
		c0-1.1,0.8-2,1.8-2C4.2,41,6.6,41.1,9.1,41.1z"/>
	<path fill="#ECEFF1" d="M8.2,30.5c0.2-0.3,0.3-0.4,0.5-0.6c1.7-2,3.5-4,5.2-6c0.3-0.4,0.3-0.6,0-1c-1.8-2-3.5-4-5.2-6
		c-0.1-0.2-0.3-0.4-0.5-0.6c0.3,0,0.5-0.1,0.7-0.1c1.7,0,3.3,0,5,0c0.4,0,0.8,0.2,1.1,0.5c1.8,2,3.5,4,5.2,6c0.5,0.6,0.5,0.8,0,1.4
		c-1.8,2-3.5,4-5.3,6c-0.2,0.2-0.6,0.5-0.9,0.5c-1.8,0-3.5,0-5.3,0C8.6,30.7,8.5,30.6,8.2,30.5z"/>
	<path fill="#ECEFF1" d="M18.7,30.5c2.1-2.4,4.1-4.7,6.1-7.1c-2-2.3-4-4.7-6.2-7.1c0.4,0,0.5-0.1,0.7-0.1c1.6,0,3.3,0,4.9,0
		c0.3,0,0.8,0.2,1,0.5c1.8,2,3.5,4,5.3,6c0.4,0.5,0.4,0.9,0,1.3c-1.8,2-3.5,4-5.3,6c-0.2,0.2-0.6,0.4-0.9,0.5c-1.7,0-3.5,0-5.2,0
		C19.1,30.7,19,30.6,18.7,30.5z"/>
</g>
</svg>
