<?xml version="1.0" encoding="utf-8"?>
<!-- Generator: Adobe Illustrator 18.0.0, SVG Export Plug-In . SVG Version: 6.00 Build 0)  -->
<!DOCTYPE svg PUBLIC "-//W3C//DTD SVG 1.1//EN" "http://www.w3.org/Graphics/SVG/1.1/DTD/svg11.dtd">
<svg version="1.1" id="Layer_1" xmlns="http://www.w3.org/2000/svg" xmlns:xlink="http://www.w3.org/1999/xlink" x="0px" y="0px"
	 viewBox="0 0 250 250" enable-background="new 0 0 250 250" xml:space="preserve">
<g>
	<path fill="#42A5F5" d="M10.2,185.3l-0.4-3.9l8.8-2.7l-7.7-78.3l-9.4,2.9L1,99.5l62.4-19.4l3.8,23.8l-4.4,1.4
		c-5.8-17.3-13.1-16.9-25.4-13.1l-6.4,2l3.5,35.1l3.6-1.1c2.8-0.9,8.9-5,9.6-18.2l4.4-1.4l3.5,35.9l-4.5,1.4
		c-2.5-8.1-4.7-16.3-13.8-13.5l-2.7,0.8l4.1,39.2l5.8-1.8c17.9-5.6,23.3-15.2,25.8-33.6l4-1.2l2.5,28.8L10.2,185.3z"/>
	<path fill="#42A5F5" d="M77.5,78.8l-0.2-3.6l12.5-3.9c4.1-1.3,8-3.3,12-5l6,79.7c0.2,1.9,0.4,5.1,3,4.5c4.5-1,6.3-12.2,6.8-16.1
		l3,0.5c-1.1,10.8-3.5,19.1-14.4,22.5c-5.9,1.8-11.7-0.2-13.8-6.7c-0.8-2.7-0.6-4.3-0.6-5.9l-5.5-68.8L77.5,78.8z"/>
	<path fill="#42A5F5" d="M115,103.9l-0.2-3.7l12.5-3.9c4.1-1.3,8.1-3,12.2-4.3l3,43.3c0.3,3.5,0.4,5.2,3,4.4
		c4.1-1.3,6-12.6,6.4-16.6l2.9,0.4c-0.8,11.5-3.5,19.9-15.1,23.5c-5.1,1.6-10.6,0.4-11.9-3.7c-0.6-1.8-0.9-5.9-1.3-10.1l-2.7-32.1
		L115,103.9z M136.4,69.8c1.5,4.8-1.2,9.9-5.8,11.3c-4.5,1.4-9.1-1.8-10.4-6.3c-1.2-4,1.4-9.2,5.3-10.4
		C129.8,63.1,134.9,65,136.4,69.8z"/>
	<path fill="#42A5F5" d="M158.5,87.4l-0.9-14.8c5-1.7,10.1-3.4,15.1-5.2l1.3,15.3l8.5-2.6l0.4,3.6l-8.7,2.7l2.4,38
		c0.3,4.3,1.5,4.8,3.1,4.4c5.1-1.6,7.8-12,6.9-16.7l2.9-0.1c1.2,10.8-3.6,19.4-14.3,22.8c-5,1.5-11.7,0.8-13.5-5
		c-0.5-1.5-0.7-5.3-1-9.2l-2.1-29.2l-7.3,2.3l-0.3-3.6L158.5,87.4z"/>
	<path fill="#42A5F5" d="M216.1,99.6c0.6,4.3,0.5,9,1.8,13.1c1.4,4.4,4.3,4.9,8.2,3.7c10.4-3.2,16.9-11.2,20.4-21.3l2.5,1.1
		c-3.6,12.3-11.8,20.5-23.9,24.3c-11.4,3.5-23.2-0.5-27-12.6c-5.1-16.3,8-36.9,23.6-41.7c7.6-2.4,18.8-2.1,21.8,7.3
		c2.4,7.7-1.7,13.4-7.7,17.8c-2.9,2.1-6.4,4.2-9.9,5.3L216.1,99.6z M222.9,93.8c3.4-1.1,11-7.7,7.5-19c-1.4-4.6-3.8-6.4-8.7-4.9
		c-3.6,1.1-6.1,3.8-6,11.3l0.2,14.8L222.9,93.8z"/>
</g>
</svg>
