<?xml version="1.0" encoding="utf-8"?>
<!-- Generator: Adobe Illustrator 18.0.0, SVG Export Plug-In . SVG Version: 6.00 Build 0)  -->
<!DOCTYPE svg PUBLIC "-//W3C//DTD SVG 1.1//EN" "http://www.w3.org/Graphics/SVG/1.1/DTD/svg11.dtd">
<svg version="1.1" id="Layer_1" xmlns="http://www.w3.org/2000/svg" xmlns:xlink="http://www.w3.org/1999/xlink" x="0px" y="0px"
	 viewBox="218 218 64 64" enable-background="new 218 218 64 64" xml:space="preserve">
<path fill="#607D8B" d="M223.8,226.7c-3.2,0-5.8,2.6-5.8,5.8v32h5.8c0,4.8,3.9,8.7,8.7,8.7c4.8,0,8.7-3.9,8.7-8.7h17.5
	c0,4.8,3.9,8.7,8.7,8.7c4.8,0,8.7-3.9,8.7-8.7h5.8V250l-8.7-11.6h-8.7v-11.6 M244.2,232.5l11.6,11.6l-11.6,11.6v-8.7h-17.5v-5.8
	h17.5 M264.5,242.7h7.3l5.7,7.3h-13 M232.5,260.2c2.4,0,4.4,2,4.4,4.4c0,2.4-2,4.4-4.4,4.4s-4.4-2-4.4-4.4
	C228.2,262.1,230.1,260.2,232.5,260.2 M267.5,260.2c2.4,0,4.4,2,4.4,4.4c0,2.4-2,4.4-4.4,4.4c-2.4,0-4.4-2-4.4-4.4
	C263.1,262.1,265,260.2,267.5,260.2z"/>
</svg>
