<?xml version="1.0" encoding="utf-8"?>
<!-- Generator: Adobe Illustrator 18.0.0, SVG Export Plug-In . SVG Version: 6.00 Build 0)  -->
<!DOCTYPE svg PUBLIC "-//W3C//DTD SVG 1.1//EN" "http://www.w3.org/Graphics/SVG/1.1/DTD/svg11.dtd">
<svg version="1.1" id="Layer_1" xmlns="http://www.w3.org/2000/svg" xmlns:xlink="http://www.w3.org/1999/xlink" x="0px" y="0px"
	 viewBox="0 0 64 64" enable-background="new 0 0 64 64" xml:space="preserve">
<path fill="#656D72" d="M21.3,28.4h-7.1v7.1h7.1V28.4z M35.6,42.7h-7.1v7.1h7.1V42.7z M21.3,0h-7.1v7.1h7.1V0z M35.6,28.4h-7.1v7.1
	h7.1V28.4z M7.1,0H0v7.1h7.1V0z M35.6,14.2h-7.1v7.1h7.1V14.2z M49.8,28.4h-7.1v7.1h7.1V28.4z M35.6,0h-7.1v7.1h7.1V0z M49.8,0h-7.1
	v7.1h7.1V0z M56.9,35.6H64v-7.1h-7.1V35.6z M56.9,49.8H64v-7.1h-7.1V49.8z M7.1,14.2H0v7.1h7.1V14.2z M56.9,0v7.1H64V0H56.9z
	 M56.9,21.3H64v-7.1h-7.1V21.3z M7.1,28.4H0v7.1h7.1V28.4z M0,64h64v-7.1H0V64z M7.1,42.7H0v7.1h7.1V42.7z"/>
</svg>
