<?xml version="1.0" encoding="utf-8"?>
<!-- Generator: Adobe Illustrator 18.0.0, SVG Export Plug-In . SVG Version: 6.00 Build 0)  -->
<!DOCTYPE svg PUBLIC "-//W3C//DTD SVG 1.1//EN" "http://www.w3.org/Graphics/SVG/1.1/DTD/svg11.dtd">
<svg version="1.1" id="Layer_1" xmlns="http://www.w3.org/2000/svg" xmlns:xlink="http://www.w3.org/1999/xlink" x="0px" y="0px"
	 viewBox="210 210 80 80" enable-background="new 210 210 80 80" xml:space="preserve">
<g>
	<polygon fill="#A7599E" points="288.2,250 250,288.1 211.9,250 250,211.9 	"/>
	<path fill="#6A246E" d="M213.8,250L213.8,250l36.2,36.2l36.2-36.2L250,213.8L213.8,250z M250,290l-40-40l40-40l40,40L250,290z"/>
	<ellipse fill-rule="evenodd" clip-rule="evenodd" fill="#FFFFFF" cx="250" cy="250" rx="18.9" ry="18.9"/>
	<ellipse fill="none" stroke="#1A1A18" stroke-width="0.5669" stroke-miterlimit="22.9256" cx="250" cy="250" rx="18.9" ry="18.9"/>
	<path fill-rule="evenodd" clip-rule="evenodd" fill="#6A246E" d="M250,231.3c10.3,0,18.6,8.4,18.6,18.7c0,10.3-8.4,18.7-18.6,18.7
		c-10.3,0-18.6-8.4-18.6-18.7C231.4,239.7,239.7,231.3,250,231.3z M250,227.7c12.3,0,22.2,10,22.2,22.3s-10,22.3-22.2,22.3
		c-12.3,0-22.2-10-22.2-22.3S237.8,227.7,250,227.7z"/>
	<path fill="none" stroke="#6A246E" stroke-width="0.5669" stroke-miterlimit="22.9256" d="M250,231.3c10.3,0,18.6,8.4,18.6,18.7
		c0,10.3-8.4,18.7-18.6,18.7c-10.3,0-18.6-8.4-18.6-18.7C231.4,239.7,239.7,231.3,250,231.3z M250,227.7c12.3,0,22.2,10,22.2,22.3
		s-10,22.3-22.2,22.3c-12.3,0-22.2-10-22.2-22.3S237.8,227.7,250,227.7z"/>
	<ellipse fill-rule="evenodd" clip-rule="evenodd" fill="#6A246E" cx="250" cy="243.3" rx="1.7" ry="8.3"/>
	<ellipse fill="none" stroke="#6A246E" stroke-width="0.5669" stroke-miterlimit="22.9256" cx="250" cy="243.3" rx="1.7" ry="8.3"/>
	<path fill-rule="evenodd" clip-rule="evenodd" fill="#6A246E" d="M250,251.5c0.4,0.3,3.1-1.1,5.8-3.9c2.7-2.8,4.8-5.6,4-6.2
		c-0.7-0.6-3.4,1.5-6.1,4.3C251,248.5,249.7,251.2,250,251.5z"/>
	<path fill="none" stroke="#6A246E" stroke-width="0.5669" stroke-miterlimit="22.9256" d="M250,251.5c0.4,0.3,3.1-1.1,5.8-3.9
		c2.7-2.8,4.8-5.6,4-6.2c-0.7-0.6-3.4,1.5-6.1,4.3C251,248.5,249.7,251.2,250,251.5z"/>
	<path fill-rule="evenodd" clip-rule="evenodd" fill="#6A246E" d="M234.8,248.3c1,0,1.7,0.8,1.7,1.7c0,1-0.8,1.7-1.7,1.7
		s-1.7-0.8-1.7-1.7C233.1,249,233.9,248.3,234.8,248.3"/>
	<path fill-rule="evenodd" clip-rule="evenodd" fill="#6A246E" d="M265.2,248.3c1,0,1.7,0.8,1.7,1.7c0,1-0.8,1.7-1.7,1.7
		s-1.7-0.8-1.7-1.7C263.5,249,264.3,248.3,265.2,248.3"/>
	<path fill-rule="evenodd" clip-rule="evenodd" fill="#6A246E" d="M250,263.3c1,0,1.7,0.8,1.7,1.7s-0.8,1.7-1.7,1.7
		c-1,0-1.7-0.8-1.7-1.7S249.1,263.3,250,263.3"/>
</g>
</svg>
