<?xml version="1.0" encoding="utf-8"?>
<!-- Generator: Adobe Illustrator 18.0.0, SVG Export Plug-In . SVG Version: 6.00 Build 0)  -->
<!DOCTYPE svg PUBLIC "-//W3C//DTD SVG 1.1//EN" "http://www.w3.org/Graphics/SVG/1.1/DTD/svg11.dtd">
<svg version="1.1" id="Layer_1" xmlns="http://www.w3.org/2000/svg" xmlns:xlink="http://www.w3.org/1999/xlink" x="0px" y="0px"
	 viewBox="0 0 390 115" enable-background="new 0 0 390 115" xml:space="preserve">
<rect x="1" y="58" fill="#E6E7E8" width="1" height="27"/>
<rect x="91" y="1" fill="#E6E7E8" width="1" height="27"/>
<rect x="388" y="1" fill="#E6E7E8" width="1" height="27"/>
<g opacity="0.4">
	<g>
		<line fill="none" stroke="#000000" stroke-miterlimit="10" x1="3.5" y1="73.4" x2="88.5" y2="20.6"/>
		<g>
			<polygon points="5.7,74.3 4.1,73.1 3.7,71.1 1,75 			"/>
		</g>
		<g>
			<polygon points="88.3,22.9 87.9,20.9 86.3,19.7 91,19 			"/>
		</g>
	</g>
</g>
<g opacity="0.4">
	<g>
		<line fill="none" stroke="#000000" stroke-miterlimit="10" x1="96" y1="19.5" x2="384" y2="19.5"/>
		<g>
			<polygon points="97.1,20.9 96.4,19 97.1,17.1 92.7,19 			"/>
		</g>
		<g>
			<polygon points="382.6,20.9 383.4,19 382.6,17.1 387,19 			"/>
		</g>
	</g>
</g>
<g>
	<g>
		<path fill="#939598" d="M13.8,48.7l4,6.5l2.5-1.6l-4-6.5l1-0.6l4,6.5l2.5-1.5l-4-6.5l1-0.6l4.5,7.2l-7.8,4.9l-4.5-7.2L13.8,48.7z"
			/>
		<path fill="#939598" d="M26.8,43.2l0.9-0.6l3.4,5.4l-0.9,0.6l-2.4-3.9l0,5.5l-0.9,0.6l-3.4-5.4l0.9-0.6l2.4,3.9L26.8,43.2z"/>
		<path fill="#939598" d="M35.5,41.6c0.5,0.8,0.7,1.6,0.7,2.3c-0.1,0.7-0.4,1.3-1.1,1.7c-0.7,0.4-1.3,0.5-1.9,0.3l1.6,2.6l-0.9,0.6
			l-4.6-7.4l0.8-0.5l0.4,0.6c0.1-0.7,0.5-1.3,1.1-1.7c0.6-0.4,1.3-0.5,2-0.2C34.3,40.1,34.9,40.6,35.5,41.6L35.5,41.6z M34.5,42
			c-0.4-0.6-0.8-1-1.3-1.2c-0.5-0.2-0.9-0.1-1.4,0.1c-0.6,0.3-0.8,0.9-0.8,1.5l1.6,2.6c0.6,0.3,1.2,0.3,1.7-0.1
			c0.4-0.3,0.7-0.7,0.7-1.2C35.1,43.3,34.9,42.7,34.5,42z"/>
		<path fill="#939598" d="M38.4,35.9l0.9-0.6l3.4,5.4l-0.9,0.6l-2.4-3.9l0,5.5l-0.9,0.6L35,38l0.9-0.6l2.4,3.9L38.4,35.9z"/>
		<path fill="#939598" d="M48.6,37.1l-0.9,0.6l-1.4-2.3l-2.5,1.5l1.4,2.3l-0.9,0.6l-3.4-5.4l0.9-0.6l1.5,2.3l2.5-1.5l-1.5-2.3
			l0.9-0.6L48.6,37.1z"/>
		<path fill="#939598" d="M53.4,34.1c-0.1-0.1-0.3-0.2-0.5-0.5c-0.2,0.7-0.5,1.3-1.1,1.6c-0.5,0.3-1.1,0.5-1.6,0.4
			c-0.5-0.1-0.9-0.4-1.2-0.8c-0.3-0.6-0.4-1.1-0.2-1.7c0.2-0.6,0.7-1.1,1.5-1.6l0.9-0.6l-0.3-0.4c-0.2-0.3-0.5-0.5-0.8-0.6
			c-0.3-0.1-0.7,0-1,0.2c-0.3,0.2-0.6,0.5-0.7,0.8c-0.1,0.3-0.1,0.6,0,0.8l-0.9,0.6c-0.2-0.3-0.2-0.6-0.2-1c0-0.4,0.2-0.7,0.4-1.1
			c0.2-0.3,0.5-0.6,0.9-0.9c0.6-0.4,1.2-0.5,1.7-0.4c0.5,0.1,1,0.4,1.3,0.9l1.5,2.5c0.3,0.5,0.6,0.8,0.9,1.1l0,0.1L53.4,34.1z
			 M51.4,34.3c0.3-0.2,0.5-0.4,0.7-0.7c0.2-0.3,0.2-0.6,0.2-0.9l-0.7-1.1L50.9,32c-1.1,0.7-1.5,1.4-1.1,2c0.2,0.3,0.4,0.5,0.7,0.5
			C50.8,34.6,51.1,34.5,51.4,34.3z"/>
		<path fill="#939598" d="M56.2,28.2c-0.5-0.7-0.8-1.5-1-2.3s-0.3-1.6-0.3-2.4s0.2-1.5,0.5-2l0.6,0.5c-0.3,0.7-0.3,1.5-0.1,2.4
			s0.5,1.9,1.1,2.9l0.3,0.4c0.8,1.3,1.7,2.2,2.8,2.9c0.6,0.4,1.2,0.6,1.8,0.7L62,32c-0.6,0-1.3-0.1-2-0.4
			C58.5,30.9,57.2,29.8,56.2,28.2z"/>
		<path fill="#939598" d="M63.9,25.8l-0.8-5.3l1.1-0.7l3.4,5.4l-0.9,0.6l-2.4-3.9l0.7,5l-0.6,0.4l-4.3-2.9l2.5,4l-0.9,0.6l-3.4-5.4
			l1.2-0.7L63.9,25.8z"/>
		<path fill="#939598" d="M71.5,21.1l-0.8-5.3l1.1-0.7l3.4,5.4L74.3,21l-2.4-3.9l0.7,5l-0.6,0.4l-4.3-2.9l2.5,4l-0.9,0.6l-3.4-5.4
			l1.2-0.7L71.5,21.1z"/>
		<path fill="#939598" d="M77,15.3c0.5,0.7,0.8,1.5,1,2.3c0.2,0.8,0.3,1.6,0.3,2.4c0,0.8-0.2,1.5-0.5,2l-0.5-0.4
			c0.3-0.7,0.3-1.6,0.1-2.6c-0.2-1-0.6-2-1.2-3l-0.1-0.2c-0.4-0.7-0.9-1.3-1.4-1.8c-0.5-0.5-1.1-0.9-1.6-1.2
			c-0.6-0.3-1.1-0.5-1.6-0.6l-0.2-0.7c0.6,0,1.3,0.1,2,0.4c0.7,0.3,1.4,0.8,2.1,1.3C76,13.9,76.5,14.5,77,15.3z"/>
	</g>
</g>
<g>
	<g>
		<path fill="#939598" d="M207.9,14l-1.1,0l0-2.1l-6.1,0l0,2.1l-1.1,0l0-3l0.7,0c0.4-0.4,0.7-1,0.9-1.7c0.2-0.7,0.4-1.5,0.4-2.3
			l0.2-3.6l5.1,0l0,7.6l1.1,0L207.9,14z M201.5,11l4.2,0l0-6.7l-2.9,0l-0.1,2.5c-0.1,1-0.2,1.8-0.4,2.5
			C202.1,10,201.8,10.6,201.5,11z"/>
		<path fill="#939598" d="M208.8,8.7c0-0.6,0.1-1.2,0.4-1.7c0.2-0.5,0.6-0.9,1-1.1c0.4-0.3,0.9-0.4,1.5-0.4c0.9,0,1.6,0.3,2.1,0.9
			c0.5,0.6,0.8,1.4,0.8,2.4v0.1c0,0.6-0.1,1.2-0.4,1.7s-0.6,0.9-1,1.1s-0.9,0.4-1.5,0.4c-0.9,0-1.6-0.3-2.1-0.9
			C209.1,10.6,208.8,9.8,208.8,8.7L208.8,8.7z M209.9,8.9c0,0.7,0.2,1.3,0.5,1.7c0.3,0.4,0.8,0.6,1.3,0.6c0.6,0,1-0.2,1.3-0.6
			c0.3-0.4,0.5-1,0.5-1.8c0-0.7-0.2-1.3-0.5-1.7s-0.8-0.7-1.3-0.7c-0.5,0-1,0.2-1.3,0.6C210.1,7.5,209.9,8.1,209.9,8.9z"/>
		<path fill="#939598" d="M216,12l0-6.3l2.5,0c0.8,0,1.5,0.2,1.9,0.5c0.4,0.3,0.7,0.7,0.7,1.3c0,0.3-0.1,0.6-0.3,0.8
			c-0.2,0.2-0.4,0.4-0.8,0.5c0.4,0.1,0.7,0.3,0.9,0.5s0.3,0.6,0.3,0.9c0,0.6-0.2,1-0.6,1.3c-0.4,0.3-1,0.5-1.8,0.5L216,12z
			 M217.1,9.2l0,1.9l1.8,0c0.5,0,0.8-0.1,1-0.2s0.3-0.4,0.3-0.7c0-0.6-0.5-1-1.4-1L217.1,9.2z M217.1,8.3l1.4,0c1,0,1.5-0.3,1.5-0.9
			c0-0.6-0.5-0.9-1.4-0.9l-1.5,0L217.1,8.3z"/>
		<path fill="#939598" d="M227.8,9.3l-0.8,0l0,2.8l-1.1,0l0-2.8l-0.8,0l-1.8,2.7l-1.4,0l2.3-3.3l-2-3.1l1.3,0l1.6,2.6l0.7,0l0-2.6
			l1.1,0l0,2.6l0.7,0l1.7-2.6l1.3,0l-2.1,3.1l2.3,3.3l-1.4,0L227.8,9.3z"/>
		<path fill="#939598" d="M236.1,5.7l1.1,0l0,6.3l-1.1,0l0-4.6l-2.9,4.6l-1.1,0l0-6.3l1.1,0l0,4.6L236.1,5.7z"/>
		<path fill="#939598" d="M244.1,12.1l-1.1,0l0-2.7l-2.9,0l0,2.7l-1.1,0l0-6.3l1.1,0l0,2.7l2.9,0l0-2.7l1.1,0L244.1,12.1z"/>
		<path fill="#939598" d="M249.7,12.1c-0.1-0.1-0.1-0.3-0.1-0.7c-0.5,0.5-1.1,0.8-1.8,0.8c-0.6,0-1.1-0.2-1.5-0.5
			c-0.4-0.4-0.6-0.8-0.6-1.3c0-0.7,0.3-1.2,0.8-1.5c0.5-0.4,1.2-0.5,2.1-0.5l1.1,0l0-0.5c0-0.4-0.1-0.7-0.3-0.9s-0.6-0.3-1-0.3
			c-0.4,0-0.7,0.1-1,0.3c-0.3,0.2-0.4,0.4-0.4,0.7l-1.1,0c0-0.3,0.1-0.6,0.3-0.9s0.5-0.5,0.9-0.7c0.4-0.2,0.8-0.3,1.3-0.3
			c0.7,0,1.3,0.2,1.7,0.6s0.6,0.9,0.6,1.5l0,2.9c0,0.6,0.1,1,0.2,1.4l0,0.1L249.7,12.1z M247.9,11.3c0.3,0,0.7-0.1,1-0.3
			c0.3-0.2,0.5-0.4,0.7-0.7l0-1.3l-0.8,0c-1.3,0-2,0.4-2,1.2c0,0.3,0.1,0.6,0.3,0.8S247.6,11.3,247.9,11.3z"/>
		<path fill="#939598" d="M255.3,8.7c0-0.9,0.1-1.7,0.4-2.5s0.6-1.5,1.1-2.2s1-1.1,1.5-1.4l0.2,0.7c-0.6,0.4-1,1.1-1.4,2
			c-0.4,0.9-0.6,1.9-0.6,3l0,0.5c0,1.5,0.3,2.8,0.8,3.9c0.3,0.7,0.7,1.2,1.2,1.6l-0.2,0.7c-0.5-0.3-1-0.8-1.5-1.5
			C255.7,12.1,255.3,10.6,255.3,8.7z"/>
		<path fill="#939598" d="M263.1,10.8l2.2-4.9l1.4,0l0,6.3l-1.1,0l0-4.6l-2.1,4.6l-0.8,0l-2.1-4.7l0,4.7l-1.1,0l0-6.3l1.4,0
			L263.1,10.8z"/>
		<path fill="#939598" d="M272,10.8l2.2-4.9l1.4,0l0,6.3l-1.1,0l0-4.6l-2.1,4.6l-0.8,0l-2.1-4.7l0,4.7l-1.1,0l0-6.3l1.4,0L272,10.8z
			"/>
		<path fill="#939598" d="M279.7,8.9c0,0.9-0.1,1.7-0.4,2.5c-0.2,0.8-0.6,1.5-1.1,2.2c-0.5,0.7-1,1.2-1.5,1.4l-0.2-0.7
			c0.6-0.5,1.1-1.2,1.5-2.1c0.4-1,0.6-2,0.6-3.2V8.8c0-0.8-0.1-1.6-0.2-2.3c-0.2-0.7-0.4-1.3-0.7-1.9c-0.3-0.6-0.6-1-1-1.3l0.2-0.7
			c0.5,0.3,1,0.8,1.5,1.4c0.5,0.7,0.8,1.4,1,2.2S279.7,8,279.7,8.9z"/>
	</g>
</g>
<g>
	<g>
		<path fill="#607D8B" d="M298,114H1V84h298L298,114z M2,113h296V85H2V113z"/>
	</g>
	<g>
		<path fill="#607D8B" d="M298,113.9v-30l0.2-0.1l89.1-55.6L389,28v15.2l-0.2,0.1L319,86.9v15.3L298,113.9z M299,84.4v27.7l19-10.4
			V86.4l0.2-0.1L388,42.7V28.9L299,84.4z"/>
	</g>
	<g>
		<polygon fill="#607D8B" points="299,85 1.7,85 1.5,84.2 91.6,28 389,28 389,29 91.9,29 3.7,84 299,84 		"/>
	</g>
</g>
</svg>
