<?xml version="1.0" encoding="utf-8"?>
<!-- Generator: Adobe Illustrator 18.0.0, SVG Export Plug-In . SVG Version: 6.00 Build 0)  -->
<!DOCTYPE svg PUBLIC "-//W3C//DTD SVG 1.1//EN" "http://www.w3.org/Graphics/SVG/1.1/DTD/svg11.dtd">
<svg version="1.1" id="Layer_1" xmlns="http://www.w3.org/2000/svg" xmlns:xlink="http://www.w3.org/1999/xlink" x="0px" y="0px"
	 viewBox="0 0 250 250" enable-background="new 0 0 250 250" xml:space="preserve">
<g>
	<path fill-rule="evenodd" clip-rule="evenodd" fill="#42A5F5" d="M24.6,155.7H12.2c-1.7,0-3.1-1.4-3.1-3.1v-6.8h9.5v-39.4h13.3
		v42.2C31.9,152.4,28.6,155.7,24.6,155.7L24.6,155.7z M30.3,107.9H20.2v39.4h-9.5v5.3c0,0.9,0.7,1.6,1.6,1.6h12.4
		c3.1,0,5.7-2.6,5.7-5.7V107.9L30.3,107.9z"/>
	<path fill="#42A5F5" d="M147.1,154.9c0.1-0.8,0.1-1.7,0.2-2.8l0.1-3.4c0-1.2,0.1-2.2,0.1-3.2l1.4,0l1.5,0c0.4,0,0.8,0,1.1,0.1
		c0.3,0.1,0.5,0.2,0.8,0.4c0.2,0.2,0.4,0.4,0.5,0.7c0.1,0.3,0.2,0.6,0.2,0.9c0,0.6-0.1,1.1-0.4,1.5c-0.3,0.4-0.7,0.8-1.2,1
		c-0.5,0.2-1.1,0.3-1.7,0.3c-0.4,0-0.7,0-1.2-0.1c0-0.1-0.1-0.3-0.1-0.4c0.4,0.1,0.8,0.1,1.2,0.1c0.4,0,0.8,0,1.1-0.1
		c0.4-0.1,0.7-0.2,0.9-0.4c0.3-0.2,0.5-0.5,0.6-0.8c0.1-0.3,0.2-0.6,0.2-1c0-0.2,0-0.5-0.1-0.7c-0.1-0.2-0.2-0.4-0.4-0.5
		c-0.2-0.1-0.3-0.2-0.6-0.3c-0.2-0.1-0.6-0.1-1.1-0.1H149l-0.6,0l-0.4,0c-0.1,1.1-0.1,2.7-0.2,4.7c-0.1,2-0.1,3.2-0.1,3.6l0,0.7
		c-0.1,0-0.2,0-0.3,0C147.3,154.9,147.2,154.9,147.1,154.9L147.1,154.9z M154,154.9c0.1-1,0.1-2.1,0.2-3.4c0-1.3,0.1-2.3,0.1-2.9
		l0-0.6c0.1,0,0.2,0,0.3,0c0.1,0,0.2,0,0.3,0l-0.1,1.3c0.2-0.3,0.3-0.6,0.4-0.7c0.1-0.2,0.3-0.3,0.5-0.4c0.2-0.1,0.4-0.2,0.6-0.2
		c0.2-0.1,0.5-0.1,0.7-0.1c0.2,0,0.4,0,0.6,0.1c0,0.2,0,0.3,0,0.5c-0.3-0.1-0.6-0.1-0.8-0.1c-0.2,0-0.4,0-0.6,0.1
		c-0.2,0.1-0.3,0.1-0.5,0.3c-0.2,0.1-0.3,0.3-0.5,0.5c-0.1,0.2-0.3,0.4-0.3,0.6c-0.1,0.3-0.2,0.6-0.2,1c0,0.6-0.1,1.3-0.1,2
		c0,1,0,1.8,0,2.3c-0.1,0-0.2,0-0.3,0C154.2,154.9,154.1,154.9,154,154.9L154,154.9z M163.8,154.2c0,0.2-0.1,0.3-0.1,0.5
		c-0.4,0.1-0.7,0.2-1,0.2c-0.3,0-0.6,0.1-0.9,0.1c-0.6,0-1-0.1-1.5-0.2c-0.4-0.2-0.8-0.4-1.1-0.7c-0.3-0.3-0.5-0.7-0.7-1.2
		c-0.1-0.4-0.2-0.9-0.2-1.4c0-0.6,0.1-1.2,0.3-1.8c0.2-0.6,0.6-1,1.1-1.4c0.5-0.4,1.1-0.6,1.9-0.6c0.5,0,1,0.1,1.4,0.3
		c0.4,0.2,0.7,0.5,1,0.9c0.2,0.4,0.3,0.9,0.3,1.5c0,0.1,0,0.2,0,0.3l-5.5,0c0,0.3,0,0.5,0,0.7c0,0.4,0.1,0.9,0.2,1.3
		c0.1,0.4,0.3,0.8,0.6,1c0.3,0.3,0.6,0.5,0.9,0.6c0.4,0.1,0.7,0.2,1.2,0.2C162.3,154.6,163,154.5,163.8,154.2L163.8,154.2z
		 M158.9,150.5l4.9,0c0-0.3,0-0.6-0.1-0.7c0-0.2-0.1-0.3-0.2-0.5c-0.1-0.2-0.2-0.3-0.3-0.5c-0.1-0.1-0.3-0.2-0.4-0.3
		c-0.2-0.1-0.3-0.2-0.5-0.2c-0.2,0-0.4-0.1-0.6-0.1c-0.2,0-0.5,0-0.7,0.1c-0.2,0.1-0.4,0.1-0.6,0.2c-0.2,0.1-0.4,0.2-0.5,0.4
		c-0.2,0.1-0.3,0.3-0.4,0.5c-0.1,0.2-0.2,0.3-0.2,0.5C159,150,159,150.2,158.9,150.5L158.9,150.5z M165.6,154.9l0.1-0.9
		c0-0.2,0-0.4,0-0.6l0.2-4.6c0-0.3,0-0.6,0-0.9c0.1,0,0.2,0,0.3,0c0.1,0,0.2,0,0.3,0l-0.1,1.5c0.1-0.3,0.3-0.5,0.4-0.7
		c0.1-0.2,0.3-0.3,0.5-0.5c0.2-0.1,0.4-0.3,0.7-0.3c0.3-0.1,0.6-0.1,0.8-0.1c0.3,0,0.5,0,0.7,0.1c0.2,0.1,0.4,0.1,0.6,0.2
		c0.2,0.1,0.3,0.2,0.4,0.3c0.1,0.1,0.2,0.2,0.2,0.4c0.1,0.1,0.1,0.3,0.2,0.5c0.1-0.2,0.2-0.3,0.3-0.5c0.1-0.1,0.2-0.3,0.3-0.4
		c0.1-0.1,0.3-0.3,0.5-0.4c0.2-0.1,0.4-0.2,0.6-0.2c0.2-0.1,0.5-0.1,0.7-0.1c0.4,0,0.7,0.1,1.1,0.2c0.3,0.1,0.6,0.3,0.8,0.6
		c0.2,0.3,0.3,0.6,0.3,1c0,0.2,0,0.6,0,1c0,0.5-0.1,1.1-0.1,2c0,0.8-0.1,1.6-0.1,2.3c-0.1,0-0.2,0-0.3,0c-0.1,0-0.2,0-0.3,0
		c0-0.6,0.1-1.2,0.1-2l0.1-1.9c0-0.5,0-0.9,0-1.2c0-0.2,0-0.3,0-0.4c0-0.1,0-0.2-0.1-0.3c-0.1-0.1-0.1-0.2-0.2-0.3
		c-0.1-0.1-0.2-0.2-0.3-0.3c-0.1-0.1-0.3-0.1-0.5-0.2c-0.2,0-0.4-0.1-0.6-0.1c-0.3,0-0.6,0-0.8,0.1c-0.3,0.1-0.5,0.2-0.7,0.4
		c-0.2,0.2-0.4,0.4-0.5,0.6c-0.1,0.2-0.2,0.6-0.3,1c-0.1,0.3-0.1,1-0.2,1.9l-0.1,2.8c-0.1,0-0.2,0-0.3,0c-0.1,0-0.2,0-0.3,0
		c0-0.6,0.1-1.3,0.1-1.9l0.1-1.7c0-0.6,0-1,0-1.4c0-0.3,0-0.6-0.1-0.8c-0.1-0.2-0.2-0.3-0.3-0.5c-0.1-0.1-0.3-0.3-0.5-0.3
		c-0.2-0.1-0.5-0.1-0.7-0.1c-0.3,0-0.6,0-0.8,0.1c-0.3,0.1-0.5,0.2-0.7,0.4c-0.2,0.2-0.4,0.4-0.5,0.6c-0.1,0.3-0.3,0.6-0.3,1
		c-0.1,0.4-0.1,1-0.2,1.9c0,1-0.1,1.9-0.1,2.6c-0.1,0-0.2,0-0.3,0C165.8,154.9,165.7,154.9,165.6,154.9L165.6,154.9z M177.7,146.1
		l0-0.7c0.1,0,0.2,0,0.4,0s0.2,0,0.4,0l0,0.7c-0.1,0-0.2,0-0.4,0C177.9,146.1,177.8,146.1,177.7,146.1L177.7,146.1z M177.4,154.9
		c0.1-0.7,0.1-1.9,0.2-3.6c0.1-1.7,0.1-2.8,0.1-3.4c0.1,0,0.2,0,0.3,0c0.1,0,0.2,0,0.3,0c-0.1,0.9-0.1,2.1-0.2,3.6
		c-0.1,1.5-0.1,2.7-0.1,3.4c-0.1,0-0.2,0-0.3,0C177.6,154.9,177.6,154.9,177.4,154.9L177.4,154.9z M186.1,154.9c-0.1,0-0.2,0-0.3,0
		c-0.1,0-0.2,0-0.3,0l0.1-1.5c-0.1,0.2-0.2,0.4-0.3,0.5c-0.1,0.1-0.2,0.2-0.3,0.3c-0.1,0.1-0.2,0.2-0.4,0.3
		c-0.2,0.1-0.3,0.2-0.6,0.3c-0.2,0.1-0.4,0.1-0.7,0.2c-0.2,0-0.5,0-0.7,0c-0.4,0-0.8,0-1.1-0.1c-0.3-0.1-0.6-0.2-0.9-0.5
		c-0.3-0.2-0.4-0.5-0.5-0.8c-0.1-0.3-0.1-0.6-0.1-1c0-0.3,0-1,0.1-2.1c0.1-1.1,0.1-2,0.1-2.7c0.1,0,0.2,0,0.3,0c0.1,0,0.1,0,0.3,0
		c0,0.4-0.1,1.2-0.2,2.5c-0.1,1.3-0.1,2-0.1,2.3c0,0.4,0,0.6,0.1,0.9c0.1,0.2,0.3,0.4,0.5,0.6c0.2,0.2,0.5,0.3,0.8,0.3
		c0.3,0.1,0.6,0.1,0.9,0.1c0.3,0,0.6,0,0.9-0.1c0.3-0.1,0.5-0.2,0.7-0.3c0.2-0.1,0.4-0.3,0.5-0.4c0.2-0.2,0.3-0.4,0.4-0.7
		c0.1-0.2,0.2-0.5,0.2-0.9c0.1-0.3,0.1-1,0.1-1.9c0-0.9,0.1-1.7,0.1-2.4c0.1,0,0.2,0,0.3,0c0.1,0,0.1,0,0.3,0l-0.3,4.8l0,1
		C186.1,154.2,186.1,154.6,186.1,154.9L186.1,154.9z M188,154.9l0.1-0.9c0-0.2,0-0.4,0-0.6l0.2-4.6c0-0.3,0-0.6,0-0.9
		c0.1,0,0.2,0,0.3,0c0.1,0,0.2,0,0.3,0l-0.1,1.5c0.1-0.3,0.3-0.5,0.4-0.7c0.1-0.2,0.3-0.3,0.5-0.5c0.2-0.1,0.4-0.3,0.7-0.3
		c0.3-0.1,0.6-0.1,0.8-0.1c0.3,0,0.5,0,0.7,0.1c0.2,0.1,0.4,0.1,0.6,0.2c0.2,0.1,0.3,0.2,0.4,0.3c0.1,0.1,0.2,0.2,0.2,0.4
		c0.1,0.1,0.1,0.3,0.2,0.5c0.1-0.2,0.2-0.3,0.3-0.5c0.1-0.1,0.2-0.3,0.3-0.4c0.1-0.1,0.3-0.3,0.5-0.4c0.2-0.1,0.4-0.2,0.6-0.2
		c0.2-0.1,0.5-0.1,0.7-0.1c0.4,0,0.7,0.1,1.1,0.2c0.3,0.1,0.6,0.3,0.8,0.6c0.2,0.3,0.3,0.6,0.3,1c0,0.2,0,0.6,0,1
		c0,0.5-0.1,1.1-0.1,2c0,0.8-0.1,1.6-0.1,2.3c-0.1,0-0.2,0-0.3,0c-0.1,0-0.2,0-0.3,0c0-0.6,0.1-1.2,0.1-2l0.1-1.9c0-0.5,0-0.9,0-1.2
		c0-0.2,0-0.3,0-0.4c0-0.1,0-0.2-0.1-0.3c0-0.1-0.1-0.2-0.2-0.3c-0.1-0.1-0.2-0.2-0.3-0.3c-0.1-0.1-0.3-0.1-0.5-0.2
		c-0.2,0-0.4-0.1-0.6-0.1c-0.3,0-0.6,0-0.8,0.1c-0.3,0.1-0.5,0.2-0.7,0.4c-0.2,0.2-0.4,0.4-0.5,0.6c-0.1,0.2-0.2,0.6-0.3,1
		c-0.1,0.3-0.1,1-0.2,1.9l-0.1,2.8c-0.1,0-0.2,0-0.3,0c-0.1,0-0.2,0-0.3,0c0-0.6,0.1-1.3,0.1-1.9l0.1-1.7c0-0.6,0-1,0-1.4
		c0-0.3,0-0.6-0.1-0.8c-0.1-0.2-0.2-0.3-0.3-0.5c-0.1-0.1-0.3-0.3-0.5-0.3c-0.2-0.1-0.5-0.1-0.7-0.1c-0.3,0-0.6,0-0.8,0.1
		c-0.3,0.1-0.5,0.2-0.7,0.4c-0.2,0.2-0.4,0.4-0.5,0.6c-0.1,0.3-0.3,0.6-0.3,1c-0.1,0.4-0.1,1-0.2,1.9c0,1-0.1,1.9-0.1,2.6
		c-0.1,0-0.2,0-0.3,0C188.3,154.9,188.2,154.9,188,154.9L188,154.9z M203.5,154.9c0.1-0.8,0.1-1.7,0.2-2.8l0.1-3.4
		c0-1.2,0.1-2.2,0.1-3.2l1.4,0l1.5,0c0.4,0,0.8,0,1.1,0.1c0.3,0.1,0.5,0.2,0.8,0.4c0.2,0.2,0.4,0.4,0.5,0.7c0.1,0.3,0.2,0.6,0.2,0.9
		c0,0.6-0.1,1.1-0.4,1.5c-0.3,0.4-0.7,0.8-1.2,1c-0.5,0.2-1.1,0.3-1.7,0.3c-0.4,0-0.7,0-1.2-0.1c0-0.1-0.1-0.3-0.1-0.4
		c0.4,0.1,0.8,0.1,1.2,0.1c0.4,0,0.8,0,1.1-0.1c0.4-0.1,0.7-0.2,0.9-0.4c0.3-0.2,0.5-0.5,0.6-0.8c0.1-0.3,0.2-0.6,0.2-1
		c0-0.2,0-0.5-0.1-0.7c-0.1-0.2-0.2-0.4-0.4-0.5c-0.2-0.1-0.3-0.2-0.6-0.3c-0.2-0.1-0.6-0.1-1.1-0.1h-1.2l-0.6,0l-0.4,0
		c-0.1,1.1-0.1,2.7-0.2,4.7c-0.1,2-0.1,3.2-0.1,3.6l0,0.7c-0.1,0-0.2,0-0.3,0C203.7,154.9,203.6,154.9,203.5,154.9L203.5,154.9z
		 M210.4,154.9c0.1-1,0.1-2.1,0.2-3.4c0-1.3,0.1-2.3,0.1-2.9l0-0.6c0.1,0,0.2,0,0.3,0c0.1,0,0.2,0,0.3,0l-0.1,1.3
		c0.2-0.3,0.3-0.6,0.4-0.7c0.1-0.2,0.3-0.3,0.5-0.4c0.2-0.1,0.4-0.2,0.6-0.2c0.2-0.1,0.5-0.1,0.7-0.1c0.2,0,0.4,0,0.6,0.1
		c0,0.2,0,0.3,0,0.5c-0.3-0.1-0.6-0.1-0.8-0.1c-0.2,0-0.4,0-0.6,0.1c-0.2,0.1-0.3,0.1-0.5,0.3c-0.2,0.1-0.3,0.3-0.5,0.5
		c-0.1,0.2-0.3,0.4-0.3,0.6c-0.1,0.3-0.2,0.6-0.2,1c-0.1,0.6-0.1,1.3-0.1,2c0,1,0,1.8,0,2.3c-0.1,0-0.2,0-0.3,0
		C210.6,154.9,210.5,154.9,210.4,154.9L210.4,154.9z M218.1,147.7c0.4,0,0.8,0.1,1.2,0.2c0.4,0.1,0.8,0.3,1.1,0.6
		c0.3,0.3,0.5,0.7,0.7,1.1c0.2,0.5,0.2,1,0.2,1.5c0,0.6-0.1,1.1-0.3,1.6c-0.2,0.5-0.4,1-0.7,1.3c-0.3,0.3-0.7,0.6-1.1,0.7
		c-0.4,0.1-0.9,0.2-1.3,0.2c-0.3,0-0.7,0-1-0.1c-0.3-0.1-0.6-0.2-0.9-0.4c-0.3-0.2-0.5-0.4-0.7-0.7c-0.2-0.3-0.4-0.6-0.5-1
		c-0.1-0.4-0.2-0.8-0.2-1.2c0-0.7,0.1-1.4,0.4-2c0.3-0.6,0.7-1.1,1.2-1.4C216.9,147.9,217.5,147.7,218.1,147.7L218.1,147.7z
		 M218.1,148.1c-0.6,0-1.1,0.1-1.5,0.4c-0.5,0.3-0.8,0.7-1,1.2c-0.2,0.5-0.3,1.2-0.3,1.8c0,0.5,0.1,0.9,0.2,1.3
		c0.1,0.4,0.3,0.7,0.6,1c0.3,0.3,0.6,0.5,0.9,0.6c0.3,0.1,0.7,0.2,1,0.2c0.4,0,0.8-0.1,1.2-0.2c0.4-0.1,0.7-0.4,1-0.7
		c0.3-0.3,0.5-0.7,0.6-1.2c0.1-0.5,0.2-0.9,0.2-1.5c0-0.5-0.1-0.9-0.2-1.3c-0.1-0.4-0.3-0.8-0.6-1c-0.3-0.3-0.6-0.4-0.9-0.5
		C218.8,148.2,218.5,148.1,218.1,148.1L218.1,148.1z M228.9,154.9c-0.1,0-0.2,0-0.3,0c-0.1,0-0.2,0-0.3,0l0.1-1.8
		c-0.1,0.3-0.2,0.5-0.3,0.6c-0.1,0.2-0.2,0.3-0.4,0.5c-0.1,0.1-0.3,0.3-0.5,0.4c-0.2,0.1-0.4,0.2-0.7,0.3c-0.3,0.1-0.6,0.1-0.8,0.1
		c-0.4,0-0.9-0.1-1.3-0.2c-0.4-0.2-0.7-0.4-1-0.7c-0.3-0.3-0.5-0.6-0.6-1c-0.1-0.4-0.2-0.8-0.2-1.2c0-0.6,0.1-1.2,0.3-1.7
		c0.2-0.5,0.5-1,0.9-1.4c0.4-0.4,0.9-0.6,1.4-0.8c0.5-0.2,1.1-0.2,1.7-0.2c0.5,0,1,0,1.6,0.2c0-0.4,0-0.9,0-1.3c0-0.4,0-0.8,0-1.2
		c0.1,0,0.2,0,0.3,0c0.1,0,0.2,0,0.3,0c-0.1,0.9-0.1,1.8-0.1,2.7l-0.1,3.4c0,1.3-0.1,2.1-0.1,2.5V154.9L228.9,154.9z M228.6,148.4
		c-0.3-0.1-0.6-0.2-0.9-0.2c-0.2,0-0.5,0-0.7,0c-0.5,0-1,0.1-1.5,0.2c-0.5,0.1-0.9,0.4-1.2,0.7c-0.3,0.3-0.6,0.8-0.8,1.3
		c-0.2,0.5-0.3,1-0.3,1.5c0,0.5,0.1,1,0.3,1.5c0.2,0.4,0.5,0.8,0.9,1c0.4,0.2,0.8,0.3,1.3,0.3c0.3,0,0.5,0,0.8-0.1
		c0.2-0.1,0.4-0.2,0.6-0.3c0.2-0.1,0.4-0.3,0.5-0.5c0.2-0.2,0.3-0.4,0.4-0.7c0.1-0.3,0.2-0.6,0.3-0.9c0.1-0.3,0.1-0.8,0.1-1.5
		L228.6,148.4L228.6,148.4z M237,154.9c-0.1,0-0.2,0-0.3,0c-0.1,0-0.2,0-0.3,0l0.1-1.5c-0.1,0.2-0.2,0.4-0.3,0.5
		c-0.1,0.1-0.2,0.2-0.3,0.3c-0.1,0.1-0.2,0.2-0.4,0.3c-0.2,0.1-0.3,0.2-0.6,0.3c-0.2,0.1-0.4,0.1-0.7,0.2c-0.2,0-0.5,0-0.7,0
		c-0.4,0-0.8,0-1.1-0.1c-0.3-0.1-0.6-0.2-0.9-0.5c-0.3-0.2-0.4-0.5-0.5-0.8c-0.1-0.3-0.1-0.6-0.1-1c0-0.3,0-1,0.1-2.1
		c0.1-1.1,0.1-2,0.1-2.7c0.1,0,0.2,0,0.3,0c0.1,0,0.1,0,0.3,0c0,0.4-0.1,1.2-0.2,2.5c-0.1,1.3-0.1,2-0.1,2.3c0,0.4,0,0.6,0.1,0.9
		c0.1,0.2,0.3,0.4,0.5,0.6c0.2,0.2,0.5,0.3,0.8,0.3c0.3,0.1,0.6,0.1,0.9,0.1c0.3,0,0.6,0,0.9-0.1c0.3-0.1,0.5-0.2,0.7-0.3
		c0.2-0.1,0.4-0.3,0.5-0.4c0.2-0.2,0.3-0.4,0.4-0.7c0.1-0.2,0.2-0.5,0.2-0.9c0.1-0.3,0.1-1,0.1-1.9c0-0.9,0.1-1.7,0.1-2.4
		c0.1,0,0.2,0,0.3,0c0.1,0,0.1,0,0.3,0l-0.3,4.8l0,1C237,154.2,237,154.6,237,154.9L237,154.9z M243.8,154.3c0,0.2-0.1,0.4-0.1,0.5
		c-0.6,0.1-1.1,0.2-1.6,0.2c-0.5,0-0.9-0.1-1.3-0.2c-0.4-0.1-0.8-0.3-1.1-0.6c-0.3-0.3-0.5-0.7-0.7-1.1c-0.1-0.4-0.2-0.9-0.2-1.4
		c0-0.7,0.1-1.3,0.3-1.9c0.2-0.6,0.6-1.1,1.1-1.4c0.5-0.4,1.2-0.5,2-0.5c0.6,0,1.2,0.1,1.8,0.3c0,0.2,0,0.3,0,0.5
		c-0.5-0.1-0.9-0.2-1.1-0.3c-0.3,0-0.5-0.1-0.7-0.1c-0.5,0-0.9,0.1-1.3,0.3c-0.4,0.2-0.7,0.5-0.9,0.8c-0.2,0.3-0.4,0.7-0.5,1.1
		c-0.1,0.4-0.2,0.8-0.2,1.3c0,0.5,0.1,0.9,0.2,1.3c0.1,0.4,0.3,0.7,0.6,1c0.3,0.2,0.6,0.4,0.9,0.6c0.4,0.1,0.8,0.2,1.2,0.2
		c0.2,0,0.5,0,0.7-0.1C243.1,154.5,243.4,154.4,243.8,154.3L243.8,154.3z M248.3,154.4c0,0.1-0.1,0.3-0.1,0.4
		c-0.4,0.1-0.7,0.1-1,0.1c-0.3,0-0.5,0-0.7-0.1c-0.2-0.1-0.4-0.2-0.5-0.3c-0.1-0.1-0.2-0.3-0.3-0.5c0-0.2-0.1-0.4-0.1-0.6
		c0,0,0-0.1,0-0.2c0-0.1,0-0.3,0-0.5l0.2-4.6h-0.9c0-0.1,0-0.2,0-0.4h0.8c0-0.3,0-0.7,0.1-1.3c0.2,0,0.3-0.1,0.5-0.1
		c0,0.7,0,1.2,0,1.4h2.1c0,0.1,0,0.2,0,0.4h-2.1l-0.2,4.8l0,0.3c0,0.4,0,0.7,0.1,0.8c0.1,0.2,0.2,0.3,0.4,0.4
		c0.2,0.1,0.3,0.1,0.5,0.1c0.1,0,0.3,0,0.4,0C247.7,154.6,247.9,154.5,248.3,154.4L248.3,154.4z"/>
	<path fill="#42A5F5" d="M51.3,136.9h9.1v-14.3c0.6,0.1,1.4,0.1,2.3,0.1c6.3,0,15.3-2.6,15.3-13.7c0-3.7-1.5-7.1-4-9.2
		c-2.7-2.3-6.6-3.2-11.9-3.2c-4.6,0-8.2,0.4-10.8,0.8V136.9L51.3,136.9z M60.3,104.1c0.5-0.2,1.5-0.3,2.7-0.3c3.6,0,5.8,2,5.8,5.7
		c0,3.6-2.3,6.2-6.5,6.2c-0.9,0-1.5-0.1-2.1-0.1V104.1L60.3,104.1z M91.6,95.2h-9.1v41.7h9.1V95.2L91.6,95.2z M120.8,119.8
		c0-6.5-2.4-12.6-12-12.6c-5,0-8.8,1.4-10.7,2.5l1.7,5.9c1.9-1.1,4.5-2,7.2-2c3.7,0,4.7,1.6,4.7,3.8c-8.6,0.1-15.5,3.4-15.5,11.1
		c0,4.9,3.5,9,8.7,9c3,0,5.7-1,7.5-3.4h0.2l0.5,2.8h8.2c-0.4-1.8-0.5-4.3-0.5-6.9V119.8L120.8,119.8z M112,126.9
		c0,2.7-2.1,4.1-3.9,4.1c-1.6,0-3.1-1-3.1-3.4c0-3.4,3.2-4.5,7-4.5V126.9L112,126.9z M144.6,108.8c-1.8-0.8-4.3-1.6-7.3-1.6
		c-6.8,0-11.2,4.1-11.2,9.6c0,3,1.7,6.3,7.3,8.6c2.9,1.2,3.8,1.9,3.8,3.3c0,1.4-1.1,2.2-3.4,2.2c-2.3,0-5.3-1-6.8-1.9l-1.6,6.5
		c1.9,1.1,5.1,1.9,8.4,1.9c7.3,0,11.9-3.5,11.9-9.5c-0.1-3.7-2-6.7-7-8.8c-3.2-1.3-4.1-2.1-4.1-3.3c0-1.3,1-2.2,3.1-2.2
		c2.1,0,4.1,0.8,5.4,1.4L144.6,108.8L144.6,108.8z M151.7,107.8h-3.6v6.6h3.6v12.1c0,3.3,0.2,11,9.1,11c2.4,0,4.5-0.3,5.6-0.7
		l-0.1-7c-0.8,0.2-1.3,0.3-2.4,0.3c-2.2,0-3.3-1.2-3.3-4.7v-11h6.1v-6.6h-6.1v-7.9l-9,2.5V107.8L151.7,107.8z M183.5,107.2
		c-8,0-13.9,5.5-13.9,15.3c0,9.4,5.5,15,13.6,15c6.4,0,13.7-4,13.7-15.3C196.9,113.4,191.9,107.2,183.5,107.2L183.5,107.2z
		 M187.7,122.3c0,4.7-1.4,8.5-4.3,8.5c-3.1,0-4.5-3.7-4.5-8.5c0-4,1.1-8.5,4.5-8.5C186.4,113.8,187.7,118,187.7,122.3L187.7,122.3z
		 M211.1,95.2H202v41.7h9.1V95.2L211.1,95.2z M226.5,99.9c0-2.7-1.9-4.7-4.7-4.7c-2.7,0-4.7,1.9-4.7,4.7c0,2.6,1.9,4.6,4.7,4.6
		C224.5,104.5,226.5,102.6,226.5,99.9L226.5,99.9z M226.4,107.8h-9.1v29.1h9.1V107.8L226.4,107.8z M233.9,107.8h-3.6v6.6h3.6v12.1
		c0,3.3,0.2,11,9.1,11c2.4,0,4.5-0.3,5.6-0.7l-0.1-7c-0.8,0.2-1.3,0.3-2.4,0.3c-2.2,0-3.3-1.2-3.3-4.7v-11h6.1v-6.6h-6.1v-7.9
		l-9,2.5V107.8L233.9,107.8z"/>
	<path fill-rule="evenodd" clip-rule="evenodd" fill="#42A5F5" d="M8.2,92.3h12.4c1.7,0,3.1,1.4,3.1,3.1v6.8h-9.5v39.4H1V99.6
		C1,95.6,4.3,92.3,8.2,92.3L8.2,92.3z M2.6,140.1h10.1v-39.4h9.5v-5.3c0-0.9-0.7-1.6-1.6-1.6H8.2c-3.1,0-5.7,2.6-5.7,5.7V140.1
		L2.6,140.1z"/>
</g>
</svg>
