<?xml version="1.0" encoding="utf-8"?>
<!-- Generator: Adobe Illustrator 18.0.0, SVG Export Plug-In . SVG Version: 6.00 Build 0)  -->
<!DOCTYPE svg PUBLIC "-//W3C//DTD SVG 1.1//EN" "http://www.w3.org/Graphics/SVG/1.1/DTD/svg11.dtd">
<svg version="1.1" id="Layer_1" xmlns="http://www.w3.org/2000/svg" xmlns:xlink="http://www.w3.org/1999/xlink" x="0px" y="0px"
	 viewBox="0 0 64 64" enable-background="new 0 0 64 64" xml:space="preserve">
<path fill="#BAD6F1" d="M32,0C14.3,0,0,14.3,0,32s14.3,32,32,32c17.7,0,32-14.3,32-32S49.7,0,32,0z M26.7,47
	c-7.4,0-13.3-6-13.3-13.3s6-13.3,13.3-13.3c3.6,0,6.6,1.3,8.9,3.5l-3.8,3.8v0c-1.4-1.3-3.2-2-5.2-2c-4.4,0-8,3.7-8,8.1
	c0,4.4,3.6,8.1,8,8.1c4,0,6.7-2.3,7.3-5.4h-7.3v-5.2h12.5c0.2,0.9,0.3,1.8,0.3,2.8C39.5,41.6,34.4,47,26.7,47z M53.3,35.3h-4.2v4.2
	h-3.3v-4.2h-4.2V32h4.2v-4.2h3.3V32h4.2V35.3z"/>
</svg>
