<?xml version="1.0" encoding="utf-8"?>
<!-- Generator: Adobe Illustrator 18.0.0, SVG Export Plug-In . SVG Version: 6.00 Build 0)  -->
<!DOCTYPE svg PUBLIC "-//W3C//DTD SVG 1.1//EN" "http://www.w3.org/Graphics/SVG/1.1/DTD/svg11.dtd">
<svg version="1.1" id="Layer_1" xmlns="http://www.w3.org/2000/svg" xmlns:xlink="http://www.w3.org/1999/xlink" x="0px" y="0px"
	 viewBox="218 218 64 64" enable-background="new 218 218 64 64" xml:space="preserve">
<g>
	<linearGradient id="SVGID_1_" gradientUnits="userSpaceOnUse" x1="244.09" y1="262.8" x2="282.5627" y2="262.8">
		<stop  offset="0" style="stop-color:#000000;stop-opacity:0.45"/>
		<stop  offset="1" style="stop-color:#000000;stop-opacity:0.4"/>
	</linearGradient>
	<path fill="url(#SVGID_1_)" d="M268.8,243.6c-9.6,0-20.3,4.1-25.2,9.5V282c0.9,0,1.9-0.4,2.3-0.9c12-15.4,29-17.4,34.8-26.3
		C284.7,248.7,279.4,243.6,268.8,243.6z"/>
	<g>
		<path fill="#1E88E5" d="M224.4,236.7c0.2,14.6,15.6,18.2,17.5,43.8c0.1,0.8,0.8,1.5,1.7,1.5c0.9,0,1.6-0.6,1.7-1.5
			c1.9-25.7,17.5-29.1,17.5-43.8c0-10.2-8.6-18.7-19.2-18.7C233,218,224.4,226.4,224.4,236.7z"/>
		<linearGradient id="SVGID_2_" gradientUnits="userSpaceOnUse" x1="243.6006" y1="202.8" x2="243.6006" y2="249.2">
			<stop  offset="0" style="stop-color:#FFFFFF;stop-opacity:0.15"/>
			<stop  offset="1" style="stop-color:#FFFFFF;stop-opacity:0"/>
		</linearGradient>
		<path fill="url(#SVGID_2_)" d="M224.4,236.7c0.2,14.6,15.6,18.2,17.5,43.8c0.1,0.8,0.8,1.5,1.7,1.5c0.9,0,1.6-0.6,1.7-1.5
			c1.9-25.7,17.5-29.1,17.5-43.8c0-10.2-8.6-18.7-19.2-18.7C233,218,224.4,226.4,224.4,236.7z"/>
		<path opacity="0.1" fill="none" stroke="#000000" stroke-width="0.5" stroke-miterlimit="10" d="M224.4,236.7
			c0.2,14.6,15.6,18.2,17.5,43.8c0.1,0.8,0.8,1.5,1.7,1.5c0.9,0,1.6-0.6,1.7-1.5c1.9-25.7,17.5-29.1,17.5-43.8
			c0-10.2-8.6-18.7-19.2-18.7C233,218,224.4,226.4,224.4,236.7z"/>
	</g>
	<g>
		<path fill="#1565C0" d="M243.6,245.2c-4.4,0-8-3.6-8-8s3.6-8,8-8c4.4,0,8,3.6,8,8S248,245.2,243.6,245.2z"/>
		<path opacity="0.1" fill="none" stroke="#000000" stroke-width="0.5" stroke-miterlimit="10" d="M243.6,245.2c-4.4,0-8-3.6-8-8
			s3.6-8,8-8c4.4,0,8,3.6,8,8S248,245.2,243.6,245.2z"/>
	</g>
</g>
</svg>
