<?xml version="1.0" encoding="utf-8"?>
<!-- Generator: Adobe Illustrator 18.0.0, SVG Export Plug-In . SVG Version: 6.00 Build 0)  -->
<!DOCTYPE svg PUBLIC "-//W3C//DTD SVG 1.1//EN" "http://www.w3.org/Graphics/SVG/1.1/DTD/svg11.dtd">
<svg version="1.1" id="Layer_1" xmlns="http://www.w3.org/2000/svg" xmlns:xlink="http://www.w3.org/1999/xlink" x="0px" y="0px"
	 viewBox="0 0 64 64" enable-background="new 0 0 64 64" xml:space="preserve">
<path fill="#656D72" d="M58.7,0.3L0.3,58.7c0.3,1.2,1,2.3,1.8,3.2c0.9,0.9,2,1.5,3.2,1.8L63.7,5.3C63.1,2.8,61.2,0.9,58.7,0.3z
	 M31.6,0L0,31.6v10.1L41.6,0H31.6z M7.1,0C3.2,0,0,3.2,0,7.1v7.1L14.2,0H7.1z M56.9,64c2,0,3.7-0.8,5-2.1c1.3-1.3,2.1-3.1,2.1-5
	v-7.1L49.8,64H56.9z M22.4,64h10.1L64,32.4V22.4L22.4,64z"/>
</svg>
