<?xml version="1.0" encoding="utf-8"?>
<!-- Generator: Adobe Illustrator 18.0.0, SVG Export Plug-In . SVG Version: 6.00 Build 0)  -->
<!DOCTYPE svg PUBLIC "-//W3C//DTD SVG 1.1//EN" "http://www.w3.org/Graphics/SVG/1.1/DTD/svg11.dtd">
<svg version="1.1" id="Layer_1" xmlns="http://www.w3.org/2000/svg" xmlns:xlink="http://www.w3.org/1999/xlink" x="0px" y="0px"
	 viewBox="0 0 64 64" enable-background="new 0 0 64 64" xml:space="preserve">
<g>
	<g>
		<path fill="#ECEFF1" d="M0,13.3c0.1-0.3,0.2-0.5,0.2-0.8C0.9,9.9,3.1,8.1,5.8,8c4.4-0.1,8.9,0,13.3,0c12.1,0,24.2,0,36.3,0
			c3.1,0,5.5,2.2,6.1,4.7c0,0.2,0.1,0.5,0.1,0.7c0,2.5,0,5,0,7.5c-1,0-2,0-3.1,0c0-0.3,0-0.5,0-0.8c0-1.4,0.1-2.8-0.2-4.1
			c-0.5-2.8-3-4.7-5.9-4.7c-6.9,0-13.7,0-20.6,0c-7.4,0-14.8,0-22.2,0c-2.8,0-5.1,1.5-5.9,4.1c-0.2,0.6-0.3,1.3-0.3,2
			c0,9.6,0,19.2,0,28.8c0,3.1,1.9,5.4,4.9,6c0.4,0.1,0.9,0.1,1.3,0.1c14.2,0,28.3,0,42.5,0c1.6,0,3.1-0.4,4.3-1.5
			c1.4-1.3,2.1-2.9,2.1-4.8c0-1.1,0-2.2,0-3.4c1.1,0,2.1,0,3.1,0c0,0.1,0.1,0.1,0.1,0.1c0,2.5,0.1,5.1-0.1,7.6
			c-0.2,2.7-2.7,5-5.4,5.1c-3.9,0.1-7.9,0-11.8,0c-12.5,0-24.9,0-37.4,0C5,55.6,3.4,55.3,2,54c-1-0.9-1.6-2-1.9-3.3
			c0-0.1-0.1-0.3-0.1-0.4C0,38,0,25.6,0,13.3z"/>
		<path fill="#ECEFF1" d="M56.9,42.7c0,1.5,0.1,3,0,4.4c-0.2,2.2-2.2,3.8-4.6,3.8c-9.6,0-19.2,0-28.8,0c-4.7,0-9.4,0-14.1,0
			c-2.7,0-4.7-1.9-4.7-4.6c0-9.6,0-19.2,0-28.8c0-2.9,1.9-4.7,4.8-4.8c14.2,0,28.4,0,42.6,0c2.8,0,4.7,1.9,4.7,4.7
			c0,1.2,0,2.3,0,3.6c-0.3,0-0.5,0-0.8,0c-2.4,0-4.7,0-7.1,0c-5.4-0.1-8.8,3.4-9.7,8.2c-0.6,2.8-0.3,5.6,1,8.2
			c1.6,3.3,4.3,5.2,8,5.3c2.6,0.1,5.1,0,7.7,0C56.3,42.7,56.6,42.7,56.9,42.7z"/>
		<path fill="#ECEFF1" d="M64,23.5c0,5.5,0,11.1,0,16.6c-0.1,0-0.3,0.1-0.4,0.1c-5.1,0-10.1,0-15.2,0c-2.3,0-4.1-1.1-5.3-3
			c-2-3.5-2-7.1,0-10.6c1.2-2.1,3.1-3,5.5-3c4.9,0,9.9,0,14.8,0C63.7,23.4,63.8,23.5,64,23.5z M50.6,31.8c0-1.4-1.1-2.6-2.5-2.6
			c-1.4,0-2.5,1.1-2.5,2.5c0,1.4,1.1,2.6,2.5,2.6C49.4,34.3,50.5,33.2,50.6,31.8z"/>
	</g>
</g>
</svg>
