<?xml version="1.0" encoding="utf-8"?>
<!-- Generator: Adobe Illustrator 18.0.0, SVG Export Plug-In . SVG Version: 6.00 Build 0)  -->
<!DOCTYPE svg PUBLIC "-//W3C//DTD SVG 1.1//EN" "http://www.w3.org/Graphics/SVG/1.1/DTD/svg11.dtd">
<svg version="1.1" id="Layer_1" xmlns="http://www.w3.org/2000/svg" xmlns:xlink="http://www.w3.org/1999/xlink" x="0px" y="0px"
	 viewBox="0 0 64 64" enable-background="new 0 0 64 64" xml:space="preserve">
<path d="M33.4,28.1c-8.1-2.1-10.7-4.3-10.7-7.6c0-3.9,3.6-6.6,9.6-6.6c6.3,0,8.7,3,8.9,7.5h7.9c-0.2-6.1-4-11.7-11.4-13.5V0H27v7.7
	c-6.9,1.5-12.4,6-12.4,12.8c0,8.2,6.8,12.3,16.7,14.7c8.9,2.1,10.7,5.3,10.7,8.6c0,2.5-1.7,6.4-9.6,6.4c-7.3,0-10.2-3.3-10.7-7.5
	h-7.8c0.4,7.8,6.3,12.2,13.1,13.6V64h10.7v-7.6c6.9-1.2,12.4-5.3,12.4-12.6C50.1,33.6,41.5,30.2,33.4,28.1z"/>
</svg>
