<?xml version="1.0" encoding="utf-8"?>
<!-- Generator: Adobe Illustrator 18.0.0, SVG Export Plug-In . SVG Version: 6.00 Build 0)  -->
<!DOCTYPE svg PUBLIC "-//W3C//DTD SVG 1.1//EN" "http://www.w3.org/Graphics/SVG/1.1/DTD/svg11.dtd">
<svg version="1.1" id="Layer_1" xmlns="http://www.w3.org/2000/svg" xmlns:xlink="http://www.w3.org/1999/xlink" x="0px" y="0px"
	 viewBox="0 0 64 64" enable-background="new 0 0 64 64" xml:space="preserve">
<path fill="#ECEFF1" d="M64,29.2c0-3.2-2.6-5.8-5.8-5.8H39.8l2.8-13.3c0.1-0.3,0.1-0.6,0.1-0.9c0-1.2-0.5-2.3-1.3-3.1L38.3,3
	L19.2,22.1c-1.1,1.1-1.7,2.5-1.7,4.1v29.1c0,3.2,2.6,5.8,5.8,5.8h26.2c2.4,0,4.5-1.5,5.4-3.5l8.8-20.5c0.3-0.7,0.4-1.4,0.4-2.1v-5.6
	V29.2 M0,61.2h11.6V26.3H0V61.2z"/>
</svg>
