<?xml version="1.0" encoding="utf-8"?>
<!-- Generator: Adobe Illustrator 18.0.0, SVG Export Plug-In . SVG Version: 6.00 Build 0)  -->
<!DOCTYPE svg PUBLIC "-//W3C//DTD SVG 1.1//EN" "http://www.w3.org/Graphics/SVG/1.1/DTD/svg11.dtd">
<svg version="1.1" id="Layer_1" xmlns="http://www.w3.org/2000/svg" xmlns:xlink="http://www.w3.org/1999/xlink" x="0px" y="0px"
	 viewBox="210 210 80 80" enable-background="new 210 210 80 80" xml:space="preserve">
<g>
	<polygon fill="#A7599E" points="288.2,250 250,288.1 211.9,250 250,211.9 	"/>
	<path fill="#6A246E" d="M213.8,250L213.8,250l36.2,36.2l36.2-36.2L250,213.8L213.8,250z M250,290l-40-40l40-40l40,40L250,290z"/>
	<path fill="#FFFFFF" d="M238.2,241.6L238.2,241.6v7h1.5c2.3,0,4.2-0.9,4.2-3.6c0-2.6-1.9-3.5-4.3-3.5H238.2z M238.2,253.6v8.9h-7
		v-25.8h9.5c6.7,0,10.3,2.7,10.3,8.5c0,5.3-3.8,8.4-10.1,8.4H238.2z"/>
	<path fill="#FFFFFF" d="M263.6,248.3L263.6,248.3c-1.9,0-3.1,1-4.1,2v5.7c1,0.9,2.5,1.9,4.1,1.9c2.4,0,4.2-2,4.2-5
		C267.8,250.4,266.1,248.3,263.6,248.3 M265.2,263c-3,0-5.2-1.7-6.2-3.1h-0.1v2.6h-6.3v-25.8h6.8v9.3h0.1c1.2-1.7,3.4-2.8,6-2.8
		c5.8,0,9.2,4.5,9.2,9.5C274.8,258.3,271.4,263,265.2,263z"/>
	<polygon fill="#6A246E" points="232.4,270.8 229.5,267.9 267.7,229.8 270.5,232.7 	"/>
</g>
</svg>
