<?xml version="1.0" encoding="utf-8"?>
<!-- Generator: Adobe Illustrator 18.0.0, SVG Export Plug-In . SVG Version: 6.00 Build 0)  -->
<!DOCTYPE svg PUBLIC "-//W3C//DTD SVG 1.1//EN" "http://www.w3.org/Graphics/SVG/1.1/DTD/svg11.dtd">
<svg version="1.1" id="Layer_1" xmlns="http://www.w3.org/2000/svg" xmlns:xlink="http://www.w3.org/1999/xlink" x="0px" y="0px"
	 viewBox="0 0 250 250" enable-background="new 0 0 250 250" xml:space="preserve">
<g>
	<path fill="#42A5F5" d="M70.7,83.3l2.1,25.2h-2.1c-2-6.2-4.7-11-8.1-14.2c-4.8-4.6-10.9-6.9-18.3-6.9c-10.2,0-17.9,4-23.2,12.1
		c-4.4,6.8-6.6,14.9-6.6,24.2c0,7.6,1.5,14.5,4.4,20.8c1.3,2.8,2.8,5.3,4.6,7.5c1.8,2.2,3.8,4.1,6.1,5.7c2.2,1.6,4.7,2.8,7.3,3.6
		c2.6,0.9,5.4,1.3,8.3,1.3c2.9,0,5.8-0.4,8.5-1.1c2.7-0.7,5.4-1.8,8-3.3v-23.1c0-2-0.1-3.7-0.2-4.9c-0.2-1.2-0.4-2.2-0.7-3
		c-0.3-0.7-0.7-1.3-1.2-1.7c-0.5-0.4-1-0.7-1.7-1.1c-1.3-0.7-3.5-1-6.7-1v-2.2h30.9v2.2h-1.5c-1.3,0-2.5,0.1-3.4,0.4
		c-0.9,0.3-1.7,0.9-2.3,1.7c-0.6,0.8-1,2-1.3,3.5c-0.3,1.5-0.4,3.5-0.4,6v24.4c-2.4,1.3-4.6,2.3-6.8,3.2c-2.2,0.9-4.4,1.6-6.7,2.2
		c-2.3,0.6-4.6,1-6.9,1.3c-2.4,0.3-4.9,0.4-7.6,0.4c-15.4,0-27.1-4.9-35.1-14.8c-6-7.4-9-16-9-25.6c0-2.7,0.3-5.4,0.8-8.1
		c0.5-2.7,1.3-5.4,2.4-8c1-2.6,2.3-5.1,3.8-7.4c1.5-2.4,3.2-4.6,5-6.6c3.9-4.4,8.4-7.6,13.4-9.7c5-2.1,10.7-3.1,16.9-3.1
		c1.8,0,3.5,0.1,4.8,0.2c1.4,0.1,2.7,0.4,4,0.6c1.3,0.3,2.7,0.7,4.1,1.2c1.4,0.5,3.1,1.1,5.1,1.8c2.2,0.8,3.6,1.2,4.4,1.2
		c0.7,0,1.4-0.3,1.9-1c0.5-0.7,0.9-2,1-4H70.7z"/>
	<path fill="#42A5F5" d="M118.1,157.1c-5.5,4.3-9,6.8-10.4,7.4c-2.1,1-4.3,1.5-6.8,1.5c-1.8,0-3.5-0.3-5.1-1
		c-1.6-0.7-2.9-1.6-4.1-2.8c-1.1-1.2-2-2.7-2.7-4.4c-0.6-1.7-1-3.6-1-5.7c0-1.5,0.2-2.9,0.6-4.2c0.4-1.3,1-2.5,1.9-3.7
		c0.8-1.2,1.9-2.3,3.1-3.3c1.3-1.1,2.8-2.1,4.5-3.1c4-2.4,10.7-5.3,19.9-8.6v-2.1c0-2.7-0.2-5-0.7-6.8c-0.5-1.8-1.1-3.2-1.9-4.3
		c-0.8-1.1-1.9-1.8-3.1-2.3c-1.3-0.5-2.7-0.7-4.2-0.7c-1.3,0-2.4,0.2-3.4,0.6c-1,0.4-1.9,0.9-2.6,1.5c-0.7,0.6-1.2,1.3-1.6,2.1
		c-0.4,0.8-0.6,1.6-0.6,2.4l0.1,3.4c0,1.8-0.5,3.2-1.4,4.2c-0.9,1-2.1,1.5-3.6,1.5c-1.5,0-2.6-0.5-3.6-1.5c-0.9-1-1.4-2.4-1.4-4.2
		c0-1.6,0.4-3.3,1.3-4.9c0.9-1.6,2.2-3.1,3.8-4.4c1.7-1.3,3.7-2.3,6.2-3.1c2.5-0.8,5.2-1.2,8.4-1.2c4.2,0,7.7,0.6,10.6,1.8
		c2.9,1.2,5,3.3,6.3,6.3c0.7,1.7,1.1,5.2,1.1,10.4v18.3c0,2.6,0,4.7,0.1,6.2c0.1,1.6,0.1,2.6,0.2,3.2c0.2,1.1,0.5,1.9,1,2.3
		c0.5,0.4,1,0.6,1.6,0.6c0.4,0,0.8-0.1,1.1-0.2c0.4-0.1,0.8-0.4,1.2-0.7c0.5-0.4,1-0.8,1.6-1.4c0.6-0.6,1.4-1.4,2.4-2.4v3.3
		c-4.4,5.9-8.6,8.8-12.6,8.8c-1.9,0-3.4-0.7-4.6-2C118.6,162.6,118.1,160.3,118.1,157.1z M118.1,153.3v-20.5c-3,1.2-5.4,2.2-7.3,3
		c-1.9,0.8-3.3,1.5-4.1,2c-3.1,1.8-5.3,3.6-6.6,5.4c-1.3,1.9-2,3.9-2,6.1c0,1.4,0.2,2.7,0.7,3.9c0.5,1.2,1.1,2.2,1.8,3.1
		c0.8,0.9,1.7,1.6,2.7,2.1c1,0.5,2.1,0.7,3.2,0.7C109.3,159.2,113.2,157.2,118.1,153.3z"/>
	<path fill="#42A5F5" d="M156.7,120.8c6.3-7.6,12.3-11.4,18.1-11.4c2,0,3.8,0.3,5.5,1c1.7,0.7,3.2,1.8,4.4,3.4
		c1.3,1.6,2.2,3.6,2.9,6.2c0.7,2.6,1.1,5.8,1.1,9.7v23c0,2.3,0.1,4.1,0.4,5.5c0.3,1.3,0.7,2.3,1.3,3c0.6,0.7,1.5,1.1,2.5,1.3
		c1.1,0.2,2.4,0.3,4,0.3v2.1h-26.6v-2.1h1.1c1.8,0,3.1-0.2,4.1-0.5c1-0.3,1.8-0.9,2.3-1.6c0.5-0.8,0.8-1.8,1-3.1
		c0.1-1.3,0.2-2.9,0.2-4.9v-22.1c0-4.9-0.6-8.5-1.9-10.7c-1.3-2.2-3.4-3.3-6.4-3.3c-4.7,0-9.3,2.5-13.9,7.6v28.4
		c0,3.6,0.2,5.8,0.6,6.8c0.3,0.6,0.6,1.1,0.9,1.5c0.3,0.4,0.8,0.8,1.4,1c0.6,0.3,1.3,0.4,2.2,0.6c0.9,0.1,2.1,0.2,3.6,0.2v2.1h-26.6
		v-2.1h1.2c1.4,0,2.6-0.2,3.5-0.5c0.9-0.3,1.6-0.9,2.1-1.6c0.5-0.8,0.9-1.8,1.1-3.1c0.2-1.3,0.3-2.9,0.3-4.9v-20
		c0-6.4-0.2-10.3-0.5-11.8c-0.3-1.4-0.7-2.4-1.3-2.9c-0.6-0.5-1.4-0.8-2.4-0.8c-1.1,0-2.4,0.3-3.9,0.9l-0.9-2.1l16.2-6.6h2.5V120.8z
		"/>
	<path fill="#42A5F5" d="M248.1,148.4v16.5h-48.2v-2.1l35.8-47.6H218c-2,0-3.5,0.1-4.7,0.2c-1.2,0.1-2.1,0.3-2.8,0.6
		c-0.7,0.3-1.3,0.6-1.7,1.1c-0.4,0.5-0.8,1-1.2,1.7c-1,1.9-1.6,4.3-1.8,7.3h-2.4V111H249v2.2l-36.1,47.8h19.6c2.1,0,3.8-0.1,5.2-0.2
		c1.3-0.2,2.4-0.4,3.3-0.8c0.9-0.4,1.5-0.9,2-1.4c0.5-0.6,1-1.3,1.4-2.2c0.6-1.2,1.2-3.9,1.6-7.9H248.1z"/>
</g>
</svg>
