<?xml version="1.0" encoding="utf-8"?>
<!-- Generator: Adobe Illustrator 18.0.0, SVG Export Plug-In . SVG Version: 6.00 Build 0)  -->
<!DOCTYPE svg PUBLIC "-//W3C//DTD SVG 1.1//EN" "http://www.w3.org/Graphics/SVG/1.1/DTD/svg11.dtd">
<svg version="1.1" id="Layer_1" xmlns="http://www.w3.org/2000/svg" xmlns:xlink="http://www.w3.org/1999/xlink" x="0px" y="0px"
	 viewBox="0 500 64 64" enable-background="new 0 500 64 64" xml:space="preserve">
<path fill="#607D8B" d="M51.2,545.2c-2.4,0-4.6,1-6.3,2.5L22,534.4c0.2-0.7,0.3-1.5,0.3-2.2s-0.1-1.5-0.3-2.2l22.7-13.2
	c1.7,1.6,4,2.6,6.6,2.6c5.3,0,9.6-4.3,9.6-9.6c0-5.3-4.3-9.6-9.6-9.6c-5.3,0-9.6,4.3-9.6,9.6c0,0.8,0.1,1.5,0.3,2.2l-22.7,13.2
	c-1.7-1.6-4-2.6-6.6-2.6c-5.3,0-9.6,4.3-9.6,9.6c0,5.3,4.3,9.6,9.6,9.6c2.5,0,4.8-1,6.6-2.6l22.9,13.4c-0.2,0.7-0.3,1.4-0.3,2.1
	c0,5.2,4.2,9.4,9.4,9.4c5.2,0,9.4-4.2,9.4-9.4C60.6,549.4,56.4,545.2,51.2,545.2z"/>
</svg>
