<?xml version="1.0" encoding="utf-8"?>
<!-- Generator: Adobe Illustrator 18.0.0, SVG Export Plug-In . SVG Version: 6.00 Build 0)  -->
<!DOCTYPE svg PUBLIC "-//W3C//DTD SVG 1.1//EN" "http://www.w3.org/Graphics/SVG/1.1/DTD/svg11.dtd">
<svg version="1.1" id="Layer_1" xmlns="http://www.w3.org/2000/svg" xmlns:xlink="http://www.w3.org/1999/xlink" x="0px" y="0px"
	 viewBox="218 218 64 64" enable-background="new 218 218 64 64" xml:space="preserve">
<path fill="#607D8B" d="M272.2,224.4h-13.4c-1.3-3.7-4.9-6.4-9-6.4s-7.7,2.7-9,6.4h-13.4c-3.5,0-6.4,2.9-6.4,6.4v44.8
	c0,3.5,2.9,6.4,6.4,6.4h44.8c3.5,0,6.4-2.9,6.4-6.4v-44.8C278.6,227.3,275.7,224.4,272.2,224.4z M249.8,224.4c1.8,0,3.2,1.4,3.2,3.2
	c0,1.8-1.4,3.2-3.2,3.2c-1.8,0-3.2-1.4-3.2-3.2C246.6,225.8,248,224.4,249.8,224.4z M256.2,269.2h-22.4v-6.4h22.4V269.2z
	 M265.8,256.4h-32V250h32V256.4z M265.8,243.6h-32v-6.4h32V243.6z"/>
</svg>
