<?xml version="1.0" encoding="utf-8"?>
<!-- Generator: Adobe Illustrator 18.0.0, SVG Export Plug-In . SVG Version: 6.00 Build 0)  -->
<!DOCTYPE svg PUBLIC "-//W3C//DTD SVG 1.1//EN" "http://www.w3.org/Graphics/SVG/1.1/DTD/svg11.dtd">
<svg version="1.1" id="Layer_1" xmlns="http://www.w3.org/2000/svg" xmlns:xlink="http://www.w3.org/1999/xlink" x="0px" y="0px"
	 viewBox="0 0 64 64" enable-background="new 0 0 64 64" xml:space="preserve">
<path fill="#ECEFF1" d="M19.2,51.2c-3.5,0-6.4,2.9-6.4,6.4c0,3.5,2.9,6.4,6.4,6.4s6.4-2.9,6.4-6.4C25.6,54.1,22.7,51.2,19.2,51.2z
	 M0,0v6.4h6.4l11.5,24.3l-4.3,7.8c-0.5,0.9-0.8,2-0.8,3.1c0,3.5,2.9,6.4,6.4,6.4h38.4v-6.4H20.5c-0.5,0-0.8-0.4-0.8-0.8l0.1-0.4
	l2.9-5.2h23.8c2.4,0,4.5-1.3,5.6-3.3l11.5-20.8c0.3-0.4,0.4-1,0.4-1.5c0-1.8-1.4-3.2-3.2-3.2H13.5l-3-6.4H0z M51.2,51.2
	c-3.5,0-6.4,2.9-6.4,6.4c0,3.5,2.9,6.4,6.4,6.4c3.5,0,6.4-2.9,6.4-6.4C57.6,54.1,54.7,51.2,51.2,51.2z"/>
</svg>
