<?xml version="1.0" encoding="utf-8"?>
<!-- Generator: Adobe Illustrator 18.0.0, SVG Export Plug-In . SVG Version: 6.00 Build 0)  -->
<!DOCTYPE svg PUBLIC "-//W3C//DTD SVG 1.1//EN" "http://www.w3.org/Graphics/SVG/1.1/DTD/svg11.dtd">
<svg version="1.1" id="Layer_1" xmlns="http://www.w3.org/2000/svg" xmlns:xlink="http://www.w3.org/1999/xlink" x="0px" y="0px"
	 viewBox="210 210 80 80" enable-background="new 210 210 80 80" xml:space="preserve">
<g>
	<polygon fill="#A7599E" points="288.2,250 250,288.1 211.9,250 250,211.9 	"/>
	<path fill="#6A246E" d="M213.8,250L213.8,250l36.2,36.2l36.2-36.2L250,213.8L213.8,250z M250,290l-40-40l40-40l40,40L250,290z"/>
	<path fill-rule="evenodd" clip-rule="evenodd" fill="#A5599E" d="M243.9,262.2c0.3,1.2,0.7,1.6,0.7,3v2.3c1.7-0.4,8.2-4.4,10.4-5.5
		c1.6-0.8,9.5-4.6,9.5-6.1v-3c0-1.1-0.2-1.1-0.7-1.7C263.3,252.7,246.5,259.4,243.9,262.2"/>
	<path fill="#FFFFFF" d="M269.4,264.5c0.7-0.1,1.3-0.8,1.3-1.5v-1.6c0-0.7-0.5-1.7-1.1-2.1L254.4,249c-0.6-0.4-1.7-0.7-2.5-0.7
		l-32,2.2c-0.7,0.1-0.9,0.5-0.3,0.9l15.8,12c0.6,0.5,1.1,1.4,1.1,2.2v1.6c0,0.7,0.6,1.3,1.3,1.2L269.4,264.5z"/>
	<path fill="#6A246E" d="M220,251.1L220,251.1C220,251.1,220,251.1,220,251.1l15.8,12c0.7,0.5,1.3,1.7,1.3,2.6v1.6
		c0,0.4,0.3,0.7,0.8,0.7l31.5-4c0.5-0.1,0.9-0.5,0.9-1v-1.6c0-0.6-0.4-1.4-0.9-1.7l-15.2-10.2c-0.5-0.4-1.5-0.6-2.2-0.6L220,251.1
		L220,251.1z M237.7,269c-0.9,0-1.7-0.8-1.7-1.7v-1.6c0-0.6-0.4-1.4-0.9-1.8l-15.8-12c-0.6-0.5-0.6-0.9-0.5-1.2
		c0.1-0.2,0.3-0.6,1.1-0.7l32-2.2c0.9-0.1,2.1,0.3,2.8,0.7l15.2,10.2c0.8,0.5,1.4,1.6,1.4,2.5v1.6c0,1-0.8,1.9-1.8,2l-31.5,4
		C237.9,269,237.8,269,237.7,269z"/>
	<polygon fill="#A5599E" points="270.8,260 236.2,264 236.6,264.3 236.6,268.6 270.8,264.3 	"/>
	<path fill-rule="evenodd" clip-rule="evenodd" fill="#6A246E" d="M247.2,249.8c-1.6,0.6-2.4,2.7-1.6,4c0.8,1.3,2.7,2,4.4,0.6
		c1.7-1.4,2.5-2.6,2.5-2.6l-1.6-2.7C250.8,249.2,248.8,249.3,247.2,249.8"/>
	<path fill-rule="evenodd" clip-rule="evenodd" fill="#FFFFFF" d="M250.5,249.5c0.3,0.5,0.6,0.6,0.9,1c0.2,0.3,0.4,0.8,0.6,1.3
		l18-10.2c0,0,0.6-1,0.1-1.7s-1.7-0.5-1.7-0.5L250.5,249.5z"/>
	<path fill="none" stroke="#6A246E" stroke-width="1.4173" stroke-miterlimit="22.9256" d="M250.5,249.5c0.3,0.5,0.6,0.6,0.9,1
		c0.2,0.3,0.4,0.8,0.6,1.3l18-10.2c0,0,0.6-1,0.1-1.7s-1.7-0.5-1.7-0.5L250.5,249.5z"/>
	<path fill-rule="evenodd" clip-rule="evenodd" fill="#6A246E" d="M248.8,246.3c0,0,4-3.8,3.9-7.3c0-3.5-1.2-5.1-3.5-8
		c-2.4-2.8-2.3-7.2-2.3-7.2s-8.7,4.7-8.9,16.9c-0.2,12.3,5.9,15.3,5.9,15.3s-2.2-4.4-2.6-9.8c-0.4-5.5,2.4-7.7,2.4-7.7
		s0.2,1.1,0.5,2.3c0.3,1.3,1.7,2.1,1.7,2.1s1.2-1.4,1.5-3.1c0.3-1.7,0.2-5.2,0.2-5.2s2.2,3.4,2.6,6.1
		C250.6,243.3,248.8,246.3,248.8,246.3"/>
</g>
</svg>
