<?xml version="1.0" encoding="utf-8"?>
<!-- Generator: Adobe Illustrator 18.0.0, SVG Export Plug-In . SVG Version: 6.00 Build 0)  -->
<!DOCTYPE svg PUBLIC "-//W3C//DTD SVG 1.1//EN" "http://www.w3.org/Graphics/SVG/1.1/DTD/svg11.dtd">
<svg version="1.1" id="Layer_1" xmlns="http://www.w3.org/2000/svg" xmlns:xlink="http://www.w3.org/1999/xlink" x="0px" y="0px"
	 viewBox="0 64 122 47" enable-background="new 0 64 122 47" xml:space="preserve">
<g>
	<path fill="#42A5F5" d="M12.7,96l-4.1,9.6c-0.3,0.6-0.1,1,0.4,1.3c0.6,0.3,1.6,0.5,3.1,0.7l-0.2,1.2H1l0.2-1.2
		c1.2-0.2,2.2-0.5,2.9-0.7c0.7-0.3,1.2-0.7,1.5-1.2l14-32.2c0.2-0.2,0.5-0.5,0.9-0.7c0.3-0.2,0.7-0.5,1.1-0.7
		c0.4-0.2,0.7-0.4,1.1-0.6c0.3-0.2,0.6-0.4,0.9-0.5l6.2,34.8c0,0.3,0.1,0.5,0.2,0.7c0.1,0.2,0.3,0.4,0.5,0.5
		c0.2,0.2,0.5,0.3,0.9,0.4c0.4,0.1,0.9,0.2,1.5,0.3l-0.1,1.2H21.7l0.1-1.2c1.4-0.1,2.3-0.3,2.9-0.6c0.6-0.3,0.8-0.8,0.7-1.4L23.8,96
		H12.7z M23.3,93.4l-2.7-15.7l-6.8,15.7H23.3z"/>
	<path fill="#42A5F5" d="M47.6,106.7c-0.9,0.6-1.8,1.1-2.5,1.5c-0.7,0.4-1.4,0.7-2,1c-0.6,0.3-1.1,0.4-1.6,0.6
		c-0.5,0.1-1,0.2-1.5,0.2c-0.5,0-1-0.3-1.4-0.9c-0.4-0.6-0.6-1.4-0.6-2.6c0-0.5,0.1-1.3,0.2-2.5s0.3-2.5,0.6-4.1
		c0.2-1.6,0.5-3.3,0.8-5.3c0.3-1.9,0.6-3.9,0.9-5.9c0.3-2,0.6-4,0.9-5.9c0.3-2,0.6-3.8,0.8-5.5c0.2-1.7,0.4-3.2,0.6-4.5
		c0.1-1.3,0.2-2.3,0.2-3c0-0.4,0-0.8-0.1-1.1c-0.1-0.3-0.2-0.5-0.3-0.6c-0.1-0.1-0.3-0.2-0.5-0.2c-0.2,0-0.4-0.1-0.5-0.1
		c-0.2,0-0.4,0-0.7,0.1c-0.3,0.1-0.7,0.2-1,0.3c-0.4,0.1-0.8,0.2-1.3,0.4l-0.4-1.1c0.8-0.4,1.6-0.7,2.4-1c0.8-0.3,1.6-0.6,2.3-0.9
		c0.7-0.2,1.3-0.5,1.9-0.6c0.5-0.2,0.9-0.2,1.2-0.2c0.5,0,1,0.2,1.3,0.5s0.5,1,0.5,1.8c0,0.7-0.1,1.8-0.2,3.1S47,73.3,46.8,75
		c-0.2,1.7-0.5,3.5-0.8,5.5c-0.3,2-0.6,3.9-0.9,5.9c-0.3,2-0.6,4-0.9,5.9c-0.3,1.9-0.6,3.7-0.8,5.4c-0.2,1.7-0.4,3.1-0.6,4.4
		c-0.1,1.3-0.2,2.2-0.2,2.9c0,0.7,0.1,1.1,0.3,1.3c0.2,0.2,0.4,0.4,0.7,0.4c0.4,0,1-0.1,1.5-0.2c0.6-0.2,1.3-0.4,2.2-0.7L47.6,106.7
		z"/>
	<path fill="#42A5F5" d="M74.5,91.3c0,2-0.3,4.1-0.9,6.1c-0.6,2.1-1.5,4.1-2.9,6c-0.7,0.9-1.4,1.7-2.2,2.5c-0.8,0.8-1.7,1.5-2.6,2.1
		c-0.9,0.6-2,1.1-3,1.5c-1.1,0.4-2.2,0.5-3.4,0.5c-0.4,0-0.9-0.1-1.3-0.3c-0.5-0.2-1-0.5-1.5-0.9c-0.5-0.4-1-0.8-1.5-1.3
		c-0.5-0.5-0.9-1-1.3-1.5c-0.4-0.5-0.7-1.1-0.9-1.7c-0.2-0.6-0.3-1.2-0.3-1.8c0-0.5,0.1-1.3,0.2-2.4c0.1-1.1,0.3-2.3,0.5-3.8
		s0.4-3,0.7-4.7c0.3-1.7,0.5-3.4,0.8-5.2c0.3-1.8,0.5-3.5,0.8-5.2s0.5-3.3,0.7-4.8c0.2-1.5,0.4-2.8,0.5-3.9c0.1-1.1,0.2-2,0.2-2.6
		c0-0.4,0-0.8-0.1-1.1c-0.1-0.3-0.2-0.5-0.4-0.6c-0.2-0.1-0.3-0.2-0.5-0.2c-0.2,0-0.3-0.1-0.5-0.1s-0.4,0-0.7,0.1
		c-0.3,0.1-0.6,0.2-1,0.3c-0.4,0.1-0.8,0.2-1.2,0.4L52,67.7c0.8-0.4,1.6-0.7,2.5-1c0.8-0.3,1.6-0.6,2.4-0.9c0.7-0.2,1.4-0.5,1.9-0.6
		c0.6-0.2,1-0.2,1.2-0.2c0.5,0,0.9,0.2,1.1,0.5c0.2,0.3,0.3,1,0.3,1.8c0,0.6,0,1.4-0.1,2.4c-0.1,1-0.2,2.1-0.4,3.3
		c-0.2,1.2-0.4,2.6-0.6,4c-0.2,1.5-0.5,3-0.7,4.5c-0.2,1.5-0.5,3.1-0.7,4.7c-0.2,1.6-0.5,3.1-0.7,4.5c1-1.7,2-3,3-4.2
		c1-1.1,2.1-2.1,3-2.8c1-0.7,1.9-1.2,2.8-1.5c0.9-0.3,1.6-0.5,2.2-0.5c0.7,0,1.5,0.2,2.1,0.6c0.7,0.4,1.2,1,1.7,1.8
		c0.5,0.8,0.8,1.8,1.1,2.9C74.3,88.4,74.5,89.7,74.5,91.3z M66.4,85.7c-0.4,0-0.9,0.2-1.6,0.7c-0.7,0.5-1.5,1.1-2.3,2
		c-0.8,0.9-1.7,1.9-2.6,3c-0.9,1.2-1.7,2.4-2.4,3.8c-0.2,1.4-0.4,2.6-0.5,3.7c-0.1,1.1-0.2,1.9-0.2,2.5c0,0.5,0.1,1,0.4,1.6
		c0.3,0.6,0.7,1.1,1.2,1.6c0.5,0.5,1.1,0.9,1.7,1.2c0.6,0.3,1.3,0.5,1.9,0.5c0.7,0,1.3-0.1,1.9-0.4c0.6-0.2,1.1-0.6,1.7-1
		c0.5-0.4,1-0.8,1.4-1.3c0.4-0.5,0.8-1,1.1-1.5c0.4-0.7,0.8-1.4,1.1-2.2c0.3-0.7,0.5-1.5,0.6-2.2c0.2-0.7,0.3-1.5,0.3-2.2
		c0.1-0.7,0.1-1.4,0.1-2.1c0-1.3-0.1-2.5-0.4-3.5c-0.2-1-0.5-1.8-0.9-2.5c-0.4-0.7-0.8-1.1-1.3-1.5C67.3,85.8,66.8,85.7,66.4,85.7z"
		/>
	<path fill="#42A5F5" d="M98.1,86.9c0,0.5-0.1,1.1-0.2,1.7c-0.1,0.6-0.4,1.2-0.8,1.8c-0.4,0.6-0.9,1.3-1.6,2
		c-0.7,0.7-1.6,1.4-2.8,2.1c-1.2,0.7-2.6,1.5-4.2,2.3c-1.7,0.8-3.7,1.6-6,2.5c0.1,1.1,0.3,2.1,0.7,2.9c0.3,0.9,0.7,1.6,1.2,2.3
		c0.5,0.6,0.9,1.1,1.5,1.5c0.5,0.4,1.1,0.5,1.6,0.5c0.4,0,0.9,0,1.5-0.1c0.6-0.1,1.2-0.3,2-0.6c0.8-0.3,1.6-0.7,2.6-1.3
		c1-0.6,2-1.3,3.2-2.2c0.2,0.1,0.4,0.3,0.6,0.6c0.2,0.3,0.3,0.5,0.3,0.6c-1.6,1.4-3,2.5-4.2,3.3c-1.2,0.8-2.3,1.5-3.2,1.9
		c-1,0.5-1.8,0.8-2.6,0.9c-0.8,0.2-1.5,0.2-2.2,0.2c-0.6,0-1.4-0.2-2.2-0.5c-0.8-0.4-1.6-0.9-2.3-1.7c-0.7-0.8-1.3-1.8-1.8-3.1
		c-0.5-1.3-0.7-2.8-0.7-4.6c0-1.5,0.2-3,0.5-4.4c0.4-1.4,0.9-2.8,1.6-4.2c0.7-1.3,1.5-2.6,2.5-3.8c1-1.2,2.1-2.3,3.4-3.3
		c0.4-0.3,0.9-0.7,1.5-1c0.6-0.3,1.1-0.6,1.7-0.8c0.6-0.2,1.2-0.4,1.8-0.6c0.6-0.1,1.2-0.2,1.8-0.2c0.8,0,1.5,0.1,2.1,0.4
		c0.6,0.3,1.1,0.7,1.5,1.2c0.4,0.5,0.7,1,0.9,1.6C98,85.7,98.1,86.3,98.1,86.9z M87.8,86.3c-0.6,0.6-1.3,1.3-1.9,2.1
		c-0.6,0.8-1.2,1.7-1.6,2.7c-0.5,1-0.9,2-1.2,3c-0.3,1-0.5,2.1-0.6,3.1c2.5-1,4.5-1.9,6-2.7c1.5-0.8,2.6-1.6,3.3-2.3
		c0.7-0.7,1.2-1.4,1.4-2c0.2-0.7,0.3-1.3,0.3-2c0-0.6-0.1-1.1-0.2-1.5c-0.2-0.4-0.4-0.8-0.6-1c-0.2-0.3-0.5-0.5-0.8-0.6
		c-0.3-0.1-0.6-0.2-1-0.2c-0.3,0-0.8,0.1-1.4,0.3C88.9,85.4,88.3,85.8,87.8,86.3z"/>
	<path fill="#42A5F5" d="M121.8,84.3c-0.2,0.3-0.5,0.7-0.8,1.1c-0.3,0.4-0.6,0.9-0.8,1.3c-0.3,0.4-0.5,0.8-0.8,1.1
		c-0.2,0.3-0.5,0.4-0.7,0.4c-0.4,0-0.7-0.1-0.9-0.3c-0.3-0.2-0.5-0.4-0.7-0.7c-0.2-0.2-0.4-0.5-0.7-0.7c-0.2-0.2-0.5-0.3-0.8-0.3
		c-0.5,0-1.1,0.3-1.7,1c-0.7,0.7-1.3,1.6-2,2.7c-0.7,1.1-1.3,2.3-1.9,3.7c-0.6,1.4-1.1,2.8-1.5,4.1c-0.2,0.7-0.4,1.5-0.6,2.4
		c-0.2,0.9-0.3,1.8-0.4,2.7c-0.1,0.9-0.2,1.8-0.3,2.7c-0.1,0.9-0.1,1.7,0,2.5c-0.2,0.1-0.6,0.3-0.9,0.4c-0.4,0.2-0.8,0.3-1.2,0.5
		c-0.4,0.2-0.8,0.3-1.1,0.5c-0.4,0.2-0.7,0.3-0.9,0.4l-1-0.9c0.3-1.4,0.6-2.8,0.8-4.2c0.3-1.5,0.5-2.9,0.8-4.4
		c0.2-1.5,0.5-2.9,0.7-4.3c0.2-1.4,0.4-2.7,0.5-3.9c0.1-1.2,0.3-2.3,0.3-3.2c0.1-0.9,0.1-1.7,0.1-2.3c0-0.4,0-0.8-0.1-1.1
		c-0.1-0.3-0.2-0.5-0.3-0.6c-0.1-0.1-0.2-0.2-0.4-0.2c-0.1,0-0.3-0.1-0.4-0.1c-0.2,0-0.5,0-0.8,0.1c-0.3,0.1-0.7,0.1-1,0.2
		c-0.4,0.1-0.8,0.2-1.2,0.3l-0.4-1.1c0.8-0.4,1.6-0.7,2.4-1.1c0.8-0.3,1.6-0.6,2.3-0.9c0.7-0.2,1.3-0.5,1.9-0.6
		c0.5-0.2,0.9-0.2,1.1-0.2c0.3,0,0.5,0,0.6,0.1c0.2,0.1,0.3,0.3,0.3,0.5c0.1,0.2,0.1,0.6,0.1,1c0,0.4,0,1,0,1.7c0,0.2,0,0.6-0.1,1.1
		c-0.1,0.5-0.1,1-0.2,1.6c-0.1,0.6-0.2,1.2-0.2,1.7c-0.1,0.6-0.2,1-0.2,1.4c0.9-1.9,1.8-3.4,2.6-4.6c0.8-1.2,1.6-2.1,2.3-2.8
		c0.7-0.7,1.4-1.1,2.1-1.4c0.7-0.2,1.3-0.4,1.9-0.4c0.3,0,0.7,0.1,0.9,0.3c0.3,0.2,0.6,0.4,0.9,0.7c0.3,0.3,0.6,0.5,0.9,0.8
		C121,83.9,121.4,84.1,121.8,84.3z"/>
</g>
</svg>
