<?xml version="1.0" encoding="utf-8"?>
<!-- Generator: Adobe Illustrator 18.0.0, SVG Export Plug-In . SVG Version: 6.00 Build 0)  -->
<!DOCTYPE svg PUBLIC "-//W3C//DTD SVG 1.1//EN" "http://www.w3.org/Graphics/SVG/1.1/DTD/svg11.dtd">
<svg version="1.1" id="Layer_1" xmlns="http://www.w3.org/2000/svg" xmlns:xlink="http://www.w3.org/1999/xlink" x="0px" y="0px"
	 viewBox="0 0 64 64" enable-background="new 0 0 64 64" xml:space="preserve">
<path fill="#BAD6F1" d="M32,0C14.3,0,0,14.3,0,32s14.3,32,32,32c17.7,0,32-14.3,32-32S49.7,0,32,0z M41.8,18.1
	c-0.7-0.2-1.7-0.4-2.8-0.4c-2.9,0-4.1,2.2-4.1,5v1.4h5.6v6.4H35V52h-8.7V30.5h-3.7v-6.4h3.7V23c0-3.4,1-7.1,3.5-9.4
	c2.2-2.1,5.2-2.8,7.7-2.8c1.9,0,3.4,0.2,4.6,0.6L41.8,18.1z"/>
</svg>
