<?xml version="1.0" encoding="utf-8"?>
<!-- Generator: Adobe Illustrator 18.0.0, SVG Export Plug-In . SVG Version: 6.00 Build 0)  -->
<!DOCTYPE svg PUBLIC "-//W3C//DTD SVG 1.1//EN" "http://www.w3.org/Graphics/SVG/1.1/DTD/svg11.dtd">
<svg version="1.1" id="Layer_1" xmlns="http://www.w3.org/2000/svg" xmlns:xlink="http://www.w3.org/1999/xlink" x="0px" y="0px"
	 viewBox="218 218 64 64" enable-background="new 218 218 64 64" xml:space="preserve">
<path fill="#607D8B" d="M250,234v-12.8h-32v57.6h64V234H250z M230.8,272.4h-6.4V266h6.4V272.4z M230.8,259.6h-6.4v-6.4h6.4V259.6z
	 M230.8,246.8h-6.4v-6.4h6.4V246.8z M230.8,234h-6.4v-6.4h6.4V234z M243.6,272.4h-6.4V266h6.4V272.4z M243.6,259.6h-6.4v-6.4h6.4
	V259.6z M243.6,246.8h-6.4v-6.4h6.4V246.8z M243.6,234h-6.4v-6.4h6.4V234z M275.6,272.4H250V266h6.4v-6.4H250v-6.4h6.4v-6.4H250
	v-6.4h25.6V272.4z M269.2,246.8h-6.4v6.4h6.4V246.8z M269.2,259.6h-6.4v6.4h6.4V259.6z"/>
</svg>
