<?xml version="1.0" encoding="utf-8"?>
<!-- Generator: Adobe Illustrator 18.0.0, SVG Export Plug-In . SVG Version: 6.00 Build 0)  -->
<!DOCTYPE svg PUBLIC "-//W3C//DTD SVG 1.1//EN" "http://www.w3.org/Graphics/SVG/1.1/DTD/svg11.dtd">
<svg version="1.1" id="Layer_1" xmlns="http://www.w3.org/2000/svg" xmlns:xlink="http://www.w3.org/1999/xlink" x="0px" y="0px"
	 viewBox="0 0 64 64" enable-background="new 0 0 64 64" xml:space="preserve">
<path opacity="0.6" fill="#B3B3B3" d="M45.7,40.2h-2.9l-1-1c3.6-4.2,5.7-9.6,5.7-15.5C47.6,10.6,36.9,0,23.8,0C10.6,0,0,10.6,0,23.8
	s10.6,23.8,23.8,23.8c5.9,0,11.3-2.2,15.5-5.7l1,1v2.9L58.6,64l5.4-5.5L45.7,40.2z M23.8,40.2c-9.1,0-16.5-7.3-16.5-16.5
	c0-9.1,7.4-16.5,16.5-16.5c9.1,0,16.5,7.4,16.5,16.5C40.2,32.9,32.9,40.2,23.8,40.2z"/>
</svg>
