<?xml version="1.0" encoding="utf-8"?>
<!-- Generator: Adobe Illustrator 18.0.0, SVG Export Plug-In . SVG Version: 6.00 Build 0)  -->
<!DOCTYPE svg PUBLIC "-//W3C//DTD SVG 1.1//EN" "http://www.w3.org/Graphics/SVG/1.1/DTD/svg11.dtd">
<svg version="1.1" id="Layer_1" xmlns="http://www.w3.org/2000/svg" xmlns:xlink="http://www.w3.org/1999/xlink" x="0px" y="0px"
	 viewBox="0 0 64 64" enable-background="new 0 0 64 64" xml:space="preserve">
<path fill="#656D72" d="M23.3,10.7v14.5h-5.8V13.6h-5.8v11.6H5.8v-5.8H0v34.9h5.8v-5.8h5.8v5.8h5.8v-5.8h5.8v5.8h5.8v-5.8h5.8v5.8
	h5.8v-5.8h5.8v5.8h5.8v-5.8h5.8v5.8H64V19.4h-5.8v5.8h-5.8V13.6h-5.8v11.6h-5.8V10.7h-5.8v14.5h-5.8V10.7H23.3 M5.8,31h5.8v11.6H5.8
	V31 M17.5,31h5.8v11.6h-5.8V31 M29.1,31h5.8v11.6h-5.8V31 M40.7,31h5.8v11.6h-5.8V31 M52.4,31h5.8v11.6h-5.8V31z"/>
</svg>
