<?xml version="1.0" encoding="utf-8"?>
<!-- Generator: Adobe Illustrator 18.0.0, SVG Export Plug-In . SVG Version: 6.00 Build 0)  -->
<!DOCTYPE svg PUBLIC "-//W3C//DTD SVG 1.1//EN" "http://www.w3.org/Graphics/SVG/1.1/DTD/svg11.dtd">
<svg version="1.1" id="Layer_1" xmlns="http://www.w3.org/2000/svg" xmlns:xlink="http://www.w3.org/1999/xlink" x="0px" y="0px"
	 viewBox="210 210 80 80" enable-background="new 210 210 80 80" xml:space="preserve">
<g>
	<polygon fill="#A7599E" points="288.2,250 250,288.1 211.9,250 250,211.9 	"/>
	<path fill="#6A246E" d="M213.8,250L213.8,250l36.2,36.2l36.2-36.2L250,213.8L213.8,250z M250,290l-40-40l40-40l40,40L250,290z"/>
	<path fill-rule="evenodd" clip-rule="evenodd" fill="#A5599E" d="M243.9,262.2c0.3,1.2,0.7,1.6,0.7,3v2.3c1.7-0.4,8.2-4.4,10.4-5.5
		c1.6-0.8,9.5-4.6,9.5-6.1v-3c0-1.1-0.2-1.1-0.7-1.7C263.3,252.7,246.5,259.4,243.9,262.2"/>
	<path fill="#FFFFFF" d="M269.4,264.5c0.7-0.1,1.3-0.8,1.3-1.5v-1.6c0-0.7-0.5-1.7-1.1-2.1L254.4,249c-0.6-0.4-1.7-0.7-2.5-0.7
		l-32,2.2c-0.7,0.1-0.9,0.5-0.3,0.9l15.8,12c0.6,0.5,1.1,1.4,1.1,2.2v1.6c0,0.7,0.6,1.3,1.3,1.2L269.4,264.5z"/>
	<path fill="#6A246E" d="M220,251.1L220,251.1C220,251.1,220,251.1,220,251.1l15.8,12c0.7,0.5,1.3,1.7,1.3,2.6v1.6
		c0,0.4,0.3,0.7,0.8,0.7l31.5-4c0.5-0.1,0.9-0.5,0.9-1v-1.6c0-0.6-0.4-1.4-0.9-1.7l-15.2-10.2c-0.5-0.4-1.5-0.6-2.2-0.6L220,251.1
		L220,251.1z M237.7,269c-0.9,0-1.7-0.8-1.7-1.7v-1.6c0-0.6-0.4-1.4-0.9-1.8l-15.8-12c-0.6-0.5-0.6-0.9-0.5-1.2
		c0.1-0.2,0.3-0.6,1.1-0.7l32-2.2c0.9-0.1,2.1,0.3,2.8,0.7l15.2,10.2c0.8,0.5,1.4,1.6,1.4,2.5v1.6c0,1-0.8,1.9-1.8,2l-31.5,4
		C237.9,269,237.8,269,237.7,269z"/>
	<polygon fill="#A5599E" points="270.8,260 236.2,264 236.6,264.3 236.6,268.6 270.8,264.3 	"/>
	<polygon fill-rule="evenodd" clip-rule="evenodd" fill="#FFFFFF" points="234.5,254 237.8,244.9 243.8,251.1 	"/>
	<polygon fill-rule="evenodd" clip-rule="evenodd" fill="#FFFFFF" points="238.3,245 250.9,232.4 256.3,237.9 243.7,250.5 	"/>
	<polygon fill="none" stroke="#6A246E" stroke-width="2.126" stroke-miterlimit="22.9256" points="238.3,245 250.9,232.4 
		256.3,237.9 243.7,250.5 	"/>
	<polyline fill="none" stroke="#6A246E" stroke-width="0.7087" stroke-miterlimit="22.9256" points="237.8,244.9 234.5,254 
		243.8,251.1 	"/>
	<polygon fill-rule="evenodd" clip-rule="evenodd" fill="#FFFFFF" points="251.5,233 255.1,229.4 259.1,233.6 255.6,237.2 	"/>
	<polygon fill="none" stroke="#6A246E" stroke-width="2.126" stroke-miterlimit="22.9256" points="251.5,233 255.1,229.4 
		259.1,233.6 255.6,237.2 	"/>
	<path fill="none" stroke="#6A246E" stroke-width="0.5669" stroke-miterlimit="22.9256" d="M235.9,250.2c0,0,0.5,1.2,0.9,1.6
		c0.4,0.3,1.5,1.1,1.5,1.1"/>
	<path fill-rule="evenodd" clip-rule="evenodd" fill="#6A246E" d="M234.5,254l1.4-3.8c0,0,0.5,1.1,0.9,1.6c0.4,0.4,1.5,1.1,1.5,1.1
		L234.5,254z"/>
	<path fill="none" stroke="#6A246E" stroke-width="0.5669" stroke-miterlimit="22.9256" d="M234.5,254l1.4-3.8c0,0,0.5,1.1,0.9,1.6
		c0.4,0.4,1.5,1.1,1.5,1.1L234.5,254z"/>
</g>
</svg>
