<?xml version="1.0" encoding="utf-8"?>
<!-- Generator: Adobe Illustrator 18.0.0, SVG Export Plug-In . SVG Version: 6.00 Build 0)  -->
<!DOCTYPE svg PUBLIC "-//W3C//DTD SVG 1.1//EN" "http://www.w3.org/Graphics/SVG/1.1/DTD/svg11.dtd">
<svg version="1.1" id="Layer_1" xmlns="http://www.w3.org/2000/svg" xmlns:xlink="http://www.w3.org/1999/xlink" x="0px" y="0px"
	 viewBox="218 218 64 64" enable-background="new 218 218 64 64" xml:space="preserve">
<path fill="#607D8B" d="M241.3,255.1c7.8,0,23.3,3.9,23.3,11.6v5.8H218v-5.8C218,259,233.5,255.1,241.3,255.1 M241.3,249.3
	c-6.4,0-11.6-5.2-11.6-11.6c0-6.4,5.2-11.6,11.6-11.6c6.4,0,11.6,5.2,11.6,11.6C252.9,244.1,247.7,249.3,241.3,249.3 M270.4,253
	l-7.2,4.3l1.9-8.2l-6.4-5.5l8.4-0.7l3.2-7.7l3.3,7.7l8.3,0.7l-6.3,5.5l2,8.2L270.4,253z"/>
</svg>
