<?xml version="1.0" encoding="utf-8"?>
<!-- Generator: Adobe Illustrator 18.0.0, SVG Export Plug-In . SVG Version: 6.00 Build 0)  -->
<!DOCTYPE svg PUBLIC "-//W3C//DTD SVG 1.1//EN" "http://www.w3.org/Graphics/SVG/1.1/DTD/svg11.dtd">
<svg version="1.1" id="Layer_1" xmlns="http://www.w3.org/2000/svg" xmlns:xlink="http://www.w3.org/1999/xlink" x="0px" y="0px"
	 viewBox="218 218 64 64" enable-background="new 218 218 64 64" xml:space="preserve">
<g>
	<polygon fill="#F50057" points="257.4,228.5 243.5,228.5 250.4,221.5 	"/>
	<polygon fill="#F50057" points="243.6,271.6 257.3,271.6 250.4,278.5 	"/>
	<path fill="#F50057" d="M236.1,233.1h-4.8L218,266.9h5.4l2.7-7.2h15.1l2.7,7.2h5.4L236.1,233.1z M228,254.8l5.7-15.3l5.7,15.3H228z
		"/>
	<g>
		<g>
			<path fill="#F50057" d="M282,266.9h-6v-14h-4.5c-2.6,0-4.3,0.7-5.6,1.9c-2.5,2-3.4,6.1-4.7,9.4c-0.4,1-0.9,1.9-1.4,2.8h-6.5
				c0.8-1.1,1.4-2.3,2.1-3.8c1.4-3.2,2.3-7.6,5.2-10.1c1-0.9,2.3-1.7,3.8-1.9v-0.2c-4.3-0.5-8.8-3.2-8.8-8.3c0-3.5,1.9-5.8,4.4-7.2
				c2.8-1.6,6.8-2.3,11.2-2.3c4,0,7.9,0.3,10.8,0.7V266.9z M276,237.5c-1.5-0.2-2.9-0.3-5-0.3c-4.1,0-9,1.2-9,5.8
				c0,4.3,5.3,5.8,8.9,5.8c2.5,0,3.8,0,5.2,0V237.5z"/>
		</g>
	</g>
</g>
</svg>
